<svg xmlns="http://www.w3.org/2000/svg" width="21" height="22" viewBox="0 0 21 22" fill="none"><g clip-path="url(#clip0_3811_5860)"><mask id="mask0_3811_5860" style="mask-type:luminance" maskUnits="userSpaceOnUse" x="0" y="0" width="21" height="22"><path d="M0.603027 0.5H20.603V21.5H0.603027V0.5Z" fill="white"></path></mask><g mask="url(#mask0_3811_5860)"><mask id="mask1_3811_5860" style="mask-type:luminance" maskUnits="userSpaceOnUse" x="0" y="0" width="21" height="22"><path d="M0.603027 0.5H20.603V21.5H0.603027V0.5Z" fill="white"></path></mask><g mask="url(#mask1_3811_5860)"><path d="M20.5204 4.02734L19.7766 15.1836L12.9171 0.5L20.5204 4.02734ZM15.727 18.4648L10.603 21.418L5.39642 18.4648L6.38815 15.9219H14.7353L15.727 18.4648ZM10.603 6.07812L13.2477 12.6406H7.87575L10.603 6.07812ZM1.34683 15.1836L0.603027 4.02734L8.20633 0.5L1.34683 15.1836Z" fill="url(#paint0_linear_3811_5860)"></path><path d="M20.5204 4.02734L19.7766 15.1836L12.9171 0.5L20.5204 4.02734ZM15.727 18.4648L10.603 21.418L5.39642 18.4648L6.38815 15.9219H14.7353L15.727 18.4648ZM10.603 6.07812L13.2477 12.6406H7.87575L10.603 6.07812ZM1.34683 15.1836L0.603027 4.02734L8.20633 0.5L1.34683 15.1836Z" fill="url(#paint1_linear_3811_5860)"></path></g></g></g><defs><linearGradient id="paint0_linear_3811_5860" x1="4.99972" y1="19.523" x2="20.8072" y2="11.9505" gradientUnits="userSpaceOnUse"><stop stop-color="#E40035"></stop><stop offset="0.2" stop-color="#F60A48"></stop><stop offset="0.4" stop-color="#F20755"></stop><stop offset="0.5" stop-color="#DC087D"></stop><stop offset="0.7" stop-color="#9717E7"></stop><stop offset="1" stop-color="#6C00F5"></stop></linearGradient><linearGradient id="paint1_linear_3811_5860" x1="4.28071" y1="3.01836" x2="14.5652" y2="14.8494" gradientUnits="userSpaceOnUse"><stop stop-color="#FF31D9"></stop><stop offset="1" stop-color="#FF5BE1" stop-opacity="0"></stop></linearGradient><clipPath id="clip0_3811_5860"><rect width="20" height="21" fill="white" transform="translate(0.603027 0.5)"></rect></clipPath></defs></svg>