<svg xmlns="http://www.w3.org/2000/svg" width="22" height="22" viewBox="0 0 22 22" fill="none"><g clip-path="url(#clip0_3610_3131)"><path fill-rule="evenodd" clip-rule="evenodd" d="M10.1154 21.1348V17.3745C14.0956 17.3745 17.1852 13.4274 15.6567 9.23825C15.376 8.46866 14.9305 7.76974 14.3512 7.19046C13.772 6.61117 13.0732 6.16552 12.3036 5.88473C8.11441 4.36755 4.16733 7.44589 4.16733 11.4261H0.417969C0.417969 5.08255 6.55325 0.134776 13.205 2.21243C16.1078 3.12555 18.4276 5.43401 19.3294 8.33721C21.4075 14.9995 16.4706 21.1348 10.1154 21.1348Z" fill="#0080FF"></path><path fill-rule="evenodd" clip-rule="evenodd" d="M6.38834 17.3854H10.1264V13.6473H6.38873L6.38834 17.3854ZM3.50772 20.266H6.38795V17.3858H3.50772V20.266ZM1.09961 17.3858H3.50772V14.9773H1.09961V17.3858Z" fill="#0080FF"></path></g><defs><clipPath id="clip0_3610_3131"><rect width="21" height="21" fill="white" transform="translate(0.412109 0.134766)"></rect></clipPath></defs></svg>