<svg xmlns="http://www.w3.org/2000/svg" width="21" height="22" viewBox="0 0 21 22" fill="none"><path d="M21 16.4065C20.2361 16.6007 19.7636 16.415 19.3397 15.7785L16.3249 11.6073L15.8891 11.0298L12.3683 15.7922C11.9661 16.3651 11.5441 16.6145 10.7933 16.4117L15.3018 10.3598L11.1044 4.89324C11.8263 4.75281 12.325 4.82434 12.768 5.47074L15.895 9.69371L19.045 5.49371C19.4486 4.92081 19.8824 4.70293 20.6069 4.91424L18.9794 7.07199L16.7744 9.94309C16.5119 10.2712 16.548 10.4956 16.7895 10.8126L21 16.4065ZM0.00525 10.2587L0.374063 8.44487C1.37812 4.85518 5.49281 3.36353 8.33044 5.58165C9.98878 6.88628 10.4009 8.73165 10.3189 10.7988H0.97125C0.830813 14.5198 3.50897 16.7655 6.92344 15.6196C8.12109 15.2174 8.82656 14.2796 9.17962 13.1062C9.35878 12.5182 9.65541 12.4263 10.208 12.5943C9.92578 14.0617 9.28922 15.2876 7.94391 16.0547C5.93381 17.2032 3.06469 16.8317 1.55531 15.2357C0.65625 14.3098 0.284813 13.1364 0.118125 11.8816C0.091875 11.6743 0.039375 11.4767 0 11.2779C0.0035 10.9384 0.00525 10.5989 0.00525 10.2594V10.2587ZM0.988313 10.0094H9.43556C9.38044 7.31874 7.70503 5.40774 5.41537 5.39134C2.90194 5.37165 1.09725 7.23737 0.988313 10.0094Z" fill="#21212B"></path></svg>