<svg xmlns="http://www.w3.org/2000/svg" width="27" height="22" viewBox="0 0 27 22" fill="none"><g clip-path="url(#clip0_3610_3111)"><path d="M16.5662 5.91774H17.363L19.6329 3.64918L19.7445 2.68663C15.5211 -1.03888 9.07372 -0.637449 5.34607 3.58355C4.30964 4.75611 3.55776 6.15072 3.14844 7.66017C3.40125 7.55626 3.68143 7.53985 3.94519 7.61204L8.48382 6.86388C8.48382 6.86388 8.71475 6.48214 8.83404 6.5062C10.8533 4.29015 14.2515 4.03201 16.5827 5.91774H16.5662Z" fill="#EA4335"></path><path d="M22.8659 7.66016C22.3439 5.74053 21.2735 4.0145 19.784 2.69427L16.5992 5.87725C17.9442 6.97544 18.7103 8.63037 18.6775 10.3662V10.9317C20.2437 10.9317 21.5121 12.2006 21.5121 13.7647C21.5121 15.3299 20.2426 16.5977 18.6775 16.5977H13.0072L12.4414 17.1708V20.5693L13.0072 21.1348H18.6775C21.928 21.1599 24.8118 19.0543 25.7771 15.9523C26.7402 12.8492 25.5582 9.48025 22.8659 7.66016Z" fill="#4285F4"></path><path d="M7.32913 21.1031H12.9994V16.5671H7.32913C6.92528 16.5671 6.52581 16.4806 6.15808 16.3122L5.36133 16.5583L3.07614 18.8269L2.87695 19.6231C4.15854 20.5901 5.72249 21.1096 7.32913 21.1031Z" fill="#34A853"></path><path d="M7.33002 6.38697C4.18023 6.40557 1.39051 8.42145 0.385813 11.4043C-0.618881 14.3871 0.382529 17.6794 2.87894 19.598L6.16773 16.3111C4.74058 15.6668 4.1069 13.9889 4.75152 12.5626C5.39615 11.1363 7.07502 10.503 8.50216 11.1472C9.13037 11.4316 9.63381 11.9348 9.91837 12.5626L13.2072 9.27572C11.8074 7.44797 9.63272 6.37932 7.33002 6.38697Z" fill="#FBBC05"></path></g><defs><clipPath id="clip0_3610_3111"><rect width="26.11" height="21" fill="white" transform="translate(0 0.134766)"></rect></clipPath></defs></svg>