<svg xmlns="http://www.w3.org/2000/svg" width="22" height="22" viewBox="0 0 22 22" fill="none"><g clip-path="url(#clip0_3610_3650)"><path d="M10.5547 21.1348C16.3537 21.1348 21.0547 16.4338 21.0547 10.6348C21.0547 4.83578 16.3537 0.134766 10.5547 0.134766C4.7557 0.134766 0.0546875 4.83578 0.0546875 10.6348C0.0546875 16.4338 4.7557 21.1348 10.5547 21.1348Z" fill="#6DAC48"></path><path d="M13.3611 9.3518C12.6979 6.42472 11.1305 5.46229 10.9617 5.09458C10.7771 4.83516 10.5901 4.37373 10.5901 4.37373C10.587 4.36594 10.5821 4.3522 10.5763 4.33887C10.5573 4.59829 10.5474 4.69837 10.3022 4.96005C9.92236 5.257 7.9737 6.89209 7.81518 10.2176C7.66732 13.3192 10.0557 15.1674 10.3787 15.403L10.4154 15.4291V15.4268C10.4174 15.4424 10.5179 16.1651 10.5884 16.9309H10.8415C10.9009 16.3896 10.9899 15.8519 11.1081 15.3204L11.1286 15.3071C11.2731 15.2035 11.4109 15.0908 11.541 14.9697L11.5558 14.9564C12.2424 14.3221 13.4768 12.8549 13.4647 10.5158C13.4621 10.1256 13.4275 9.73631 13.3611 9.3518ZM10.5616 13.6519C10.5616 13.6519 10.5616 9.30176 10.7051 9.30258C10.8171 9.30258 10.9621 14.9137 10.9621 14.9137C10.7628 14.8897 10.5616 13.9903 10.5616 13.6519Z" fill="#F7F9FD"></path></g><defs><clipPath id="clip0_3610_3650"><rect width="21" height="21" fill="white" transform="translate(0.0546875 0.134766)"></rect></clipPath></defs></svg>