<svg xmlns="http://www.w3.org/2000/svg" width="22" height="22" viewBox="0 0 22 22" fill="none"><g clip-path="url(#clip0_3811_5699)"><path fill-rule="evenodd" clip-rule="evenodd" d="M13.2222 0.540926C13.0709 0.540926 12.9295 0.57317 12.8005 0.615337C13.0771 0.801364 13.2284 1.0432 13.3053 1.31976C13.3103 1.35697 13.3214 1.38425 13.3264 1.4227C13.3313 1.46114 13.3388 1.48718 13.3388 1.52191C13.3611 1.99938 13.2148 2.05891 13.1106 2.34043C12.9531 2.7038 12.9965 3.09446 13.185 3.40699C13.2023 3.44883 13.2239 3.48873 13.2495 3.52604C13.0436 2.1544 14.1883 1.94729 14.3991 1.51943C14.4153 1.14489 14.1065 0.895618 13.8621 0.721992C13.629 0.580612 13.4157 0.535965 13.2222 0.535965V0.540926ZM14.9461 0.850971C14.9237 0.974989 14.9411 0.942745 14.9337 1.00847L14.9213 1.14986L14.8841 1.28007C14.8717 1.32348 14.8568 1.36689 14.8406 1.41029L14.7811 1.53431C14.765 1.55663 14.7538 1.57772 14.7377 1.5988L14.7055 1.64841L14.6236 1.7563C14.5914 1.78855 14.5641 1.82699 14.5244 1.85552C14.4847 1.88404 14.4599 1.92001 14.4215 1.94729C14.3074 2.0341 14.1772 2.09859 14.0581 2.18045C14.0209 2.20773 13.9837 2.23005 13.9502 2.2623C13.9135 2.28827 13.8791 2.31731 13.8473 2.34911C13.8101 2.38136 13.7828 2.4136 13.748 2.45205C13.7133 2.49049 13.6885 2.52274 13.6662 2.55994L13.5918 2.67404L13.5323 2.79806L13.4889 2.92207L13.4516 3.05849C13.4467 3.08082 13.4467 3.1081 13.4392 3.12919C13.4318 3.15027 13.4343 3.17259 13.4268 3.19367L13.4219 3.33009C13.4219 3.36234 13.4219 3.39458 13.4268 3.42931C13.4268 3.47272 13.4318 3.51612 13.443 3.56573C13.4541 3.61534 13.4591 3.65254 13.4702 3.69595L13.5137 3.82617C13.5261 3.85345 13.5409 3.88074 13.5509 3.90058L12.3032 3.41691L11.6745 3.25568L11.3322 3.17383C11.0057 3.10877 10.6763 3.05993 10.345 3.02749C10.3326 3.02749 10.3289 3.02253 10.3177 3.02253L9.34664 2.97292L8.63602 3.00021C8.30489 3.02253 7.97376 3.0647 7.64387 3.11926L7.39956 3.16267L6.91093 3.27057L6.66661 3.33506L6.43346 3.43799L6.25487 3.51984C6.24247 3.5248 6.23255 3.5248 6.22759 3.53224L6.07628 3.60666C6.06016 3.61162 6.049 3.61906 6.03908 3.62278L5.87041 3.70959C5.83321 3.72571 5.796 3.7468 5.76252 3.76416C5.7464 3.77656 5.72531 3.78524 5.71291 3.79144L5.57153 3.87329C5.52662 3.89811 5.48314 3.92544 5.44131 3.95515L5.33342 4.02956L5.21436 4.11637L5.12258 4.19078C5.11018 4.19574 5.10026 4.2069 5.09034 4.2131L5.00849 4.28379C5.00353 4.2962 4.99237 4.29992 4.98616 4.30612L4.88695 4.39789L4.77905 4.50083L4.68728 4.60004C4.67488 4.61244 4.66 4.62236 4.65008 4.63229C4.62094 4.66627 4.59032 4.69896 4.5583 4.73026C4.55334 4.74266 4.54218 4.74638 4.53598 4.75754L4.41196 4.88776L4.11928 5.16928C4.02006 5.2561 3.91837 5.33795 3.81543 5.4074L3.49051 5.61327C3.38261 5.6728 3.26727 5.72737 3.14821 5.77449C3.03297 5.82352 2.91543 5.86698 2.796 5.90471C2.56781 5.95432 2.33466 6.04609 2.13375 6.06222C2.09034 6.06222 2.04197 6.07462 1.99733 6.07834L1.86091 6.11058L1.73069 6.16019C1.68629 6.17778 1.64282 6.19765 1.60047 6.21972C1.56326 6.247 1.51862 6.26933 1.48141 6.29413C1.44421 6.31893 1.407 6.35366 1.37351 6.3859C1.34003 6.41815 1.2991 6.45039 1.26562 6.48512L1.17385 6.59301C1.14656 6.63642 1.11432 6.67487 1.09199 6.71703C1.06361 6.75679 1.03832 6.79866 1.01634 6.84229L0.956814 6.98367L0.907206 7.12505L0.879922 7.25527C0.8638 7.31976 0.8638 7.38549 0.857599 7.41649C0.851398 7.4475 0.857599 7.48842 0.857599 7.52687C0.856546 7.55055 0.85821 7.57426 0.86256 7.59756C0.867521 7.63477 0.874962 7.66825 0.884883 7.7005L0.922089 7.79971C0.938211 7.83692 0.959294 7.8704 0.981617 7.90265L1.05231 8.00186L1.14408 8.08867C1.17587 8.12047 1.21031 8.14952 1.24702 8.17549C1.37724 8.28958 1.40824 8.32679 1.57814 8.4136C1.60543 8.42972 1.63271 8.44088 1.66496 8.45701C1.68108 8.47313 1.68108 8.47809 1.68728 8.48925C1.69224 8.53266 1.7034 8.57606 1.71456 8.61947C1.72492 8.66414 1.73945 8.70774 1.75797 8.74969L1.80138 8.8489C1.80634 8.86131 1.81378 8.87123 1.8175 8.87619L1.88199 8.99525L1.96384 9.10934L2.05561 9.21228C2.08786 9.24452 2.1201 9.27181 2.15855 9.30405L2.26645 9.3859C2.30365 9.41319 2.34086 9.43551 2.3855 9.45659C2.42563 9.4797 2.46751 9.4996 2.51076 9.51612C2.54301 9.53224 2.58145 9.54341 2.61866 9.55333C2.65586 9.56325 2.68935 9.57565 2.71043 9.58061C2.69431 9.87329 2.68811 10.1511 2.73275 10.2478C2.78236 10.3557 3.02048 10.0246 3.25859 9.64634C3.22635 10.0209 3.20402 10.4599 3.25859 10.5889C3.31316 10.7179 3.64305 10.3012 3.92581 9.83485C7.77037 8.94564 11.2801 11.6033 11.6484 15.3561C11.5777 14.7708 10.8572 14.4446 10.5261 14.5252C10.3648 14.927 10.087 15.443 9.64181 15.7617C9.67901 15.402 9.66289 15.0349 9.58724 14.6765C9.46592 15.1758 9.23646 15.6423 8.91506 16.0432C8.40038 16.0804 7.88571 15.8324 7.61287 15.4578C7.59055 15.4417 7.58559 15.4082 7.56946 15.3871L7.52606 15.273C7.50993 15.2358 7.49877 15.1986 7.49381 15.1589C7.48885 15.1193 7.48885 15.0845 7.48885 15.0399V14.958C7.49381 14.9208 7.50497 14.8836 7.51613 14.8439L7.55334 14.7298C7.57566 14.6926 7.59055 14.6554 7.61783 14.6157C7.7096 14.3677 7.7096 14.1445 7.54342 14.0205C7.51117 13.9981 7.47893 13.9833 7.44048 13.9659C7.41816 13.9609 7.39088 13.9498 7.36979 13.9436L7.32639 13.9274L7.21229 13.9002C7.17521 13.8894 7.1368 13.884 7.09819 13.884C7.05881 13.8776 7.01903 13.8739 6.97914 13.8729C6.95185 13.8729 6.92457 13.8778 6.89728 13.8778C6.85703 13.8775 6.81694 13.8829 6.77823 13.894L6.66413 13.915L6.55003 13.9523L6.44214 14.0019L6.3392 14.0564C5.07422 14.8811 5.83073 16.8096 6.69141 17.3702C6.36649 17.4297 6.03412 17.5004 5.94358 17.5711C6.16682 17.7224 6.40989 17.8439 6.66537 17.9456L7.54342 18.1937C7.9936 18.2929 8.44875 18.3239 8.9101 18.2966C10.082 18.2108 11.1895 17.7275 12.0494 16.9267C12.9093 16.1259 13.47 15.0556 13.6389 13.8927L13.6712 14.0341L13.7208 14.3379L13.7431 14.4843L13.7555 14.6455L13.7679 14.8241V14.9109C13.7679 14.9382 13.7729 14.9704 13.7729 14.9977C13.7729 15.025 13.7679 15.0622 13.7679 15.0969V15.1714C13.7679 15.2086 13.7629 15.242 13.7629 15.2792C13.7629 15.3003 13.7629 15.3227 13.758 15.3499L13.753 15.469C13.748 15.4851 13.748 15.5012 13.748 15.5186L13.7319 15.6426C13.7319 15.6587 13.7319 15.6749 13.727 15.6922L13.7059 15.8497V15.8621L13.6736 16.0134L13.6414 16.1747L13.598 16.3433L13.5546 16.512L13.5 16.6856L13.381 17.0006L13.3165 17.1581L13.2421 17.3094C13.2371 17.3255 13.2297 17.3367 13.2259 17.3466C12.8626 18.0734 12.3417 18.6984 11.6906 19.1846C11.6472 19.2119 11.6038 19.2441 11.5604 19.2764C11.548 19.2888 11.5331 19.2925 11.5232 19.3036L11.4041 19.3855L11.4202 19.4177H11.4252L11.6534 19.3855H11.6583L12.08 19.3111C12.1172 19.3061 12.1619 19.295 12.1991 19.2838L12.2735 19.2677L12.3876 19.2466L12.4868 19.2193C13.0287 19.0891 13.5533 18.9093 14.0593 18.6984C13.1974 19.8766 12.0416 20.8241 10.691 21.4479C11.3148 21.4045 11.9386 21.3016 12.5389 21.1279C14.7241 20.4831 16.5633 19.0134 17.6645 17.0329C17.4412 18.2886 16.9432 19.4794 16.2061 20.5203C16.7319 20.173 17.2144 19.7724 17.6546 19.3173C18.8685 18.0498 19.6652 16.4412 19.9378 14.7075C20.1238 15.5632 20.1759 16.4487 20.0953 17.3218C24.0106 11.8601 20.4202 6.1974 18.9171 4.7067C18.9122 4.69429 18.9047 4.69057 18.9047 4.67941C18.8923 4.7439 18.8886 4.80963 18.8836 4.87412C18.8675 4.99814 18.8514 5.11844 18.8291 5.23749C18.8068 5.35655 18.7695 5.47561 18.7373 5.59715C18.7051 5.71869 18.6554 5.8303 18.6071 5.9444C18.5587 6.0585 18.5041 6.16763 18.4459 6.27553C18.3861 6.38161 18.3211 6.48467 18.2511 6.58433C18.1805 6.68727 18.1048 6.78524 18.0279 6.87702C17.947 6.97142 17.8617 7.06205 17.7724 7.14862C17.7179 7.19822 17.6695 7.24039 17.6149 7.28504L17.4909 7.39293C17.3941 7.46976 17.2926 7.54058 17.1871 7.605C17.0835 7.67181 16.9767 7.73348 16.8671 7.78979C16.753 7.84436 16.6389 7.89272 16.5248 7.94109C16.4093 7.98479 16.2918 8.02287 16.1726 8.05519C16.0535 8.08743 15.9283 8.11472 15.8092 8.13704C15.6902 8.15936 15.5612 8.16928 15.4409 8.18045C15.3541 8.18541 15.2673 8.19285 15.1929 8.19285C15.0688 8.19285 14.9448 8.18045 14.8245 8.17053C14.7042 8.1606 14.5765 8.14324 14.455 8.11596C14.3319 8.09369 14.2105 8.06303 14.0916 8.02418H14.0866C14.2057 8.01178 14.3247 8.00186 14.4463 7.98078C14.5678 7.95969 14.6906 7.93117 14.8096 7.89893C14.9287 7.86668 15.0478 7.82824 15.1619 7.78483C15.276 7.74142 15.395 7.68561 15.5041 7.63353C15.6153 7.57933 15.7237 7.51973 15.8291 7.45494C15.932 7.38425 16.0349 7.31356 16.1329 7.23791C16.2301 7.16229 16.3225 7.0807 16.4095 6.99359C16.5013 6.91174 16.5831 6.81997 16.665 6.72819C16.7468 6.63642 16.8225 6.53348 16.8931 6.43551C16.9056 6.41939 16.9155 6.39831 16.9254 6.38094L17.0829 6.13291C17.1424 6.02501 17.197 5.91587 17.2441 5.80178C17.2912 5.68768 17.3359 5.57358 17.3743 5.45453C17.4128 5.33547 17.4388 5.22137 17.4661 5.10231C17.4934 4.98326 17.5095 4.858 17.5207 4.73894C17.5318 4.61988 17.5418 4.49091 17.5418 4.37061C17.5418 4.28379 17.5368 4.19698 17.5294 4.12257C17.517 3.99855 17.5021 3.87826 17.486 3.7592C17.4644 3.63686 17.4371 3.5156 17.4041 3.39582C17.3669 3.28173 17.3297 3.16267 17.285 3.04857C17.2404 2.93448 17.1858 2.82038 17.1337 2.71372C17.0817 2.60707 17.0147 2.49669 16.9477 2.39376C16.8807 2.29082 16.8063 2.19285 16.7307 2.09611L16.4826 1.81955C16.4368 1.77314 16.3897 1.72806 16.3413 1.68437C16.0983 1.4955 15.8466 1.31796 15.5872 1.15234C15.55 1.13125 15.5165 1.11513 15.4793 1.09777C15.3008 0.983671 15.1321 0.924142 14.9647 0.869574L14.9461 0.850971Z" fill="#EA2845"></path></g><defs><clipPath id="clip0_3811_5699"><rect width="21" height="21" fill="white" transform="translate(0.857605 0.5)"></rect></clipPath></defs></svg>