<svg xmlns="http://www.w3.org/2000/svg" width="22" height="22" viewBox="0 0 22 22" fill="none"><g clip-path="url(#clip0_3610_3593)"><path d="M20.9758 12.7085C20.8536 12.3388 20.5337 12.0812 20.1199 12.0194C19.9248 11.9903 19.7014 12.0027 19.437 12.0572C18.9762 12.1522 18.6342 12.1884 18.3847 12.1954C19.3266 10.6059 20.0924 8.79322 20.5333 7.0869C21.2462 4.32783 20.8653 3.0709 20.4201 2.50236C19.2419 0.997512 17.523 0.189092 15.4493 0.164356C14.3431 0.150835 13.3719 0.369165 12.8653 0.526172C12.3937 0.442976 11.8865 0.396526 11.3543 0.387936C10.3568 0.372029 9.47543 0.589405 8.72232 1.03617C8.30539 0.895226 7.63622 0.696542 6.86346 0.569759C5.04597 0.271493 3.58113 0.503902 2.50966 1.26054C1.21223 2.17666 0.610778 3.76836 0.722014 5.99143C0.757342 6.69725 1.15232 8.84476 1.77422 10.8814C2.13164 12.052 2.51277 13.0241 2.90703 13.771C3.46615 14.83 4.06442 15.4537 4.73605 15.6777C5.11249 15.803 5.79645 15.8908 6.51583 15.2919C6.60701 15.4023 6.72867 15.512 6.89011 15.6139C7.09516 15.7431 7.34588 15.8488 7.59628 15.9114C8.49866 16.1368 9.34391 16.0804 10.065 15.7644C10.0695 15.8926 10.0729 16.0151 10.0758 16.1209C10.0805 16.2924 10.0853 16.4606 10.0916 16.618C10.1343 17.6817 10.2067 18.5088 10.4213 19.0875C10.433 19.1193 10.4489 19.1679 10.4656 19.2193C10.5726 19.5469 10.7515 20.0952 11.2068 20.5246C11.6783 20.9695 12.2485 21.1059 12.7708 21.1059C13.0328 21.1059 13.2827 21.0715 13.5019 21.0246C14.2832 20.8572 15.1707 20.6022 15.8126 19.6884C16.4196 18.8246 16.7146 17.5237 16.768 15.4737C16.7749 15.4158 16.7813 15.3604 16.7874 15.3077L16.8001 15.1993L16.9431 15.2119L16.98 15.2144C17.7758 15.2506 18.7489 15.0819 19.3465 14.8044C19.8188 14.5854 21.3321 13.7867 20.9758 12.7085Z" fill="black"></path><path d="M19.6146 12.9182C17.2482 13.4061 17.0855 12.6053 17.0855 12.6053C19.5839 8.89939 20.6284 4.19531 19.7271 3.044C17.2682 -0.0965356 13.0117 1.38875 12.9406 1.42724L12.9178 1.43138C12.4503 1.33434 11.9271 1.2766 11.339 1.26698C10.2684 1.24948 9.45613 1.54758 8.8398 2.01479C8.8398 2.01479 1.24664 -1.11215 1.59984 5.94744C1.67495 7.44927 3.75327 17.3112 6.23212 14.3324C7.13816 13.2432 8.01365 12.3222 8.01365 12.3222C8.44841 12.6109 8.96894 12.7582 9.51461 12.7053L9.55702 12.6694C9.54382 12.8046 9.54986 12.9369 9.57397 13.0935C8.93536 13.8067 9.12306 13.9319 7.84647 14.1946C6.55469 14.4607 7.31353 14.9345 7.809 15.0584C8.40966 15.2085 9.79923 15.4212 10.7381 14.1073L10.7007 14.2572C10.9509 14.4576 11.1266 15.5603 11.0971 16.56C11.0677 17.5596 11.048 18.2459 11.2451 18.782C11.4424 19.3181 11.6388 20.5243 13.3171 20.1648C14.7193 19.8644 15.446 19.086 15.5471 17.7875C15.6188 16.8644 15.7812 17.0008 15.7914 16.1755L15.9217 15.7848C16.0718 14.5334 15.9455 14.1297 16.8094 14.3175L17.0195 14.3359C17.6552 14.3648 18.4875 14.2337 18.9759 14.0067C20.0277 13.5189 20.6515 12.7042 19.6144 12.9182H19.6146Z" fill="#336791"></path><path d="M9.28532 6.61907C9.07208 6.5894 8.87896 6.61684 8.78126 6.69081C8.72635 6.73241 8.70933 6.78061 8.70471 6.81377C8.69246 6.90166 8.75404 6.99886 8.79192 7.04897C8.89902 7.19086 9.05545 7.28837 9.21029 7.30985C9.23272 7.31303 9.25508 7.31446 9.27728 7.31446C9.53548 7.31446 9.77028 7.11347 9.79097 6.96513C9.81683 6.77933 9.54702 6.65542 9.28532 6.61907ZM16.3497 6.62495C16.3293 6.47932 16.0701 6.4378 15.824 6.472C15.5783 6.5062 15.3401 6.61708 15.36 6.76303C15.3759 6.87653 15.581 7.07028 15.8236 7.07028C15.8442 7.07028 15.8649 7.06893 15.8857 7.06599C16.0477 7.04356 16.1666 6.94072 16.2231 6.88146C16.309 6.79111 16.3588 6.69041 16.3497 6.62495Z" fill="white"></path><path d="M20.4033 12.8628C20.3131 12.59 20.0227 12.5023 19.5402 12.6019C18.1076 12.8974 17.5945 12.6927 17.4261 12.5687C18.5396 10.873 19.4557 8.82313 19.9499 6.91065C20.184 6.00472 20.3133 5.16337 20.3238 4.4776C20.3355 3.72494 20.2073 3.17183 19.9428 2.83396C18.8764 1.47188 17.3113 0.741245 15.4168 0.721201C14.1144 0.706566 13.0139 1.03975 12.8006 1.13344C12.3514 1.02177 11.8616 0.953212 11.3285 0.944463C10.3507 0.928635 9.50556 1.16263 8.80584 1.63962C8.50189 1.52652 7.7164 1.25697 6.75578 1.10227C5.09504 0.835019 3.77533 1.03752 2.83356 1.70444C1.70982 2.5003 1.19104 3.9229 1.29154 5.93266C1.32535 6.60881 1.71078 8.68887 2.319 10.6809C3.11961 13.3028 3.98992 14.787 4.90559 15.0924C5.01276 15.1281 5.13633 15.153 5.27263 15.153C5.60666 15.153 6.0162 15.0026 6.44228 14.4905C6.96198 13.8673 7.49958 13.2592 8.0544 12.667C8.41437 12.8601 8.80982 12.968 9.21427 12.9788C9.21506 12.9894 9.2161 13 9.21705 13.0105C9.14743 13.0934 9.07926 13.1776 9.01256 13.263C8.73232 13.6186 8.674 13.6927 7.77194 13.8783C7.51533 13.9313 6.83383 14.0717 6.82381 14.5492C6.81299 15.071 7.62943 15.2901 7.72245 15.3133C8.04661 15.3944 8.35891 15.4344 8.65673 15.4344C9.38104 15.4344 10.0185 15.1965 10.5279 14.736C10.5122 16.5961 10.5898 18.429 10.8132 18.9874C10.9962 19.4446 11.4432 20.5618 12.8552 20.5618C13.0624 20.5618 13.2904 20.5377 13.5413 20.4839C15.015 20.1681 15.655 19.517 15.9025 18.0816C16.035 17.3145 16.2623 15.4826 16.3692 14.5C16.5949 14.5704 16.8854 14.6026 17.1995 14.6026C17.8545 14.6026 18.6103 14.4635 19.0843 14.2435C19.6167 13.9963 20.5776 13.3898 20.4033 12.8628ZM16.8939 6.22297C16.8891 6.51304 16.8491 6.77639 16.8068 7.05127C16.7612 7.34691 16.7141 7.65258 16.7022 8.02362C16.6905 8.38472 16.7357 8.76014 16.7793 9.12322C16.8674 9.85656 16.9579 10.6115 16.6077 11.3565C16.5495 11.2534 16.4977 11.147 16.4526 11.0376C16.409 10.9321 16.3145 10.7627 16.1836 10.5283C15.6745 9.61548 14.4821 7.47799 15.0925 6.60578C15.2743 6.34617 15.7357 6.07924 16.8939 6.22297ZM15.49 1.30859C17.1875 1.34605 18.5303 1.98084 19.481 3.19522C20.2101 4.12668 19.4072 8.36499 17.0828 12.0214C17.0594 11.9917 17.0359 11.9621 17.0123 11.9326L16.9829 11.8958C17.5835 10.9042 17.4661 9.92313 17.3615 9.05331C17.3186 8.69635 17.278 8.35919 17.2883 8.04247C17.299 7.70682 17.3434 7.41889 17.3864 7.14051C17.4391 6.79747 17.4928 6.44249 17.478 6.02405C17.4891 5.98014 17.4935 5.92828 17.4877 5.86672C17.4499 5.46545 16.9916 4.26452 16.0575 3.17756C15.5465 2.58302 14.8014 1.91768 13.7839 1.46893C14.2215 1.37826 14.82 1.29371 15.49 1.30859ZM5.99137 14.1157C5.52192 14.68 5.19776 14.5718 5.09114 14.5363C4.39651 14.3047 3.59049 12.8371 2.87987 10.5098C2.26497 8.49607 1.90564 6.47113 1.87715 5.90331C1.7874 4.10751 2.22288 2.85599 3.17156 2.18342C4.7155 1.08898 7.25387 1.74405 8.27385 2.07628C8.25921 2.09076 8.24394 2.10428 8.22945 2.11899C6.55567 3.80869 6.59537 6.69558 6.59951 6.87207C6.59935 6.94016 6.60508 7.03656 6.61287 7.16915C6.64168 7.65472 6.69531 8.55843 6.55208 9.58184C6.41905 10.5329 6.71233 11.4637 7.3566 12.1357C7.42271 12.2045 7.49221 12.2701 7.56482 12.332C7.27806 12.639 6.65481 13.318 5.99137 14.1157ZM7.77998 11.7301C7.26072 11.1885 7.02488 10.4351 7.13285 9.66297C7.28403 8.58189 7.22825 7.64033 7.19826 7.13447C7.19404 7.06368 7.1903 7.00164 7.18815 6.95273C7.43266 6.73599 8.56579 6.12911 9.37388 6.3142C9.7426 6.39859 9.9673 6.64961 10.0607 7.08134C10.5442 9.31658 10.1247 10.2482 9.78763 10.9969C9.71817 11.1511 9.65252 11.2969 9.59651 11.4477L9.55307 11.5643C9.4431 11.8591 9.34078 12.1332 9.27736 12.3934C8.72532 12.3918 8.18832 12.1561 7.77998 11.7301V11.7301ZM7.86472 14.7446C7.70351 14.7044 7.55854 14.6345 7.47348 14.5765C7.54453 14.5431 7.67097 14.4976 7.89026 14.4524C8.95145 14.2341 9.11536 14.0799 9.47326 13.6257C9.55529 13.5215 9.64831 13.4035 9.77713 13.2597L9.77729 13.2595C9.96913 13.0447 10.0569 13.0812 10.216 13.1472C10.345 13.2005 10.4706 13.3621 10.5216 13.5399C10.5457 13.6239 10.5727 13.7833 10.4842 13.9074C9.73655 14.9538 8.64711 14.9404 7.86472 14.7446ZM13.4185 19.9107C12.1202 20.1888 11.6606 19.5267 11.3577 18.7697C11.1622 18.281 11.066 16.0773 11.1342 13.6437C11.1351 13.6114 11.1305 13.5801 11.1216 13.5507C11.1136 13.4926 11.1015 13.4351 11.0853 13.3787C10.9839 13.0246 10.7369 12.7284 10.4405 12.6056C10.3227 12.5569 10.1066 12.4674 9.84691 12.5338C9.90229 12.3057 9.99833 12.0481 10.1025 11.7691L10.1462 11.6518C10.1953 11.5195 10.2571 11.3825 10.3223 11.2374C10.6751 10.4541 11.1581 9.38124 10.6338 6.9575C10.4375 6.04966 9.78166 5.60631 8.78754 5.70932C8.19158 5.77096 7.6463 6.01132 7.37434 6.14916C7.31586 6.17875 7.26239 6.20738 7.21242 6.23522C7.28833 5.32054 7.57509 3.61112 8.64782 2.52957C9.32327 1.84872 10.2228 1.51244 11.3188 1.53057C13.4782 1.56589 14.863 2.67369 15.6445 3.59688C16.318 4.39233 16.6827 5.19367 16.8282 5.62588C15.7337 5.51461 14.9894 5.73055 14.6121 6.26982C13.7912 7.44284 15.0611 9.71952 15.6715 10.8137C15.7835 11.0142 15.8801 11.1875 15.9105 11.2612C16.1092 11.7427 16.3665 12.0642 16.5544 12.2988C16.612 12.3707 16.6679 12.4405 16.7104 12.5014C16.3789 12.5969 15.7835 12.8177 15.8377 13.9209C15.794 14.4745 15.4828 17.0663 15.3247 17.982C15.116 19.1918 14.6706 19.6424 13.4185 19.9108V19.9107ZM18.8374 13.7119C18.4984 13.8691 17.9312 13.9871 17.3923 14.0125C16.7972 14.0403 16.4942 13.9458 16.4229 13.8877C16.3895 13.2002 16.6454 13.1283 16.9164 13.0523C16.9589 13.0404 17.0005 13.0287 17.0406 13.0147C17.0655 13.035 17.0928 13.0551 17.1227 13.0748C17.601 13.3904 18.4542 13.4245 19.6588 13.1759L19.672 13.1733C19.5095 13.3251 19.2315 13.5289 18.8374 13.7119Z" fill="white"></path></g><defs><clipPath id="clip0_3610_3593"><rect width="20.3694" height="21" fill="white" transform="translate(0.685547 0.134766)"></rect></clipPath></defs></svg>