<svg xmlns="http://www.w3.org/2000/svg" width="22" height="22" viewBox="0 0 22 22" fill="none"><g clip-path="url(#clip0_3811_5609)"><path d="M21.0348 15.8352C19.9141 16.4193 14.1086 18.8063 12.8726 19.4507C11.6367 20.0951 10.9501 20.0889 9.97366 19.6221C8.99732 19.1554 2.81922 16.6598 1.7063 16.1279C1.15013 15.8621 0.857605 15.6376 0.857605 15.4257V13.303C0.857605 13.303 8.90077 11.5521 10.1992 11.0862C11.4976 10.6204 11.9481 10.6035 13.0531 11.0083C14.1582 11.4132 20.7655 12.6053 21.8576 13.0053L21.8571 15.0979C21.8573 15.3077 21.6053 15.5379 21.0348 15.8352Z" fill="#912626"></path><path d="M21.0344 13.7251C19.9138 14.309 14.1085 16.6961 12.8725 17.3404C11.6366 17.9849 10.95 17.9786 9.97367 17.5118C8.99725 17.0454 2.81939 14.5494 1.70656 14.0178C0.593723 13.4858 0.570426 13.1197 1.66357 12.6916C2.75672 12.2634 8.9007 9.85295 10.1993 9.3871C11.4977 8.92141 11.9482 8.90443 13.0531 9.30933C14.1582 9.71408 19.9289 12.011 21.0208 12.4109C22.1131 12.8113 22.1551 13.141 21.0344 13.7251Z" fill="#C6302B"></path><path d="M21.0348 12.4006C19.9141 12.9848 14.1086 15.3718 12.8726 16.0164C11.6367 16.6606 10.9501 16.6543 9.97366 16.1876C8.99724 15.7211 2.81922 13.2253 1.7063 12.6933C1.15013 12.4275 0.857605 12.2034 0.857605 11.9913V9.86846C0.857605 9.86846 8.90077 8.11759 10.1992 7.65173C11.4976 7.18588 11.9481 7.16898 13.0531 7.5738C14.1583 7.97863 20.7656 9.17046 21.8576 9.57052L21.8571 11.6634C21.8573 11.8731 21.6053 12.1033 21.0348 12.4006Z" fill="#912626"></path><path d="M21.0344 10.2905C19.9138 10.8746 14.1085 13.2615 12.8725 13.906C11.6366 14.5503 10.95 14.544 9.97367 14.0772C8.99725 13.6108 2.81939 11.1149 1.70656 10.5832C0.593723 10.0514 0.570426 9.6852 1.66357 9.257C2.75672 8.82904 8.90078 6.41839 10.1993 5.95262C11.4977 5.48684 11.9482 5.46994 13.0531 5.87477C14.1582 6.27951 19.9289 8.5763 21.0208 8.97637C22.1131 9.37668 22.1551 9.70645 21.0344 10.2905Z" fill="#C6302B"></path><path d="M21.0348 8.83872C19.9141 9.42278 14.1086 11.8099 12.8726 12.4545C11.6367 13.0988 10.9501 13.0925 9.97366 12.6257C8.99724 12.1592 2.81922 9.6633 1.7063 9.13157C1.15013 8.86555 0.857605 8.64135 0.857605 8.42955V6.30658C0.857605 6.30658 8.90077 4.55579 10.1992 4.09001C11.4976 3.62408 11.9481 3.60734 13.0531 4.01208C14.1583 4.41691 20.7656 5.60874 21.8576 6.00881L21.8571 8.10159C21.8573 8.31118 21.6053 8.54136 21.0348 8.83872Z" fill="#912626"></path><path d="M21.0344 6.72863C19.9138 7.31269 14.1084 9.6998 12.8725 10.3441C11.6366 10.9883 10.95 10.982 9.97366 10.5155C8.99732 10.0488 2.81938 7.55304 1.70663 7.02123C0.593712 6.48951 0.570497 6.12324 1.66356 5.69512C2.75671 5.26708 8.90077 2.85675 10.1993 2.39082C11.4977 1.92496 11.9482 1.90823 13.0531 2.31305C14.1582 2.71788 19.9289 5.01467 21.0208 5.41473C22.1131 5.81472 22.1551 6.14457 21.0344 6.72863Z" fill="#C6302B"></path><path d="M13.9238 4.66366L12.1183 4.8511L11.7141 5.82366L11.0613 4.73839L8.97649 4.55103L10.5321 3.99002L10.0654 3.12885L11.5218 3.69848L12.8949 3.24895L12.5238 4.1394L13.9238 4.66366ZM11.6063 9.38193L8.23673 7.98436L13.0651 7.24321L11.6063 9.38193ZM6.93465 5.20424C8.35994 5.20424 9.51535 5.65213 9.51535 6.20453C9.51535 6.75709 8.35994 7.2049 6.93465 7.2049C5.50935 7.2049 4.35394 6.75701 4.35394 6.20453C4.35394 5.65213 5.50935 5.20424 6.93465 5.20424Z" fill="white"></path><path d="M16.0576 4.92953L18.9152 6.05877L16.06 7.18694L16.0576 4.92953Z" fill="#621B1C"></path><path d="M12.8961 6.18009L16.0576 4.92952L16.06 7.18694L15.75 7.30818L12.8961 6.18009Z" fill="#9A2928"></path></g><defs><clipPath id="clip0_3811_5609"><rect width="21" height="21" fill="white" transform="translate(0.857605 0.5)"></rect></clipPath></defs></svg>