<?xml version="1.0" encoding="utf-8" ?>
<svg xmlns="http://www.w3.org/2000/svg" xmlns:xlink="http://www.w3.org/1999/xlink" width="1024" height="1024">
	<path fill="#A221AA" transform="scale(2 2)" d="M165.92 164.224C169.574 163.965 173.374 164.217 177.047 164.218L231.175 164.214C233.471 164.215 258.867 162.052 249.428 169.922C246.373 170.344 243.098 169.944 240.005 169.932L184.363 169.926C182.283 169.928 155.516 172.261 165.92 164.224Z"/>
	<path fill="#A221AA" transform="scale(2 2)" d="M165.92 187.226L238.946 187.208C241.119 187.208 249.479 186.25 250.774 188.309C251.8 189.942 251.084 192.159 249.428 192.987L192.154 192.985C184.567 192.976 174.737 193.624 167.432 193.186C163.478 192.949 162.894 189.155 165.92 187.226Z"/>
	<path fill="#A221AA" transform="scale(2 2)" d="M228.398 210.148C233.239 210.153 251.562 207.536 251.31 213.355C251.128 217.537 237.156 216.057 234.53 216.046L140.438 216.041C139.601 216.041 111.509 218.511 118.753 211.248C120.85 209.146 130.406 210.153 133.254 210.153L228.398 210.148Z"/>
	<path fill="#A221AA" transform="scale(2 2)" d="M120.947 157.766L135.5 157.736C140.876 157.735 148.862 156.67 149.832 163.998C150.378 168.126 150.537 183.424 149.943 187.799C149.401 191.788 147.367 193.507 143.329 193.921C138.639 193.908 120.748 194.73 117.697 192.997C110.785 189.072 112.925 164.644 115.036 161.316C116.408 159.152 118.548 158.267 120.947 157.766ZM119.867 163.54C119.841 171.655 119.764 179.786 119.867 187.9C122.836 188.316 125.996 187.946 128.998 187.918L144.065 187.9C144.536 185.613 144.093 182.64 144.079 180.26L144.065 163.54L127.907 163.519C125.261 163.519 122.501 163.344 119.867 163.54Z"/>
	<path fill="#A221AA" transform="scale(2 2)" d="M122.6 235.306C124.905 235.129 127.304 235.293 129.62 235.295L225.545 235.293C235.569 235.286 253.246 231.522 253.77 246.453C254.029 253.86 254.656 279.829 253.515 285.79C251.619 295.699 242.648 294.525 234.767 294.495L234.767 302.36C233.266 319.035 225.925 311.309 218.535 303.968C215.352 300.807 212.053 297.771 208.985 294.495L134.084 294.514C127.169 294.523 116.139 295.911 113.835 287.145C113.168 284.604 113.222 249.069 113.572 244.881C114.014 239.582 117.294 236.338 122.6 235.306ZM188.395 241.278C183.844 241.566 185.977 253.462 185.976 258.264L185.985 288.758C191.231 288.678 210.178 287.411 213.377 290.508C218.481 295.449 223.224 300.842 228.398 305.69C228.261 300.645 228.587 294.401 229.396 289.423C234.425 287.605 247.06 292.208 247.54 283.96C247.948 276.941 249.691 245.174 245.345 241.278C239.205 240.939 232.881 241.275 226.718 241.277L188.395 241.278ZM123.792 241.278C116.057 242.432 119.243 261.156 119.251 267.816C119.258 273.011 116.474 288.139 123.62 288.721C129.221 289.177 135.172 288.777 140.802 288.772L175.625 288.758L180.236 288.758L180.236 241.278L142.89 241.269C136.551 241.267 130.123 241.047 123.792 241.278Z"/>
	<path fill="#A221AA" transform="scale(2 2)" d="M98.2179 93.0386C110.914 92.7171 123.706 93.0341 136.415 93.0343L252.991 93.037C262.771 93.0362 274.917 90.6559 282.667 98.0614C291.237 106.25 288.195 133.582 288.196 145.23C288.196 149.339 289.564 169.248 283.587 162.222C281.648 159.943 282.294 144.816 282.471 141.296L282.488 140.987C275.296 140.808 268.054 140.984 260.856 140.984L87.6504 140.987C87.3057 147.774 87.6451 154.724 87.647 161.532L87.6504 327.371L210.966 327.368C231.493 327.368 252.092 327.737 272.61 327.371L272.598 208.996C272.604 176.366 281.484 171.17 312.875 171.258L397.872 171.239C402.096 171.235 406.577 170.938 410.737 171.736C422.964 174.082 430.328 185.247 430.512 197.232C430.741 212.112 430.505 227.033 430.505 241.917L430.512 375.031C430.529 398.794 432.147 418.071 401.826 418.228L305.504 418.237C288.225 418.231 272.678 414.505 272.61 392.392L115.151 392.405C102.625 392.408 84.1366 395.536 82.0013 377.77C81.4612 373.276 81.7396 368.543 81.7482 364.02L81.7389 127.706C81.7393 113.789 78.9616 95.0876 98.2179 93.0386ZM297.319 177.246C275.745 180.834 278.53 199.164 278.528 215.179L278.534 367.733L405.997 367.733L424.725 367.733L424.733 211.466C424.735 198.492 426.988 180.451 409.035 177.501C405.354 176.896 401.18 177.238 397.443 177.237L298.989 177.23C298.441 177.233 297.863 177.204 297.319 177.246ZM103.508 333.272C98.2457 333.28 92.9036 333.467 87.6504 333.272L87.6426 362.856C87.6458 386.112 87.0567 386.383 112.451 386.381L256.625 386.37C261.951 386.354 267.285 386.274 272.61 386.37L272.61 333.272L103.508 333.272ZM98.2179 98.7553C87.1302 101.223 87.5566 110.237 87.6433 119.636L87.6504 135.255L272.61 135.255L282.488 135.255L282.512 120.527C282.528 96.2342 276.259 98.7249 253.419 98.747L100.374 98.7273C99.6551 98.7292 98.9365 98.7411 98.2179 98.7553ZM363.388 373.715L278.534 373.715C278.512 387.022 274.989 407.781 292.617 411.898C298.034 413.163 304.914 412.508 310.541 412.506L340.125 412.49L384.388 412.499C406.385 412.497 424.784 416.297 424.747 388.023L424.725 373.715L363.388 373.715Z"/>
	<path fill="#A221AA" transform="scale(2 2)" d="M351.032 381.786C365.389 380.834 369.633 400.396 354.379 404.643C340.137 406.913 334.373 385.158 351.032 381.786ZM351.032 387.8C344.303 390.577 346.339 399.523 353.362 399.007C355.913 397.685 357.174 396.192 357.806 393.43C357.024 389.714 354.991 387.549 351.032 387.8Z"/>
	<path fill="#A221AA" transform="scale(2 2)" d="M167.978 113.065L193.857 113.082C196.37 113.086 208.637 111.725 209.342 115.148C209.981 118.247 206.833 118.749 204.595 118.85L178.227 118.843C174.637 118.845 170.92 119.094 167.345 118.942C162.57 118.74 161.439 113.326 167.978 113.065Z"/>
	<path fill="#A221AA" transform="scale(2 2)" d="M185.985 342.613C204.479 341.155 211.279 372.74 186.992 376.057C165.137 377.096 162.005 344.576 185.985 342.613ZM185.985 348.593C170.937 350.116 172.062 370.448 186.992 370.097C200.739 367.115 199.152 348.333 185.985 348.593Z"/>
	<path fill="#A221AA" transform="scale(2 2)" d="M354.379 187.9C357.204 187.936 368.294 187.235 370.135 188.299C372.266 189.531 372.405 193.143 369.69 193.759C367.409 194.276 364.458 193.943 362.094 193.943L346.875 193.921C343.656 193.946 334.23 194.614 331.821 193.195C329.432 191.788 330.416 188.58 332.904 188.126C335.332 187.683 338.172 187.894 340.643 187.892L354.379 187.9Z"/>
	<path fill="#A221AA" transform="scale(2 2)" d="M365.095 270.22C367.994 270.446 409.887 312.629 411.949 316.925C409.951 322.222 402.615 320.403 397.543 320.359L324.946 320.337L304.868 320.348C301.982 320.349 287.492 322.424 290.106 315.744C290.963 313.555 324.012 281.577 327.626 280.07C332.052 282.221 337.605 289.131 341.15 292.861C345.697 287.614 359.29 273.367 365.095 270.22ZM365.095 277.921C359.582 282.395 350.013 291.518 345.409 297.024C351.418 302.74 356.92 309.055 363.388 314.255L382.625 314.255L402.139 314.255C397.93 310.038 366.477 278.181 365.095 277.921ZM327.626 287.431C321.869 291.997 305.177 308.251 300.183 314.255L327.626 314.255C336.507 314.245 345.511 313.915 354.379 314.255C350.779 310.979 329.425 288.44 327.626 287.431Z"/>
</svg>
