<?xml version="1.0" encoding="utf-8" ?>
<svg xmlns="http://www.w3.org/2000/svg" xmlns:xlink="http://www.w3.org/1999/xlink" width="1024" height="1024">
	<path fill="#FEFEFE" d="M0 0L1024 0L1024 1024L0 1024L0 0Z"/>
	<path fill="#0B0B0C" d="M353.087 73.7139C363.847 73.1355 373.762 74.558 384.037 77.7905C407.837 85.2775 426.718 96.5115 446.214 111.903C461.937 124.315 475.824 137.816 485.158 155.79C501.915 188.061 507.335 225.066 496.047 260.054C487.147 287.64 469.192 317.921 445.596 335.148C436.292 341.942 425.618 346.956 415.373 352.164C417.452 356.937 420.503 361.576 423.153 366.061C429.673 377.101 436.292 388.093 444.23 398.186C458.131 390.007 472.153 383.686 488.111 380.79C517.911 375.381 550.798 380.685 575.982 398.078C580.949 391.125 585.971 384.094 590.454 376.816C594.966 369.491 598.998 361.863 603.961 354.826C597.833 351.187 591.732 347.584 586.01 343.318C564.151 327.018 544.293 303.373 534.565 277.701C521.258 242.585 521.739 199.91 537.261 165.473Q539.243 161.101 541.566 156.901Q543.889 152.7 546.537 148.697Q549.186 144.693 552.143 140.912Q555.1 137.132 558.348 133.597C566.374 124.866 576.054 118.202 585.501 111.148C592.35 106.034 599.145 100.64 606.479 96.2344Q611.544 93.177 616.869 90.5999Q622.194 88.0227 627.734 85.9478Q629.184 85.4196 630.647 84.9271Q632.11 84.4346 633.585 83.978Q635.059 83.5215 636.545 83.1013Q638.03 82.681 639.525 82.2973Q641.02 81.9136 642.524 81.5667Q644.028 81.2197 645.54 80.9097Q647.053 80.5997 648.572 80.3269Q650.091 80.054 651.617 79.8185Q653.142 79.5829 654.673 79.3849Q656.204 79.1868 657.739 79.0263Q659.274 78.8658 660.813 78.743Q662.352 78.6201 663.893 78.5351Q665.434 78.45 666.977 78.4027Q668.52 78.3554 670.063 78.3459Q671.607 78.3365 673.15 78.3648Q674.694 78.3932 676.236 78.4594Q677.778 78.5256 679.318 78.6295Q680.858 78.7335 682.395 78.8751Q683.932 79.0168 685.465 79.1961Q686.999 79.3754 688.527 79.5922Q690.055 79.809 691.578 80.0632Q693.1 80.3174 694.616 80.6088Q696.132 80.9003 697.64 81.2287Q699.148 81.5572 700.648 81.9226Q702.148 82.2879 703.638 82.6899Q705.129 83.0919 706.609 83.5303Q708.089 83.9688 709.557 84.4433Q711.026 84.9178 712.483 85.4282Q713.94 85.9386 715.384 86.4846Q716.828 87.0305 718.258 87.6116Q719.688 88.1928 721.103 88.8088Q722.518 89.4249 723.918 90.0754C734.978 95.1476 744.95 101.622 754.964 108.478C777.326 123.788 791.86 135.862 806.588 159.2C811.394 166.816 815.794 174.612 818.89 183.098C822.733 193.629 824.533 204.668 825.801 215.762C828.993 243.684 827.805 259.062 815.843 284.873C808.699 300.288 792.859 328.914 779.794 339.028C774.537 343.098 760.667 349.562 754.12 353.084C742.975 359.079 731.716 365.247 719.784 369.556C693.926 378.893 661.468 376.743 635.369 368.662C626.576 365.939 618.311 362.223 610.011 358.294C606.149 364.292 602.851 370.711 599.134 376.812C593.793 385.579 588.047 394.115 582.339 402.647C590.524 408.369 598.76 415.073 605.992 421.959C630.404 445.197 644.771 475.655 645.678 509.515C651.263 510.031 656.788 510.59 662.326 511.501C664.074 489.634 675.86 448.883 690.929 432.38C713.944 407.174 740.142 390.186 772.152 378.667C785.475 373.873 798.329 370.163 812.594 369.499C821.339 369.092 830.17 369.467 838.765 371.205C869.396 377.402 900.605 396.602 923.41 417.422C953.906 445.263 967.443 473.991 969.291 515.209C970.975 552.772 953.357 594.029 927.993 621.514C912.718 638.065 893.375 647.829 872.936 656.382C865.451 659.514 858.035 662.632 850.117 664.528C843.318 666.156 836.378 666.889 829.398 667.129C785.822 668.628 738.947 651.57 707.078 621.807C689.053 604.972 671.192 576.085 665.244 551.964C662.441 540.597 661.866 529.021 661.48 517.375L645.961 515.78C645.884 525.238 644.594 534.976 642.445 544.174C633.618 581.954 614.443 605.001 582.079 625.204C588.196 637.031 596.768 648.02 604.217 659.054C609.732 667.222 614.584 675.826 620.244 683.895C645.721 674.422 676.173 670.341 702.665 677.191C725.59 683.118 748.344 695.482 766.314 710.916C772 715.8 777.191 721.302 782.454 726.634C790.956 735.245 798.689 743.296 804.848 753.834C812.105 767.407 817.321 783.969 819.324 799.211C821.511 815.844 822.43 837.327 818.789 853.782C814.672 872.39 796.549 903.663 784.877 918.741Q781.036 923.769 776.574 928.254Q772.111 932.739 767.103 936.605C748.429 950.833 713.174 965.818 689.872 968.652C653.315 973.098 605.243 959.379 576.263 936.558C557.411 921.713 537.032 893.842 529.364 870.773C526.483 862.106 525.289 853.083 524.228 844.051C513.73 843.634 503.261 842.734 492.769 842.371C490.956 852.869 486.604 863.425 482.291 873.142C471.129 898.295 458.658 923.188 434.822 938.651C428.785 942.567 422.219 945.534 415.746 948.642C407.761 952.474 399.805 956.439 391.53 959.614C382.157 963.211 372.355 966.55 362.404 968.009C336.938 971.744 306.943 965.053 283.569 954.61C247.572 938.526 216.51 905.015 202.421 868.164C189.301 833.849 191.525 794.509 206.577 761.121C211.022 751.262 216.612 741.56 223.446 733.174C231.824 722.893 242.267 715.048 252.466 706.727C258.764 701.589 264.796 696.119 271.756 691.868C279.217 687.312 287.585 683.588 295.778 680.546C303.03 677.854 310.644 675.904 318.19 674.217C350.186 667.065 374.397 672.344 403.729 685.69C413.241 665.469 426.435 646.518 439.905 628.741C435.542 625.427 430.655 622.986 426.409 619.42C405.507 601.868 387.448 577.762 379.705 551.395C376.334 539.917 374.889 528.528 373.908 516.665C369.216 516.649 364.563 516.656 359.889 516.178C359.837 523.231 359.742 530.487 358.086 537.374C353.681 555.687 333.771 596.438 322.308 610.644C318.862 614.914 315.09 618.702 310.668 621.96C302.451 628.014 292.839 632.504 283.946 637.503C272.907 643.709 262.257 650.743 250.411 655.387Q245.631 657.262 240.639 658.461Q235.647 659.66 230.537 660.16C204.902 662.821 169.191 657.472 145.599 647.182Q141.131 645.189 136.813 642.889Q132.495 640.589 128.348 637.994Q124.201 635.398 120.245 632.52Q116.289 629.642 112.543 626.495C95.4124 612.392 76.1126 588.448 66.9548 568.263Q64.8691 563.562 63.1636 558.711Q61.458 553.859 60.1435 548.887Q58.829 543.915 57.9138 538.855Q56.9986 533.794 56.4885 528.677C53.2319 494.778 63.4521 450.357 85.5324 423.91C111.554 392.743 155.921 366.053 196.584 362.449C207.056 361.521 217.793 361.724 228.136 363.712C256.753 369.216 287.915 387.81 310.1 406.359C348.107 438.138 355.573 461.226 359.913 509.202C364.431 509.218 368.966 509.456 373.483 509.597C374.209 502.793 374.913 495.99 376.183 489.261C380.769 464.956 392.062 440.595 410.027 423.253C418.397 415.173 428.235 408.353 437.834 401.841C428.639 391.465 416.04 368.346 409.151 355.702C391.834 363.014 374.838 367.312 356.059 368.631C322.394 370.997 280.295 358.277 254.655 335.861C246.156 328.431 238.794 319.94 231.841 311.079C213.92 288.239 202.124 265.719 200.359 236.127C199.71 225.255 201.246 214.781 202.739 204.056C206.625 176.144 211.152 154.958 230.713 133.225C250.395 111.356 286.391 86.8861 314.847 78.9046C327.363 75.3941 340.174 74.4265 353.087 73.7139Z"/>
	<path fill="#FEFEFE" d="M574.718 629.579C579.231 633.935 582.804 640.437 586.346 645.67C595.261 658.842 605.473 672.452 612.13 686.921C590.186 697.388 570.825 710.748 554.989 729.382C529.207 759.719 520.337 797.596 523.498 836.619C513.821 836.662 504.147 835.722 494.499 835.052C498.235 817.23 493.611 798.569 489.857 781.099C489.136 778.301 488.422 775.487 487.545 772.734C483.786 760.936 477.225 751.39 470.179 741.374C465.788 735.132 461.636 728.587 456.859 722.634C444.349 707.043 428.505 697.505 411.056 688.42C418.181 670.861 434.737 647.794 446.113 632.351Q453.209 636.203 460.695 639.228Q468.181 642.253 475.961 644.411C499.78 650.868 527.283 651.343 550.479 642.167C558.963 638.811 566.818 634.096 574.718 629.579Z"/>
	<path fill="#FEFEFE" d="M503.849 390.713C533.796 387.925 561.955 398.931 585.65 416.519C609.028 433.871 629.75 466.09 633.86 494.946C635.048 503.282 635.463 511.91 634.757 520.309C632.957 541.701 623.92 568.624 611 585.766C588.867 615.131 554.932 629.91 519.381 635.059Q518.845 635.137 518.306 635.194C487.452 638.519 458.642 630.163 434.501 610.54C416.085 595.571 399.959 573.95 392.793 551.214C390.125 542.749 388.731 533.743 387.879 524.915C384.783 492.836 392.307 462.999 413.111 438.031Q414.166 436.775 415.252 435.545Q416.337 434.314 417.453 433.111Q418.568 431.908 419.713 430.733Q420.857 429.557 422.03 428.41Q423.203 427.263 424.404 426.145Q425.604 425.026 426.832 423.938Q428.06 422.85 429.313 421.792Q430.567 420.734 431.847 419.706Q433.126 418.679 434.43 417.684Q435.734 416.689 437.062 415.725Q438.391 414.762 439.742 413.832Q441.093 412.901 442.467 412.004Q443.84 411.107 445.236 410.243Q446.631 409.38 448.047 408.551Q449.463 407.723 450.898 406.929Q452.334 406.135 453.789 405.376Q455.243 404.617 456.716 403.895Q458.189 403.172 459.679 402.485Q461.169 401.799 462.676 401.149Q464.182 400.499 465.704 399.886Q467.226 399.273 468.762 398.698Q470.299 398.122 471.849 397.585Q473.399 397.047 474.962 396.548Q476.525 396.048 478.099 395.587Q479.674 395.126 481.259 394.703Q482.844 394.281 484.439 393.897Q486.034 393.513 487.639 393.169Q489.243 392.824 490.855 392.519Q492.467 392.214 494.086 391.949Q495.705 391.683 497.33 391.457Q498.955 391.231 500.585 391.045Q502.215 390.859 503.849 390.713Z"/>
	<path fill="#0B0B0C" d="M498.023 399.707C498.256 399.676 498.488 399.638 498.721 399.615C505.385 398.978 512.375 399.489 519.004 400.24C545.813 403.28 567.416 414.256 588.011 431.159C610.13 449.314 625.261 470.948 627.974 499.98C630.464 526.627 622.171 550.531 608.774 573.088C604.581 580.147 600.195 587.032 594.936 593.361C582.163 608.732 570.944 618.023 551.684 624.412C543.588 627.099 535.543 628.9 527.047 629.67Q526.076 629.784 525.103 629.874C495.991 632.591 459.19 626.721 436.34 607.574Q434.041 605.686 432.008 603.513Q429.976 601.34 428.246 598.92C420.05 587.69 406.087 560.149 401.965 547.017C399.569 539.384 398.347 530.949 397.711 522.991C395.167 491.19 405.123 458.131 425.971 433.785C444.48 412.169 470.194 401.929 498.023 399.707Z"/>
	<path fill="#FEFEFE" d="M445.877 554.649C446.614 554.983 446.645 554.914 447.135 555.347C453.75 561.194 456.062 580.636 456.61 589.372L450.955 589.962C447.445 590.03 443.717 590.374 440.339 589.327C439.612 588.723 439.334 588.364 439.004 587.446C438.187 585.172 438.664 582.1 438.872 579.755C439.701 570.391 441.631 563.051 445.877 554.649Z"/>
	<path fill="#FEFEFE" d="M573.173 544.711C573.816 545.191 573.887 545.17 574.307 545.664C582.991 555.863 582.078 576.139 581.252 588.634L575.616 587.413L565.746 585.813C567.542 574.112 567.326 554.851 573.173 544.711Z"/>
	<path fill="#FEFEFE" d="M497.78 517.036C499.617 517.709 501.469 518.406 503.375 518.858C509.415 520.29 514.447 520.045 519.781 516.735C522.018 522.371 524.019 524.643 529.107 527.889C525.084 531.953 520.77 535.639 516.848 539.831C514.086 542.799 511.639 546.098 509.173 549.311C503.457 541.965 498.112 534.15 493.109 526.3C495.371 523.336 496.926 520.731 497.78 517.036Z"/>
	<path fill="#FEFEFE" d="M502.264 423.651C502.933 423.602 503.606 423.609 504.276 423.61C513.823 423.614 522.726 427.808 529.335 434.606C537.989 443.506 540.115 454.994 539.936 467.002C539.117 464.494 538.328 461.942 537.335 459.498C533.981 451.246 528.298 446.254 520.152 442.899Q519.21 442.601 518.263 442.322C509.178 439.65 497.189 439.008 488.721 443.885C482.171 447.658 479.261 453 477.47 460.045C476.38 450.888 477.74 441.23 483.458 433.709C488.216 427.449 494.745 424.715 502.264 423.651Z"/>
	<path fill="#FEFEFE" d="M502.376 446.239C507.266 445.962 512.6 446.432 517.334 447.739C532.881 452.033 531.897 465.346 538.581 476.978C537.589 478.42 536.444 479.774 535.357 481.145C533.778 481.419 532.157 481.566 530.566 481.763C531.53 485.931 532.706 491.845 531.314 495.995C530.071 499.696 526.78 499.252 524.507 501.609C520.126 506.153 520.831 509.705 514.087 512.818C512.92 513.025 511.744 513.222 510.559 513.287C504.995 513.596 499.702 511.171 495.588 507.558Q494.926 506.979 494.294 506.369Q493.662 505.759 493.06 505.118Q492.458 504.478 491.888 503.809Q491.318 503.14 490.782 502.443Q490.245 501.747 489.744 501.026Q489.242 500.304 488.776 499.559Q488.31 498.814 487.882 498.046Q487.453 497.279 487.062 496.492Q486.672 495.705 486.32 494.899Q485.968 494.094 485.656 493.272Q485.344 492.451 485.073 491.615Q484.801 490.779 484.571 489.931Q484.341 489.082 484.153 488.224Q483.964 487.365 483.818 486.499Q483.672 485.632 483.568 484.76Q483.465 483.887 483.404 483.01C481.55 481.866 479.306 480.614 478.067 478.768C477.33 477.67 476.967 476.459 477.325 475.142C478.005 472.642 480.542 471.299 482.536 469.928C482.812 464.029 482.751 457.865 486.662 453.014C490.599 448.129 496.432 446.731 502.376 446.239Z"/>
	<path fill="#FEFEFE" d="M542.112 526.484C550.984 527.976 561.647 533.04 568.396 538.998C560.49 551.118 561.461 571.624 559.415 585.864C542.94 585.409 526.568 585.869 510.1 586.263C494.21 586.643 478.482 586.908 462.614 588.144L461.363 576.835C460.037 567.529 456.732 557.42 450.915 549.951C460.602 538.361 473.24 534.132 487.016 529.096C493.892 536.822 501.402 552.014 507.963 558.031C509.401 558.304 510.047 558.096 511.15 557.097C514.18 554.352 516.301 550.006 518.785 546.724C524.781 538.801 533.818 531.793 542.112 526.484Z"/>
	<path fill="#FEFEFE" d="M345.062 85.7347C374.909 85.8744 412.474 94.3924 435.706 113.788C443.097 119.959 449.227 127.424 455.433 134.739C474.156 156.804 489.034 177.881 491.676 207.83C495.203 247.815 479.744 280.571 454.588 310.564C430.807 338.917 394.998 354.607 358.621 357.835L356.294 357.986C323.431 359.982 281.456 345.994 256.914 324.094C235.26 304.77 214.082 267.071 212.503 237.753C212.034 229.033 212.574 220.179 213.358 211.49C216.077 181.359 224.501 161.61 244.856 139.082C252.406 130.725 260.245 122.608 269.158 115.683C289.777 99.6609 318.903 87.0388 345.062 85.7347Z"/>
	<path fill="#0B0B0C" d="M316.492 271.682Q337.712 271.503 358.921 272.182C367.078 272.371 375.635 272.117 383.713 273.326C386.013 273.67 388.522 274.161 390.389 275.642C393.47 278.086 396.083 283.851 396.451 287.797C396.59 289.29 396.21 290.006 395.266 291.113C392.232 292.354 388.132 291.621 384.875 291.511C373.879 291.339 362.882 290.624 351.878 290.448C338.177 290.229 324.422 290.523 310.735 290.075C309.347 290.03 307.737 290.057 306.45 289.523C305.751 289.234 305.62 288.671 305.48 287.953C304.77 284.322 306.555 279.121 308.727 276.242C310.869 273.402 313.026 272.23 316.492 271.682Z"/>
	<path fill="#FEFEFE" d="M379.207 278.111C381.597 278.291 384.595 278.208 386.699 279.464C389.121 280.911 389.683 283.99 390.426 286.5L381.833 286.503L379.207 278.111Z"/>
	<path fill="#FEFEFE" d="M316.308 276.622C318.599 276.499 320.918 276.523 323.214 276.478C322.612 277.919 322.14 279.426 321.601 280.893C320.971 282.607 320.753 284.167 319.038 284.955C316.308 284.992 313.671 284.815 310.956 284.566L311.183 283.958C312.461 280.452 313.115 278.741 316.308 276.622Z"/>
	<path fill="#0B0B0C" d="M274.188 134.598C282.478 133.857 291.181 134.557 299.498 134.769Q323.024 135.208 346.531 136.239L393.326 137.713C402.875 137.978 412.579 137.993 422.098 138.738C424.941 138.961 428.283 139.367 430.86 140.604C434.636 142.416 438.033 147.021 439.186 150.977C441.179 157.814 439.346 238.799 438.301 249.101C438.038 251.694 437.64 253.827 436.288 256.094C433.566 260.657 429.598 262.734 424.614 263.946C414.68 264.677 404.351 264.026 394.376 264.036C362.166 264.068 330.105 263.906 297.928 262.456C289.328 262.068 276.583 262.82 268.593 259.691C264.463 258.074 261.256 254.571 259.573 250.507C258.515 247.954 258.309 245.255 258.187 242.528C257.588 229.154 258.569 215.468 258.808 202.067C259.092 186.211 258.693 169.978 259.989 154.178C260.23 151.238 260.493 148.278 261.736 145.569C264.397 139.771 268.339 136.715 274.188 134.598Z"/>
	<path fill="#FEFEFE" d="M362.292 248.309C362.767 248.338 363.243 248.353 363.715 248.415C365.331 248.626 365.878 249.208 366.766 250.436C366.94 252.127 366.564 252.956 365.843 254.417C365.078 254.352 364.231 254.317 363.493 254.106C362.204 253.736 361.734 253.124 361.043 252.045C360.992 250.352 361.403 249.657 362.292 248.309Z"/>
	<path fill="#FEFEFE" d="M274.433 147.453Q348.979 148.514 423.422 152.571C423.358 160.756 422.747 168.984 422.563 177.176C422.137 196.05 421.926 215.042 420.714 233.878C418.897 234.859 286.043 231.192 272.506 231.022C272.496 217.16 273.075 203.303 273.33 189.445C273.586 175.472 273.548 161.4 274.433 147.453Z"/>
	<path fill="#0B0B0C" d="M337.277 159.525C340.922 159.239 354.866 158.153 357.054 160.493C359.719 163.341 358.562 172.361 358.529 176.291C363.936 176.799 371.366 175.443 376.286 177.763C376.617 178.82 376.83 179.777 376.947 180.881C377.364 184.823 377.934 194.669 374.895 197.595C372.993 199.428 360.871 197.977 357.645 197.946C357.485 203.357 357.742 209.265 356.609 214.565C352.982 215.552 349.661 215.461 345.949 215.329C342.716 215.214 336.627 215.585 334.526 212.7C332.85 210.399 334.785 205.588 335.096 202.854C335.291 201.14 334.839 199.434 333.578 198.209C330.274 194.998 325.428 198.289 321.606 197.959C320.19 197.837 319.412 197.473 318.506 196.366C315.351 192.512 317.149 181.243 317.645 176.543C323.411 175.742 329.627 176.052 335.457 175.982C335.421 170.665 334.49 164.244 337.277 159.525Z"/>
	<path fill="#FEFEFE" d="M659.864 685.711C666.703 685.124 673.81 685.831 680.63 686.527C706.745 689.193 734.908 695.936 755.493 713.042C772.098 726.84 794.703 755.501 803.55 775.15Q805.255 778.92 806.633 782.821Q808.01 786.723 809.051 790.727Q810.091 794.732 810.787 798.81Q811.483 802.889 811.829 807.012C812.82 818.869 812.52 831.935 810.038 843.57C804.941 867.463 787.394 899.43 771.683 917.926C750.975 942.304 717.92 953.546 686.878 956.142C686.711 956.163 686.544 956.187 686.376 956.204C671.677 957.69 655.37 956.498 640.954 953.333C621.029 948.957 594.941 937.868 579.232 924.803C555.767 905.287 536.387 873.899 533.662 843.171C531.797 822.142 533.781 796.816 541.602 777.107C547.034 763.416 555.894 750.138 565.346 738.866C587.485 712.464 625.055 688.663 659.864 685.711Z"/>
	<path fill="#0B0B0C" d="M599.913 770.347L602.459 770.684C603.068 771.172 603.531 771.367 603.807 772.127C605.108 775.708 609.872 806.901 608.824 809.32C607.384 809.262 606.231 809.142 604.844 808.675C604.436 807.976 604.167 807.332 603.966 806.546C602.836 802.127 597.928 774.918 598.858 772.094C599.071 771.448 599.561 770.929 599.913 770.347Z"/>
	<path fill="#0B0B0C" d="M733.42 729.295C735.717 729.059 738.59 728.501 740.715 729.659C742.121 730.426 742.715 731.939 742.908 733.447C743.341 736.834 743.87 744.846 741.61 747.538C740.87 748.419 739.687 748.706 738.593 748.906C732.116 750.087 724.844 749.904 718.248 750.253Q699.375 751.214 680.52 752.471C678.215 752.569 675.181 753.021 673.197 751.604C672.203 750.894 671.683 749.831 671.438 748.669C670.89 746.065 670.5 736.311 672.266 734.372C673.321 733.214 675.095 732.964 676.564 732.758C683.551 731.78 691.013 731.916 698.072 731.556Q715.754 730.552 733.42 729.295Z"/>
	<path fill="#FEFEFE" d="M728.665 738.284C729.633 738.185 730.609 738.075 731.581 738.031C733.38 737.95 734.242 738.226 735.611 739.458L735.515 740.193C731.304 742.48 692.509 743.78 684.659 744.398C682.936 744.553 680.99 744.932 679.336 744.362C678.68 743.355 678.798 743.242 678.922 742.025C681.049 740.387 722.446 738.582 728.665 738.284Z"/>
	<path fill="#0B0B0C" d="M742.658 778.25C745.26 778.074 747.907 777.824 750.514 777.81C752.208 777.8 753.835 778.065 754.917 779.507C756.429 781.522 755.826 793.604 755.105 796.278C753.817 797.554 752.31 797.615 750.532 797.877C743.048 798.976 735.075 798.87 727.513 799.2L683.8 801.061C680.738 801.322 675.178 802.549 672.586 800.445C671.473 799.541 670.96 798.179 670.781 796.799C670.369 793.616 669.405 785.871 671.943 783.319C673.196 782.06 675.905 781.816 677.565 781.613C685.275 780.668 693.372 780.747 701.141 780.382L742.658 778.25Z"/>
	<path fill="#FEFEFE" d="M738.124 786.71C742.181 786.437 745.362 785.956 749.032 788.024L748.594 789.52C744.348 790.969 696.777 792.369 688.845 792.626C686.091 792.909 682.314 793.743 679.676 792.741C678.639 792.346 678.657 792.401 678.205 791.331C679.201 790.2 679.958 789.84 681.437 789.492C686.686 788.259 693.268 788.636 698.672 788.403C711.825 787.834 724.984 787.544 738.124 786.71Z"/>
	<path fill="#0B0B0C" d="M737.288 753.223C740.908 753.038 750.412 751.832 753.203 753.957C754.394 754.865 755.179 756.54 755.414 757.986C755.87 760.795 756.176 770.708 753.991 772.751C751.028 775.523 695.295 777.246 686.83 777.553C683.13 777.883 674.301 779.554 671.36 777.629C669.742 776.569 669.382 772.749 669.254 771.003C668.987 767.345 668.765 759.71 671.852 757.243C674.279 755.304 729.573 753.532 737.288 753.223Z"/>
	<path fill="#FEFEFE" d="M734.518 761.786C738.72 761.525 743.276 760.877 747.444 761.526C747.758 761.929 747.855 761.993 748.023 762.555C748.366 763.708 748.075 765.196 747.561 766.231C741.139 767.332 733.941 767.032 727.408 767.313Q708.888 768.148 690.377 769.17C687.127 769.387 679.872 770.798 677.358 768.817C677.281 767.432 677.093 766.225 677.753 764.948C683.951 763.642 690.836 763.791 697.177 763.484L734.518 761.786Z"/>
	<path fill="#0B0B0C" d="M649.844 756.714C652.309 756.527 655.27 756.013 657.707 756.386C659.354 756.637 660.942 757.435 661.915 758.812C662.706 759.933 663.092 761.424 663.253 762.77C663.769 767.098 665.362 799.428 664.727 801.926C664.416 803.149 663.664 804.215 662.501 804.791C661.344 805.363 660.904 805.038 659.874 804.528C658.951 803.359 658.492 802.365 658.153 800.904C656.972 795.811 657.117 790.096 656.807 784.87C656.387 777.789 655.783 770.727 655.436 763.64L628.282 764.957C628.737 777.346 630.853 789.841 630.942 802.216C630.96 804.755 629.044 805.37 629.345 808.017L629.038 807.339C631.726 807.9 643.504 806.515 647.332 806.387C662.863 805.868 756.674 800.161 763.616 803.085C764.721 805.127 764.606 807.594 764.609 809.86L764.428 845.506C764.412 852.218 765.09 859.945 763.899 866.536C763.53 868.583 762.903 870.095 761.361 871.543C757.427 875.237 751.245 874.532 746.31 874.351L744.668 878.801C741.366 883.979 736.709 888.134 730.729 889.897Q730.17 890.062 729.603 890.199Q729.035 890.336 728.462 890.444Q727.889 890.552 727.311 890.632Q726.733 890.711 726.152 890.761Q725.571 890.811 724.988 890.832Q724.405 890.853 723.822 890.845Q723.238 890.836 722.656 890.798Q722.074 890.76 721.495 890.693Q720.915 890.626 720.34 890.53Q719.764 890.434 719.195 890.309Q718.625 890.185 718.062 890.031Q717.499 889.878 716.945 889.696Q716.39 889.515 715.846 889.306Q715.301 889.097 714.768 888.86Q714.234 888.624 713.714 888.361Q713.193 888.099 712.686 887.81C706.698 884.379 703.151 879.51 701.255 872.99L658.116 873.118L658 873.497L657.798 874.125C655.681 880.852 651.855 886.27 645.407 889.509Q644.882 889.775 644.345 890.015Q643.807 890.254 643.258 890.467Q642.709 890.679 642.15 890.863Q641.591 891.048 641.024 891.203Q640.456 891.359 639.882 891.487Q639.307 891.614 638.727 891.712Q638.146 891.81 637.562 891.879Q636.977 891.948 636.39 891.987Q635.803 892.026 635.214 892.036Q634.626 892.046 634.037 892.026Q633.449 892.006 632.863 891.957Q632.276 891.907 631.693 891.828Q631.11 891.749 630.531 891.641Q629.953 891.533 629.38 891.396Q628.808 891.259 628.243 891.093Q627.679 890.927 627.123 890.733C618.69 887.739 614.071 881.707 610.391 873.961C603.044 873.005 592.821 875.924 586.237 872.349C583.813 871.032 582.537 868.418 581.925 865.83C580.344 859.143 581.683 839.715 583.417 832.822Q584.104 830.146 585.223 827.62Q586.343 825.094 587.864 822.788C595.436 811.453 614.072 809.843 626.287 807.653L626.469 807.281L627.512 807.267C626.324 807.205 625.479 807.212 624.398 806.661C623.946 805.728 623.75 804.997 623.637 803.968C622.847 796.762 619.029 763.182 622.524 758.76C628.693 756.461 642.584 757.147 649.844 756.714Z"/>
	<path fill="#FEFEFE" d="M719.732 850.096C724.185 849.772 728.433 849.738 732.568 851.73Q733.241 852.048 733.879 852.432Q734.517 852.817 735.113 853.263Q735.71 853.71 736.258 854.214Q736.806 854.718 737.301 855.275Q737.796 855.831 738.232 856.435Q738.668 857.039 739.041 857.683Q739.415 858.327 739.721 859.006Q740.028 859.685 740.265 860.391C741.818 864.883 741.509 870.122 739.371 874.371C736.896 879.291 732.822 881.832 727.716 883.438C723.984 883.692 720.658 883.601 717.16 882.11Q716.751 881.939 716.351 881.747Q715.951 881.555 715.562 881.343Q715.173 881.131 714.795 880.898Q714.417 880.666 714.052 880.415Q713.686 880.164 713.334 879.894Q712.983 879.624 712.645 879.336Q712.308 879.049 711.985 878.744Q711.663 878.44 711.357 878.119Q711.051 877.798 710.762 877.462Q710.473 877.125 710.201 876.775Q709.93 876.424 709.677 876.06Q709.424 875.695 709.19 875.319Q708.957 874.942 708.743 874.554Q708.529 874.165 708.335 873.766Q708.141 873.367 707.968 872.959Q707.796 872.551 707.644 872.134Q707.496 871.72 707.371 871.298Q707.245 870.876 707.142 870.449Q707.038 870.021 706.957 869.589Q706.876 869.157 706.818 868.721Q706.759 868.285 706.724 867.846Q706.688 867.408 706.676 866.968Q706.663 866.528 706.674 866.089Q706.684 865.649 706.718 865.21Q706.751 864.772 706.807 864.336Q706.864 863.899 706.943 863.467Q707.022 863.034 707.123 862.606Q707.225 862.178 707.348 861.756Q707.472 861.333 707.618 860.918Q707.763 860.503 707.93 860.096Q708.097 859.69 708.285 859.292Q708.473 858.894 708.682 858.507C711.115 853.927 714.896 851.551 719.732 850.096Z"/>
	<path fill="#0B0B0C" d="M721.565 856.596C723.513 856.627 725.488 856.722 727.371 857.262C730.019 858.021 732.484 859.632 733.805 862.111C734.895 864.156 735.04 866.511 734.36 868.715C733.211 872.445 730.036 874.897 726.708 876.591C724.342 877.005 722.44 877.073 720.203 876.064Q719.702 875.838 719.226 875.562Q718.751 875.286 718.305 874.965Q717.859 874.643 717.448 874.278Q717.036 873.914 716.663 873.51Q716.291 873.106 715.96 872.667Q715.63 872.227 715.345 871.757Q715.06 871.287 714.823 870.791Q714.587 870.294 714.401 869.777C713.422 867.077 713.488 863.916 714.875 861.365C716.383 858.592 718.615 857.386 721.565 856.596Z"/>
	<path fill="#FEFEFE" d="M633.071 850.618C636.648 850.484 640.635 851.353 643.725 853.198C647.628 855.53 650.256 859.401 651.297 863.794C652.382 868.371 651.704 873.137 649.12 877.098C646.259 881.483 642.084 883.532 637.14 884.681C632.869 884.716 629.333 884.391 625.527 882.203Q625.151 881.991 624.787 881.76Q624.422 881.529 624.07 881.28Q623.719 881.03 623.38 880.763Q623.042 880.495 622.718 880.21Q622.394 879.925 622.085 879.624Q621.777 879.323 621.484 879.005Q621.192 878.688 620.916 878.356Q620.641 878.025 620.383 877.679Q620.125 877.333 619.885 876.974Q619.646 876.615 619.425 876.245Q619.205 875.874 619.004 875.492Q618.803 875.11 618.622 874.719Q618.442 874.327 618.281 873.926Q618.121 873.526 617.982 873.117Q617.844 872.709 617.726 872.294Q617.609 871.879 617.513 871.458C616.529 867.023 617.276 862.031 619.816 858.228C622.969 853.507 627.726 851.608 633.071 850.618Z"/>
	<path fill="#0B0B0C" d="M632.621 857.563C634.162 857.466 635.845 857.514 637.333 857.96C640.212 858.823 642.735 860.829 644.009 863.574C645.108 865.941 645.164 868.575 644.232 871.006C642.969 874.303 640.216 876.646 637.099 878.12C635.358 878.258 633.531 878.256 631.85 877.723Q631.322 877.554 630.814 877.331Q630.306 877.108 629.823 876.834Q629.341 876.56 628.89 876.238Q628.438 875.916 628.022 875.549Q627.606 875.182 627.23 874.774Q626.854 874.366 626.522 873.922Q626.19 873.477 625.905 873.001Q625.621 872.525 625.387 872.022Q625.172 871.55 625.006 871.059Q624.84 870.568 624.724 870.063Q624.608 869.558 624.544 869.044Q624.48 868.529 624.468 868.011Q624.457 867.493 624.497 866.976Q624.538 866.46 624.631 865.95Q624.724 865.44 624.868 864.942Q625.011 864.444 625.205 863.963C626.649 860.382 629.209 858.953 632.621 857.563Z"/>
	<path fill="#FEFEFE" d="M750.693 809.292C752.373 809.122 754.349 808.806 755.939 809.395C756.875 818.685 756.734 838.926 755.561 848.088C751.056 848.688 746.366 848.468 741.825 848.484C736.901 843.655 730.592 840.479 723.54 840.67C714.633 840.911 708.563 845.814 702.884 852.065C687.2 853.07 671.309 853.076 655.59 853.528C654.57 852.261 653.544 850.938 652.386 849.79C647.377 844.829 640.81 842.169 633.752 842.357C625.305 842.582 618.826 846.546 613.3 852.558C605.68 852.452 598.098 851.939 590.465 851.965C589.755 844.752 588.949 832.687 593.882 826.951C599.093 820.89 610.076 818.261 617.582 816.822C634.443 813.589 652.18 813.559 669.306 812.777L750.693 809.292Z"/>
	<path fill="#FEFEFE" d="M664.269 92.7091C664.409 92.6934 664.547 92.6723 664.687 92.6621C699.744 90.0922 736.65 102.742 763.479 125.038C789.562 146.713 814.427 186.228 817.358 220.371C820.692 259.195 802.257 294.164 778.052 323.052C757.017 348.155 720.843 360.82 688.918 363.657C688.354 363.719 687.791 363.787 687.226 363.829C651.29 366.443 612.53 353.233 585.277 329.946C558.169 306.783 538.968 276.762 536.269 240.525C533.014 196.848 544.76 171.769 572.775 139.425C595.663 113.001 629.287 95.2434 664.269 92.7091Z"/>
	<path fill="#0B0B0C" d="M676.74 133.08C681.119 132.984 685.301 133.62 688.667 136.673C695.348 142.734 693.559 152.183 693.214 160.161C693.072 163.452 693.234 166.715 693.434 170.001C699.066 171.32 704.189 173.43 709.42 175.873L710.045 175.085C713.798 170.449 723.141 161.189 727.964 158.156C729.697 157.066 731.706 156.522 733.736 156.364Q734.439 156.308 735.145 156.325Q735.85 156.343 736.55 156.432Q737.249 156.522 737.936 156.684Q738.623 156.845 739.289 157.077Q739.956 157.309 740.594 157.608Q741.233 157.907 741.838 158.27Q742.443 158.634 743.007 159.057Q743.571 159.481 744.088 159.961Q744.614 160.456 745.089 161Q745.563 161.545 745.982 162.133Q746.4 162.722 746.759 163.349Q747.118 163.976 747.413 164.635Q747.708 165.294 747.937 165.979Q748.166 166.664 748.326 167.369Q748.486 168.073 748.576 168.789Q748.666 169.506 748.685 170.228C748.974 178.504 742.857 181.829 737.244 186.453C734.289 188.887 731.617 191.506 728.977 194.275C731.878 199.668 733.916 205.493 736.02 211.229C742.843 210.803 751.474 208.873 757.766 208.874C761.943 208.875 766.407 211.133 769.232 214.134Q769.787 214.727 770.279 215.373Q770.77 216.019 771.194 216.712Q771.617 217.405 771.968 218.137Q772.318 218.87 772.593 219.634Q772.867 220.398 773.062 221.187Q773.257 221.975 773.371 222.779Q773.485 223.583 773.516 224.394Q773.547 225.206 773.496 226.016C773.281 229.859 771.619 233.41 768.683 235.922C762.051 241.598 754.508 239.548 746.797 238.45C743.379 237.963 739.915 237.714 736.473 237.444C734.324 243.472 731.355 248.948 728.719 254.749C734.867 260.873 747.494 268.499 747.987 277.855C748.188 281.686 746.496 285.731 743.976 288.563C741.153 291.735 737.027 293.859 732.755 294.007C730.589 294.083 728.25 293.629 726.308 292.644C721.352 290.13 712.559 279.762 707.627 275.385Q700.645 278.06 693.613 280.603C693.147 289.326 695.831 302.461 690.62 309.775C687.929 313.554 684.082 315.135 679.646 315.839C679.499 315.843 679.353 315.851 679.206 315.85C674.938 315.824 670.547 314.864 667.457 311.725C660.879 305.041 663.955 288.921 664.064 280.015C658.704 278.887 654.242 277.448 649.331 274.994C643.009 280.744 632.4 294.641 623.495 294.645C619.275 294.646 615.253 292.663 612.442 289.556C609.856 286.698 608.297 282.875 608.581 278.993C609.243 269.937 622.884 260.708 629.393 255.01C626.443 250.095 624.28 244.796 621.998 239.551C617.719 239.492 613.307 239.273 609.052 239.77C606.01 240.125 602.943 241.093 599.898 241.238C596.485 241.4 593.03 239.638 590.553 237.419C587.056 234.287 584.752 229.708 584.717 224.976Q584.708 224.234 584.774 223.495Q584.839 222.756 584.978 222.027Q585.117 221.299 585.328 220.587Q585.539 219.876 585.82 219.19Q586.101 218.503 586.448 217.848Q586.796 217.192 587.208 216.575Q587.619 215.958 588.09 215.385Q588.561 214.811 589.087 214.288C596.027 207.331 603.866 210.248 612.354 211.19C615.705 211.561 619.122 211.477 622.489 211.434Q625.222 203.401 629.103 195.856C625.623 191.35 620.624 187.858 616.313 184.174C612.451 180.873 609.122 177.411 608.828 172.044C608.613 168.107 610.24 164.247 612.894 161.382Q613.391 160.838 613.94 160.347Q614.49 159.857 615.087 159.425Q615.684 158.993 616.322 158.625Q616.96 158.257 617.632 157.956Q618.305 157.655 619.004 157.424Q619.704 157.193 620.424 157.035Q621.143 156.878 621.875 156.794Q622.607 156.711 623.344 156.703Q624.459 156.684 625.564 156.826Q626.67 156.969 627.744 157.27Q628.817 157.571 629.836 158.023Q630.855 158.476 631.797 159.072C635.597 161.479 645.578 172.136 649.58 175.886C654.694 173.728 659.711 171.76 665.051 170.211C666.07 161.482 663.52 146.22 667.414 139.63C669.536 136.039 672.796 134.093 676.74 133.08Z"/>
	<path fill="#FEFEFE" d="M673.783 190.616C683.359 189.901 692.307 191.272 700.334 196.899C707.652 202.028 713.202 209.859 714.671 218.755Q714.811 219.617 714.909 220.486Q715.006 221.354 715.061 222.226Q715.115 223.098 715.127 223.971Q715.138 224.845 715.106 225.718Q715.075 226.591 715 227.462Q714.925 228.332 714.807 229.198Q714.689 230.064 714.529 230.922Q714.369 231.781 714.166 232.631Q713.963 233.481 713.719 234.32Q713.475 235.159 713.189 235.984Q712.904 236.81 712.578 237.621Q712.252 238.431 711.887 239.225Q711.521 240.019 711.117 240.793Q710.713 241.568 710.271 242.321Q709.829 243.075 709.35 243.806Q708.871 244.537 708.357 245.243C701.973 253.967 693.628 258.151 683.139 259.852C674.436 260.849 666.486 259.546 659.052 254.697C651.056 249.482 645.301 240.454 643.422 231.138C641.726 222.731 644.082 213.441 648.895 206.41C654.771 197.827 663.668 192.496 673.783 190.616Z"/>
	<path fill="#FEFEFE" d="M341.335 683.215C341.896 683.158 342.479 683.148 343.045 683.123C370.215 681.941 416.5 695.162 436.718 713.849C444.439 720.985 449.972 729.681 456.031 738.169C459.905 743.598 464.175 748.762 467.883 754.306C477.943 769.346 485.446 787.68 486.122 805.908C487.259 836.586 477.12 868.057 460.047 893.471C452.819 904.23 443.477 914.882 434.58 924.33C429.354 929.88 422.782 934.057 416.161 937.748C395.837 949.077 373.973 954.755 350.75 955.559Q349.038 955.638 347.324 955.675Q345.611 955.712 343.897 955.708Q342.183 955.704 340.47 955.659Q338.756 955.613 337.045 955.526Q335.333 955.44 333.624 955.311Q331.915 955.183 330.209 955.014Q328.504 954.844 326.803 954.634Q325.102 954.423 323.407 954.172Q321.711 953.92 320.023 953.628Q318.334 953.335 316.653 953.002Q314.971 952.669 313.299 952.295Q311.626 951.922 309.963 951.508Q308.3 951.094 306.647 950.64Q304.994 950.186 303.353 949.692Q301.712 949.198 300.083 948.665Q298.454 948.132 296.838 947.559Q295.223 946.987 293.622 946.376Q292.021 945.765 290.435 945.115Q288.849 944.465 287.279 943.777Q285.709 943.089 284.156 942.364Q282.604 941.638 281.069 940.875Q279.534 940.112 278.018 939.312Q276.502 938.513 275.006 937.677Q273.51 936.841 272.035 935.968Q270.559 935.097 269.105 934.189Q267.651 933.282 266.219 932.339Q264.788 931.397 263.379 930.421Q261.971 929.444 260.586 928.434Q259.202 927.424 257.842 926.38Q256.482 925.337 255.148 924.261Q253.814 923.185 252.506 922.077Q251.199 920.969 249.918 919.83Q248.724 918.784 247.556 917.709Q246.388 916.635 245.246 915.532Q244.105 914.429 242.99 913.299Q241.875 912.169 240.789 911.012Q239.702 909.855 238.644 908.672Q237.585 907.489 236.556 906.281Q235.527 905.072 234.527 903.839Q233.528 902.606 232.559 901.349Q231.589 900.092 230.651 898.812Q229.712 897.532 228.805 896.229Q227.898 894.927 227.023 893.603Q226.148 892.278 225.305 890.933Q224.463 889.588 223.653 888.223Q222.843 886.858 222.067 885.473Q221.29 884.089 220.548 882.686Q219.805 881.283 219.097 879.862Q218.389 878.442 217.716 877.004Q217.042 875.567 216.404 874.114Q215.766 872.661 215.163 871.192Q214.56 869.724 213.993 868.241Q213.426 866.759 212.896 865.263Q212.365 863.767 211.871 862.258Q211.376 860.75 210.919 859.23Q210.462 857.71 210.041 856.179Q209.621 854.649 209.238 853.108Q208.855 851.568 208.509 850.019Q208.164 848.47 207.856 846.912Q207.549 845.355 207.279 843.791Q207.009 842.227 206.777 840.657Q206.546 839.086 206.352 837.511Q206.159 835.935 206.004 834.356Q205.849 832.776 205.732 831.193C204.907 819.042 204.396 805.77 206.819 793.81C210.733 774.494 228.644 748.542 241.58 733.787C267.994 703.656 301.113 685.851 341.335 683.215Z"/>
	<path fill="#0B0B0C" d="M345.707 720.609C351.972 720.203 357.418 720.828 362.967 724.007C372.341 729.376 383.699 739.76 392.597 746.629C401.456 753.468 416.933 763.744 424.116 771.299Q425.267 772.487 426.257 773.813Q427.246 775.14 428.056 776.582Q428.866 778.024 429.485 779.559Q430.103 781.094 430.519 782.695C431.968 788.353 431.381 796.347 428.35 801.503C425.208 806.846 420.547 811.863 416.681 816.721L394.018 845.298L369.419 877.292C364.32 884.005 359.139 891.903 352.955 897.659C348.522 901.785 342.87 903.97 337.112 905.498C329.827 905.9 323.592 904.268 317.484 900.316C309.881 895.398 303.078 888.818 295.919 883.237C284.519 874.349 266.931 862.698 257.638 852.754C254.46 849.353 252.003 845.5 251.065 840.877C249.714 834.218 250.564 826.761 254.428 821.045C257.681 816.233 261.664 811.748 265.245 807.17L290.347 775.436L311.415 748.785C316.687 742.055 322.446 733.477 328.96 727.936C333.776 723.84 339.601 721.842 345.707 720.609Z"/>
	<path fill="#FEFEFE" d="M344.95 727.566C349.895 727.343 354.119 728.108 358.551 730.372C366.668 734.519 373.976 741.425 381.302 746.88C388.93 752.561 396.394 758.408 403.958 764.168C408.602 767.704 413.812 771.061 417.966 775.128C420.444 777.554 422.622 780.563 423.581 783.935C424.905 788.593 424.412 794.1 422.046 798.345C419.208 803.438 414.471 808.071 410.856 812.656L386.752 843.468C378.294 854.321 370.108 865.414 361.736 876.338C357.654 881.664 353.663 887.507 348.966 892.286C345.631 895.679 341.766 897.252 337.298 898.497C332.534 899.087 328.16 898.221 323.925 896.008C315.765 891.744 308.537 884.262 301.228 878.616C292.701 872.03 284.108 865.54 275.645 858.87C271.425 855.543 266.867 852.306 263.101 848.474C260.823 846.156 258.746 843.281 257.868 840.112C256.659 835.753 257.197 830.199 259.498 826.28C262.297 821.513 266.205 817.146 269.65 812.833L287.217 790.842L317.325 752.791C322.299 746.581 327.262 739.467 333.07 734.034C336.635 730.7 340.325 728.873 344.95 727.566Z"/>
	<path fill="#0B0B0C" d="M376.528 762.499C377.692 762.601 379.006 762.631 379.957 763.369C380.526 763.811 380.662 764.555 380.67 765.247C380.692 767.186 379.008 769.285 377.932 770.815C363.339 791.557 346.744 810.993 331.154 830.995L312.977 854.435C309.714 858.643 306.565 863.345 302.786 867.074C301.77 866.771 300.408 866.49 299.507 865.959C298.453 865.337 298.389 864.94 298.165 863.858C300.71 856.377 317.937 836.987 323.551 829.784Q340.712 807.498 358.102 785.39C363.364 778.633 368.212 771.284 373.729 764.782C374.548 763.816 375.437 763.126 376.528 762.499Z"/>
	<path fill="#0B0B0C" d="M344.691 733.626C348.525 733.668 352.508 734.466 355.935 736.208C361.031 738.799 365.012 743.338 366.568 748.876Q366.833 749.826 367.004 750.797Q367.175 751.768 367.25 752.751Q367.326 753.734 367.305 754.72Q367.283 755.706 367.166 756.685Q367.049 757.664 366.837 758.626Q366.624 759.589 366.319 760.527Q366.014 761.464 365.618 762.368Q365.223 763.271 364.741 764.131C361.479 769.935 356.185 772.843 350.001 774.596C344.558 774.709 339.838 774.192 335.136 771.118Q334.719 770.851 334.316 770.562Q333.912 770.274 333.525 769.965Q333.137 769.657 332.766 769.329Q332.394 769.001 332.04 768.654Q331.686 768.307 331.35 767.943Q331.014 767.578 330.698 767.197Q330.381 766.816 330.085 766.419Q329.788 766.022 329.512 765.61Q329.236 765.198 328.982 764.773Q328.727 764.348 328.495 763.91Q328.263 763.472 328.053 763.023Q327.844 762.574 327.658 762.114Q327.472 761.655 327.31 761.187Q327.147 760.719 327.009 760.242Q326.871 759.767 326.758 759.284Q326.645 758.802 326.556 758.314C325.476 752.601 326.64 746.524 330.076 741.796C333.756 736.732 338.714 734.567 344.691 733.626Z"/>
	<path fill="#FEFEFE" d="M344.771 741.111C347.388 741.049 350.384 741.387 352.734 742.606C355.974 744.286 358.322 746.998 359.414 750.487C360.455 753.812 360.219 757.395 358.571 760.483C356.404 764.542 352.775 766.376 348.575 767.75C345.307 767.866 342.637 767.594 339.782 765.871Q339.21 765.527 338.675 765.128Q338.139 764.729 337.646 764.279Q337.152 763.83 336.705 763.334Q336.258 762.838 335.862 762.3Q335.466 761.763 335.124 761.189Q334.783 760.615 334.499 760.011Q334.216 759.406 333.993 758.777Q333.771 758.147 333.611 757.499Q333.442 756.829 333.342 756.145Q333.243 755.46 333.216 754.77Q333.188 754.079 333.232 753.389Q333.276 752.699 333.391 752.017Q333.506 751.335 333.691 750.669Q333.876 750.003 334.129 749.36Q334.382 748.716 334.7 748.102Q335.018 747.489 335.398 746.911C337.656 743.506 340.894 741.948 344.771 741.111Z"/>
	<path fill="#0B0B0C" d="M310.006 774.596C314.309 774.238 318.534 774.731 322.447 776.661Q322.926 776.897 323.393 777.158Q323.86 777.418 324.313 777.702Q324.766 777.986 325.203 778.293Q325.641 778.599 326.062 778.928Q326.484 779.257 326.888 779.606Q327.292 779.956 327.678 780.326Q328.064 780.696 328.43 781.085Q328.796 781.474 329.142 781.882Q329.488 782.289 329.813 782.714Q330.138 783.138 330.44 783.579Q330.743 784.019 331.023 784.475Q331.302 784.93 331.558 785.399Q331.815 785.868 332.046 786.35Q332.278 786.832 332.485 787.324Q332.692 787.817 332.873 788.32Q333.055 788.823 333.21 789.334Q333.347 789.81 333.459 790.293Q333.572 790.776 333.661 791.263Q333.749 791.751 333.814 792.242Q333.878 792.734 333.918 793.228Q333.958 793.722 333.974 794.217Q333.989 794.713 333.98 795.208Q333.971 795.704 333.937 796.198Q333.904 796.693 333.845 797.185Q333.787 797.677 333.705 798.166Q333.622 798.655 333.516 799.139Q333.409 799.623 333.279 800.101Q333.148 800.579 332.994 801.05Q332.84 801.521 332.663 801.984Q332.486 802.447 332.286 802.901Q332.086 803.354 331.864 803.797Q331.642 804.24 331.398 804.672C328.106 810.558 323.002 813.589 316.707 815.365C311.724 815.674 307.475 815.526 302.975 812.978Q302.513 812.716 302.066 812.43Q301.618 812.145 301.186 811.836Q300.754 811.528 300.338 811.198Q299.922 810.869 299.523 810.518Q299.125 810.167 298.745 809.796Q298.365 809.426 298.004 809.036Q297.644 808.646 297.304 808.239Q296.964 807.831 296.645 807.406Q296.326 806.982 296.029 806.542Q295.733 806.101 295.459 805.646Q295.186 805.191 294.936 804.723Q294.686 804.255 294.46 803.774Q294.234 803.294 294.033 802.802Q293.833 802.311 293.657 801.809Q293.482 801.308 293.333 800.799Q293.183 800.289 293.06 799.773Q292.939 799.257 292.845 798.735Q292.75 798.214 292.682 797.688Q292.614 797.163 292.573 796.634Q292.532 796.106 292.517 795.576Q292.503 795.046 292.515 794.516Q292.527 793.986 292.567 793.458Q292.606 792.929 292.672 792.403Q292.738 791.878 292.83 791.356Q292.923 790.834 293.042 790.317Q293.16 789.801 293.305 789.291Q293.45 788.781 293.621 788.279Q293.791 787.777 293.987 787.285Q294.182 786.792 294.403 786.31Q294.623 785.828 294.868 785.358Q295.112 784.888 295.38 784.43Q295.648 783.973 295.939 783.53C299.318 778.383 304.155 775.856 310.006 774.596Z"/>
	<path fill="#FEFEFE" d="M311.326 781.583C313.968 781.498 316.652 781.644 319.085 782.783Q319.681 783.06 320.247 783.394Q320.812 783.729 321.341 784.119Q321.871 784.508 322.359 784.948Q322.846 785.388 323.288 785.875Q323.729 786.362 324.12 786.89Q324.511 787.419 324.847 787.983Q325.183 788.548 325.461 789.144Q325.74 789.739 325.957 790.359Q326.19 791.024 326.352 791.71Q326.514 792.395 326.604 793.094Q326.695 793.792 326.712 794.497Q326.729 795.201 326.673 795.903Q326.617 796.605 326.489 797.298Q326.36 797.991 326.161 798.666Q325.961 799.342 325.692 799.993Q325.424 800.644 325.089 801.264C322.943 805.271 319.45 807.206 315.231 808.446C312.327 808.601 309.899 808.526 307.268 807.156Q306.637 806.828 306.044 806.437Q305.45 806.045 304.901 805.594Q304.352 805.142 303.853 804.636Q303.354 804.129 302.911 803.574Q302.467 803.018 302.084 802.419Q301.702 801.82 301.383 801.184Q301.065 800.548 300.815 799.883Q300.565 799.217 300.386 798.529Q300.198 797.848 300.081 797.151Q299.964 796.454 299.919 795.749Q299.873 795.044 299.9 794.337Q299.928 793.631 300.027 792.932Q300.126 792.232 300.296 791.546Q300.466 790.86 300.705 790.195Q300.944 789.53 301.25 788.893Q301.556 788.256 301.926 787.654C304.21 784.003 307.276 782.567 311.326 781.583Z"/>
	<path fill="#0B0B0C" d="M332.383 853.643C336.136 853.366 340.358 854.426 343.685 856.143Q344.131 856.375 344.565 856.629Q345 856.883 345.421 857.158Q345.842 857.432 346.249 857.728Q346.656 858.023 347.048 858.338Q347.44 858.654 347.816 858.988Q348.192 859.322 348.551 859.674Q348.91 860.026 349.251 860.396Q349.592 860.765 349.915 861.151Q350.237 861.537 350.54 861.939Q350.843 862.34 351.126 862.756Q351.409 863.172 351.671 863.601Q351.933 864.031 352.173 864.472Q352.414 864.914 352.632 865.367Q352.85 865.82 353.046 866.284Q353.242 866.747 353.414 867.219Q353.587 867.692 353.736 868.172C355.533 873.786 354.835 879.57 351.929 884.682C348.521 890.679 343.448 893.77 336.977 895.523C331.543 895.632 327.025 894.963 322.406 891.77C318.004 888.728 314.91 884.24 314.005 878.936C313.027 873.206 314.374 866.786 317.782 862.053C321.368 857.074 326.468 854.593 332.383 853.643Z"/>
	<path fill="#FEFEFE" d="M332.481 860.563C334.579 860.608 336.919 861.048 338.85 861.868C342.378 863.365 345.228 866.204 346.534 869.832Q346.768 870.499 346.932 871.187Q347.096 871.875 347.188 872.576Q347.281 873.277 347.3 873.984Q347.32 874.69 347.267 875.396Q347.214 876.101 347.089 876.797Q346.963 877.492 346.767 878.172Q346.571 878.851 346.306 879.507Q346.041 880.162 345.71 880.787C343.596 884.865 340.203 887.114 335.935 888.484C333.013 888.552 330.862 888.478 328.246 887.093Q327.603 886.754 326.997 886.352Q326.391 885.949 325.83 885.487Q325.269 885.025 324.757 884.509Q324.245 883.992 323.789 883.426Q323.333 882.86 322.936 882.25Q322.54 881.641 322.208 880.994Q321.875 880.347 321.61 879.67Q321.346 878.993 321.151 878.292C320.117 874.581 320.615 870.331 322.622 867.022C324.998 863.104 328.145 861.547 332.481 860.563Z"/>
	<path fill="#0B0B0C" d="M394.409 772.607C398.832 772.2 403.386 773.009 407.257 775.25C412.07 778.035 415.397 782.639 416.817 787.991Q416.96 788.512 417.076 789.04Q417.192 789.568 417.28 790.102Q417.369 790.635 417.43 791.172Q417.491 791.709 417.524 792.249Q417.557 792.788 417.562 793.329Q417.568 793.869 417.545 794.409Q417.523 794.949 417.472 795.487Q417.422 796.026 417.344 796.561Q417.266 797.095 417.16 797.626Q417.055 798.156 416.922 798.68Q416.789 799.204 416.63 799.72Q416.47 800.237 416.284 800.744Q416.098 801.252 415.886 801.749Q415.674 802.246 415.437 802.732Q415.2 803.218 414.938 803.69Q414.676 804.163 414.39 804.622C411.108 809.911 406.535 812.637 400.616 813.994C395.885 814.485 391.654 814.044 387.413 811.71C382.418 808.96 378.494 804.086 377.055 798.552C375.643 793.122 376.634 787.079 379.566 782.313C383.049 776.651 388.128 774.003 394.409 772.607Z"/>
	<path fill="#FEFEFE" d="M395.401 779.566C397.867 779.604 400.213 780.047 402.462 781.099C405.944 782.726 408.711 785.624 409.949 789.289Q410.176 789.957 410.333 790.646Q410.489 791.334 410.573 792.035Q410.657 792.736 410.667 793.442Q410.678 794.148 410.615 794.851Q410.551 795.554 410.416 796.247Q410.28 796.94 410.072 797.615Q409.865 798.289 409.589 798.939Q409.312 799.589 408.97 800.206C406.637 804.422 403.235 806.029 398.823 807.258C396.167 807.29 393.757 806.9 391.322 805.788C387.875 804.214 385.2 801.35 384.038 797.722Q383.823 797.052 383.678 796.362Q383.533 795.673 383.46 794.973Q383.387 794.273 383.386 793.569Q383.385 792.865 383.456 792.164Q383.527 791.464 383.671 790.775Q383.814 790.085 384.027 789.414Q384.24 788.743 384.521 788.098Q384.802 787.452 385.148 786.839C387.507 782.659 391.004 780.888 395.401 779.566Z"/>
	<path fill="#0B0B0C" d="M278.237 815.143C283.302 814.562 288.147 814.827 292.743 817.309C297.495 819.875 300.75 824.255 302.231 829.415C303.776 834.801 303.525 841.074 300.727 846.017C297.495 851.725 292.366 854.066 286.353 855.776C281.836 856.358 278.095 856.267 273.893 854.283C268.701 851.832 264.422 847.107 262.515 841.691C260.721 836.598 261.211 831.129 263.683 826.349C266.829 820.265 271.917 817.111 278.237 815.143Z"/>
	<path fill="#FEFEFE" d="M280.749 822.15C283.4 822.002 286.136 822.15 288.589 823.26Q289.181 823.528 289.743 823.854Q290.306 824.18 290.832 824.561Q291.359 824.942 291.844 825.375Q292.329 825.807 292.768 826.286Q293.208 826.766 293.596 827.287Q293.985 827.808 294.319 828.365Q294.653 828.923 294.929 829.511Q295.205 830.1 295.42 830.713Q295.664 831.388 295.838 832.085Q296.012 832.782 296.115 833.492Q296.217 834.203 296.246 834.92Q296.275 835.638 296.232 836.354Q296.188 837.071 296.071 837.78Q295.954 838.488 295.766 839.181Q295.578 839.874 295.32 840.544Q295.063 841.215 294.738 841.855C292.644 846.018 289.458 848.115 285.179 849.609C281.141 849.681 278.308 849.427 274.901 847.064C271.722 844.859 269.331 841.37 268.692 837.528Q268.585 836.886 268.541 836.237Q268.498 835.588 268.519 834.937Q268.54 834.287 268.625 833.642Q268.71 832.997 268.858 832.363Q269.007 831.73 269.217 831.114Q269.427 830.498 269.697 829.906Q269.967 829.314 270.295 828.752Q270.622 828.189 271.003 827.662C273.489 824.281 276.737 822.879 280.749 822.15Z"/>
	<path fill="#0B0B0C" d="M361.838 812.116C366.679 811.672 371.315 811.994 375.664 814.367C380.589 817.055 384 821.583 385.548 826.949C387.156 832.524 386.725 838.748 383.858 843.847C380.863 849.172 376.241 851.895 370.502 853.406C365.873 853.966 361.439 853.998 357.111 851.971C351.966 849.562 348.011 844.759 346.275 839.386Q346.112 838.865 345.975 838.336Q345.838 837.808 345.728 837.273Q345.618 836.738 345.535 836.198Q345.452 835.659 345.396 835.115Q345.34 834.572 345.311 834.027Q345.282 833.482 345.281 832.936Q345.279 832.39 345.305 831.844Q345.331 831.299 345.384 830.755Q345.437 830.212 345.518 829.672Q345.598 829.132 345.705 828.596Q345.813 828.061 345.947 827.532Q346.08 827.002 346.241 826.48Q346.401 825.958 346.587 825.445Q346.773 824.932 346.985 824.428Q347.197 823.925 347.433 823.433Q347.67 822.941 347.931 822.461C351.045 816.726 355.791 813.903 361.838 812.116Z"/>
	<path fill="#FEFEFE" d="M362.611 819.114C365.275 818.75 367.529 818.947 370.069 819.892Q370.763 820.148 371.426 820.473Q372.09 820.799 372.717 821.19Q373.344 821.581 373.928 822.035Q374.512 822.488 375.047 822.999Q375.581 823.509 376.061 824.071Q376.541 824.634 376.961 825.242Q377.38 825.851 377.736 826.499Q378.091 827.147 378.379 827.828C379.851 831.38 379.667 835.345 378.071 838.825C376.378 842.513 373.307 844.999 369.59 846.429C366.836 846.748 364.188 846.895 361.52 845.983C358.082 844.807 355.208 842.394 353.623 839.107C351.949 835.636 351.809 831.402 353.197 827.81C354.987 823.178 358.26 820.981 362.611 819.114Z"/>
	<path fill="#FEFEFE" d="M199.773 374.709C200.027 374.679 200.279 374.639 200.534 374.618C231.285 372.094 272.067 385.59 294.943 406.042C302.794 413.061 310.182 420.838 317.225 428.666C336.718 450.335 348.322 469.671 349.822 499.477C350.555 514.036 349.334 528.991 345.295 543.032C339.735 562.361 320.085 594.247 306.273 609.43C301.706 614.451 296.799 619.106 291.205 622.969C273.855 634.949 240.901 647.59 219.689 648.526C210.548 648.676 201.518 647.495 192.509 646.083C165.571 641.861 137.94 633.665 116.808 615.661C100.671 601.913 89.8709 585.502 80.076 566.927C76.5614 560.262 72.9865 553.675 70.8967 546.386C69.6632 542.084 69.2042 537.557 68.8642 533.109C65.3035 486.518 73.5023 459.822 104.196 424.193C108.812 418.835 113.587 413.404 118.871 408.699Q120.97 406.861 123.142 405.108Q125.313 403.355 127.553 401.691Q129.793 400.027 132.098 398.455Q134.403 396.882 136.77 395.404Q139.136 393.925 141.56 392.542Q143.984 391.16 146.462 389.876Q148.939 388.592 151.466 387.409Q153.994 386.226 156.566 385.145Q159.139 384.064 161.753 383.087Q164.367 382.111 167.018 381.24Q169.669 380.369 172.353 379.605Q175.037 378.842 177.749 378.187Q180.462 377.532 183.198 376.986Q185.935 376.44 188.691 376.005Q191.448 375.57 194.219 375.246Q196.991 374.922 199.773 374.709Z"/>
	<path fill="#0B0B0C" d="M211.25 428.97C212.453 428.966 213.434 428.982 214.549 429.477C219.307 431.586 224.061 435.153 228.508 437.896C241.142 445.686 253.509 453.811 265.937 461.918Q282.65 472.656 299.151 483.717C304.832 487.464 310.985 491.042 316.309 495.263C317.548 496.245 318.577 497.196 318.997 498.79C319.417 500.383 319.05 502.026 318.314 503.459C317.291 505.452 315.409 507.126 313.234 507.73Q312.688 507.879 312.125 507.937Q311.561 507.995 310.996 507.962Q310.431 507.928 309.879 507.803Q309.327 507.678 308.802 507.465C306.226 506.436 303.749 503.942 301.399 502.39Q292.204 496.304 282.781 490.576Q283.155 534.534 282.659 578.49C286.882 578.953 296.553 577.775 299.872 579.235C301.057 579.757 302.197 580.966 302.546 582.222C302.752 582.966 302.581 582.879 302.185 583.698C300.429 585.061 298.39 585.358 296.225 585.539C288.016 586.225 279.288 585.372 271.009 585.305L219.742 585.182C199.893 584.96 179.954 585.468 160.096 585.705C150.694 585.818 137.567 586.945 128.636 585.171C127.702 584.396 127.071 583.983 126.869 582.681C126.643 581.217 127.093 580.704 127.878 579.589C131.922 577.362 137.974 578.338 142.497 578.465Q142.018 534.437 143.253 490.423C134.038 495.333 125.604 502.725 116.047 506.772C112.903 505.489 108.656 503.719 106.871 500.694C106.28 499.693 105.929 498.128 106.491 497.03C108.984 492.166 198.758 434.897 211.25 428.97Z"/>
	<path fill="#FEFEFE" d="M212.773 445.965C217.259 447.7 221.911 451.395 226.04 453.929C243.2 464.457 259.436 476.124 276.305 487.071C276.59 499.944 276.192 512.853 276.238 525.732C276.301 543.326 276.714 560.996 276.119 578.579C255.38 578.919 234.547 578.407 213.787 578.564L149.086 578.495L149.431 487.524C170.611 473.705 190.804 458.568 212.773 445.965Z"/>
	<path fill="#0B0B0C" d="M164.25 541.233C171.038 541.209 199.209 539.734 203.574 543.28C204.912 544.366 205.215 546.452 205.379 548.084C205.865 552.899 206.521 565.596 203.238 569.182C201.615 570.955 199.399 571.276 197.125 571.449C190.418 571.315 183.691 571.004 176.984 571.034C171.956 571.057 166.78 571.628 161.779 571.141C160.317 570.998 159.215 570.713 157.95 569.979C156.475 568.036 155.727 566.024 155.351 563.609C154.556 558.519 154.147 547.756 157.514 543.585C159.247 541.437 161.695 541.412 164.25 541.233Z"/>
	<path fill="#0B0B0C" d="M208.823 453.557C213.025 453.324 217.246 453.773 221.21 455.265C227.238 457.533 230.972 461.596 233.547 467.345C236.194 467.55 239.068 468.04 241.196 469.757C243.044 471.248 243.568 473.579 243.751 475.844C243.952 478.334 243.633 481.046 241.806 482.912C237.738 487.066 225.06 485.322 219.246 485.301C212.178 485.219 193.126 486.618 187.598 484.194C185.673 483.349 184.332 481.189 183.723 479.254C182.736 476.121 183.331 472.312 184.892 469.467C188.011 463.782 202.494 455.383 208.823 453.557Z"/>
	<path fill="#0B0B0C" d="M159.652 502.172C165.943 501.725 195.519 501.269 200.536 502.38C202.023 502.71 203.023 503.405 203.837 504.727C206.613 509.239 206.663 522.45 205.287 527.692C204.641 530.154 203.229 531.112 201.129 532.302C193.492 532.647 185.813 532.526 178.169 532.544C173.357 532.555 168.256 532.899 163.476 532.31C161.047 532.011 157.684 531.364 156.174 529.231C154.131 526.346 154.56 510.975 155.427 507.454C156.098 504.733 157.331 503.611 159.652 502.172Z"/>
	<path fill="#0B0B0C" d="M231.356 505.584C237.765 504.969 252.89 504.371 258.868 506.191C261.031 506.849 262.682 507.691 263.689 509.794C265.124 512.789 265.857 516.225 266.174 519.517C266.772 525.735 266.891 567.377 265.456 570.721C264.45 573.064 262.179 574.222 259.898 574.981C251.65 574.836 235.834 576.079 228.592 574.359C227.486 574.096 226.618 573.727 226.013 572.729C224.864 570.835 224.5 568.053 224.317 565.88C223.631 557.748 223.356 519.027 225.136 513.017C226.17 509.525 228.24 507.319 231.356 505.584Z"/>
	<path fill="#FEFEFE" d="M805.315 382.198C805.648 382.161 805.981 382.121 806.315 382.088C825.935 380.129 861.307 387.438 878.991 395.466C887.136 399.163 894.583 404.223 901.46 409.915C929.629 433.231 956.897 469.178 960.243 506.547C963.669 544.815 945.746 583.673 921.512 612.458C899.822 638.222 862.617 653.578 829.493 656.508C798.267 657.467 748.609 643.194 724.204 623.704C699.019 603.591 677.027 568.953 673.576 536.762C670.627 509.255 674.932 483.857 688.664 459.638C691.573 454.508 694.591 449.207 698.325 444.632C707.609 433.256 719.522 421.897 731.343 413.268C750.442 399.324 781.849 384.637 805.315 382.198Z"/>
	<path fill="#0B0B0C" d="M807.43 422.572C808.048 422.571 808.624 422.628 809.235 422.727C815.251 423.703 817.36 427.27 820.717 431.926C825.035 431.779 833.188 429.125 836.8 430.885C839.027 431.97 839.391 433.903 840.114 436.078C849.177 435.485 865.431 432.071 872.984 437.731C876.539 440.395 877.317 443.323 877.891 447.542C879.417 458.75 880.15 470.267 881.096 481.551L885.566 535.922L888.282 569.594C888.733 574.982 889.722 580.627 889.619 586.014C889.57 588.528 888.967 590.669 887.359 592.633C885.83 594.501 883.324 595.099 881.065 595.607C874.489 597.086 867.316 597.313 860.608 597.99L822.618 601.866C804.322 603.657 785.772 606.308 767.438 607.318C764.426 607.484 760.315 607.525 757.993 605.355C756.151 603.634 755.223 601.678 754.715 599.235C752.934 590.666 752.756 581.292 752.008 572.564L747.922 522.943Q746.002 500.448 743.783 477.981C743.06 470.324 742.067 462.578 741.76 454.895C741.638 451.836 742.587 448.962 744.75 446.741C751.031 440.291 769.588 440.873 778.453 440.481C782.93 435.434 786.702 431.067 793.709 430.457C797.977 426.687 801.803 423.994 807.43 422.572Z"/>
	<path fill="#FEFEFE" d="M801.379 433.3C803.105 434.687 805.206 437.177 807.583 437.232C809.598 437.279 811.088 435.58 812.398 434.294C814.496 438.532 816.121 441.616 820.06 444.505C824.755 442.652 829.078 439.942 833.438 437.423C833.693 442.367 833.873 447.265 833.81 452.219C829.865 452.743 825.861 453.017 821.898 453.395C809.718 453.837 797.338 455.144 785.24 456.624C784.966 451.381 785.028 446.107 784.988 440.857C787.66 442.515 793.222 446.168 796.4 445.454C799.323 444.798 799.496 436.413 801.071 433.797C801.171 433.63 801.276 433.466 801.379 433.3Z"/>
	<path fill="#FEFEFE" d="M856.647 441.288L859.236 441.07C862.356 440.823 867.145 440.097 869.6 442.561C870.581 443.545 870.696 445.086 870.881 446.402C872.394 457.14 872.742 468.277 873.762 479.098Q877.738 523.168 881.151 567.285C881.469 571.633 883.397 581.23 879.929 584.494C878.056 586.258 874.641 586.915 872.153 587.351C866.13 588.407 859.885 588.792 853.803 589.459L816.582 593.588L781.827 597.76C776.354 598.448 769.766 600.055 764.283 599.71C763.07 599.633 762.957 599.566 762.2 598.698C758.642 578.667 757.919 557.562 756.024 537.298L751.119 484.37C750.208 474.7 749.001 464.961 748.411 455.269C748.31 453.619 748.183 451.99 748.837 450.433C749.472 450.136 749.605 450.055 750.214 449.832C753.773 448.529 775.242 445.847 778.167 447.189C778.476 448.464 778.47 448.601 778.033 449.837C776.038 451.257 772.912 450.965 770.467 451.161C765.503 451.59 753.107 451.008 749.797 454.453C752.326 467.233 753.234 479.913 754.504 492.853C756.705 515.272 758.486 537.772 760.382 560.222C761.214 570.075 761.577 580.263 763.123 590.028C763.462 592.172 763.806 594.768 765.353 596.39C766.167 597.243 767.652 597.272 768.774 597.293C774.737 597.405 781.005 596.332 786.936 595.679L816.964 592.355L850.959 588.628C857.34 587.953 863.895 587.608 870.207 586.467C872.656 586.024 875.728 585.313 877.55 583.516C879.1 581.986 878.808 579.16 878.785 577.076C878.679 567.63 877.534 557.974 876.787 548.553L872.228 494.184L869.837 465.588C869.469 461.09 869.524 456.173 868.666 451.758C868.315 449.953 867.579 448.134 866.187 446.882C861.373 442.553 849.114 446.828 843.1 446.912C841.842 446.929 841.323 446.685 840.46 445.823C840.224 444.336 840.519 443.618 841.023 442.248C844.064 440.92 852.789 441.444 856.647 441.288Z"/>
	<path fill="#FEFEFE" d="M860.79 452.242C861.146 452.231 861.465 452.473 861.798 452.603C863.366 457.002 862.992 463.814 863.398 468.591Q865.68 495.238 867.454 521.924C868.875 540.938 870.833 559.921 872.313 578.937C845.352 581.168 818.442 584.625 791.524 587.377C787.395 587.799 774.172 589.914 770.986 589.468C769.859 588.557 770.064 588.342 769.895 586.878C768.452 570.557 767.698 554.167 766.275 537.838C764 511.742 761.131 485.706 759.412 459.562C765.934 458.679 772.57 458.318 779.133 457.858C780.464 459.983 781.709 461.552 783.558 463.259Q802.795 461.723 822.01 459.93C826.125 459.587 833.176 459.932 836.817 458.661C838.435 458.096 839.034 457.184 839.793 455.738C840.18 455.002 840.413 454.432 841.02 453.839C842.472 452.418 857.827 452.363 860.79 452.242Z"/>
	<path fill="#0B0B0C" d="M848.086 499.205C849.096 499.051 850.49 498.906 851.49 499.165C852.848 499.516 853.42 500.264 854.178 501.353C854.273 502.877 854.043 503.384 853.318 504.656C845.428 508.338 794.822 510.038 782.122 511.273C780.925 511.461 779.932 511.408 778.734 511.317C777.414 510.567 776.993 510.18 776.359 508.796C776.451 507.926 776.327 507.502 776.943 506.814C777.687 505.982 778.398 505.608 779.458 505.353C787.078 503.519 795.937 503.57 803.787 502.951Q825.958 501.334 848.086 499.205Z"/>
	<path fill="#0B0B0C" d="M844.942 472.713C846.678 472.585 848.977 472.284 850.589 473.138C851.727 473.741 851.966 474.001 852.415 475.12C852.3 475.597 852.239 476.001 851.953 476.432C850.87 478.064 848.337 478.918 846.527 479.294C840.258 480.595 832.674 480.253 826.203 480.683C810.91 481.7 795.469 482.686 780.243 484.455C778.82 484.524 776.799 484.795 775.472 484.326C774.383 483.941 772.983 482.766 772.455 481.747C772.102 481.067 772.407 480.803 772.645 480.141C774.078 478.888 775.822 478.366 777.659 477.981C785.221 476.397 793.651 476.376 801.385 475.813L844.942 472.713Z"/>
	<path fill="#0B0B0C" d="M849.26 525.696C850.67 525.518 852.71 525.055 854.029 525.691C855.361 526.334 855.845 527.242 856.429 528.494C856.373 529.226 856.479 529.777 856.014 530.385C855.235 531.406 854.327 531.73 853.121 532C843.973 534.052 833.509 533.954 824.133 534.641C811.493 535.568 798.887 536.88 786.25 537.832C784.44 538.022 781.506 538.582 779.829 537.791C778.806 537.308 778.2 536.704 778.043 535.532C777.87 534.238 778.316 533.301 779.077 532.323C784.267 529.672 838.434 526.766 849.26 525.696Z"/>
	<path fill="#0B0B0C" d="M854.768 552.222C855.694 552.256 856.564 552.472 857.469 552.659C858.311 553.426 859.18 554.103 859.632 555.18C859.936 555.903 859.633 556.179 859.376 556.859C857.755 558.33 855.712 558.762 853.609 559.133C847.706 560.172 841.393 560.152 835.407 560.685C818.477 562.194 801.537 563.478 784.624 565.193C783.447 565.339 782.216 565.387 781.137 564.775C779.968 564.112 779.888 563.377 779.594 562.198C779.805 561.302 779.957 560.636 780.637 559.956C781.957 558.635 784.027 557.969 785.826 557.682C791.554 556.767 797.897 556.775 803.719 556.266L854.768 552.222Z"/>
</svg>
