<?xml version="1.0" encoding="utf-8" ?>
<svg xmlns="http://www.w3.org/2000/svg" xmlns:xlink="http://www.w3.org/1999/xlink" width="1024" height="1024">
	<path fill="#090909" d="M409.41 355.609C375.677 369.229 340.546 372.698 305.242 362.243C273.701 352.902 252.701 337.505 232.551 311.944C225.803 303.384 219.511 294.368 214.343 284.755C199.605 257.341 198.875 234.038 202.855 204.006C204.301 193.09 206.057 182.205 209.26 171.646C211.973 162.702 215.715 154.071 220.851 146.243C235.334 124.17 262.019 103.902 285.174 91.4947C314.579 75.7371 352.197 68.2469 384.701 78.1822C422.921 89.8645 466.612 120.987 485.311 156.588C501.931 188.229 506.209 226.521 495.462 260.676C486.807 288.184 468.933 317.188 445.718 334.513C436.334 341.516 425.696 346.706 415.35 352.115C422.62 366.813 434.054 385.399 444.249 398.344C456.232 391.173 468.458 385.417 482.114 382.158C515.203 374.259 547.381 380.322 576.068 398.033C580.694 391.404 585.371 384.788 589.682 377.947C594.512 370.283 598.966 362.388 604.011 354.859C597.756 351.024 591.423 347.269 585.522 342.898C563.252 326.402 544.823 303.61 534.828 277.685C521.485 243.075 521.968 199.863 537.306 165.93Q539.155 161.825 541.304 157.868Q543.454 153.912 545.891 150.126Q548.329 146.341 551.041 142.747Q553.754 139.153 556.726 135.771C571.834 118.717 605.867 94.3864 627.233 86.3513Q628.682 85.8154 630.143 85.3152Q631.604 84.815 633.077 84.3507Q634.55 83.8865 636.034 83.4585Q637.518 83.0305 639.012 82.639Q640.506 82.2475 642.009 81.8928Q643.512 81.5381 645.024 81.2203Q646.535 80.9026 648.054 80.622Q649.573 80.3414 651.098 80.0981Q652.623 79.8548 654.154 79.649Q655.684 79.4432 657.22 79.275Q658.755 79.1068 660.294 78.9763Q661.833 78.8458 663.374 78.753Q664.916 78.6603 666.46 78.6054Q668.003 78.5505 669.547 78.5334Q671.092 78.5164 672.636 78.5372Q674.18 78.558 675.724 78.6167Q677.267 78.6754 678.808 78.7719Q680.35 78.8685 681.889 79.0027Q683.427 79.137 684.962 79.309Q686.497 79.4809 688.027 79.6905Q689.557 79.9 691.082 80.1471Q692.606 80.3941 694.124 80.6784Q695.642 80.9627 697.153 81.2841Q698.664 81.6056 700.166 81.964Q701.668 82.3224 703.161 82.7175Q704.654 83.1127 706.137 83.5443Q707.62 83.9759 709.092 84.4437Q710.564 84.9116 712.024 85.4154Q713.484 85.9192 714.931 86.4586Q716.378 86.9981 717.812 87.5729Q719.245 88.1476 720.664 88.7574Q722.083 89.3671 723.487 90.0115C733.172 94.431 742.14 100.031 751.014 105.872C780.306 125.15 805.82 148.945 818.24 182.598C825.885 203.313 829.508 233.661 825.377 255.465C823.267 266.599 819.055 277.174 814.291 287.409C806.486 304.179 793.113 328.466 778.371 339.432C770.181 345.524 760.357 349.869 751.288 354.491C741.426 359.517 731.342 365.058 720.911 368.811C695.086 378.103 663.818 376.976 637.627 369.145C627.906 366.239 618.774 362.261 609.61 357.948C601.947 373.349 591.981 388.153 582.426 402.435C589.439 407.969 596.505 413.294 603.046 419.399C628.272 442.944 644.438 474.604 645.597 509.397C651.175 509.905 656.769 510.771 662.329 511.471C663.717 489.404 673.879 457.041 686.251 438.929C708.668 406.111 759.575 378.336 798.157 371.284C835.107 364.531 870.263 378.13 900.18 399.056C931.44 420.922 958.807 450.34 965.712 489.14C969.322 499.736 970.481 528.147 967.528 538.702C964.919 566.362 947.156 599.914 928.583 620.328C906.822 644.246 862.226 665.43 829.925 666.861C787.07 668.76 740.602 652.212 709.017 623.212C688.451 604.329 670.948 577.016 664.94 549.536C662.619 538.923 662.157 528.156 661.7 517.344L645.982 515.726C645.632 522.831 645.119 529.83 643.804 536.837C635.964 578.621 616.362 601.791 582.004 625.213C588.679 637.055 596.627 647.889 604.234 659.125C609.751 667.272 614.847 675.713 620.308 683.905C631.281 679.416 643.605 676.769 655.361 675.274C694.195 670.334 729.93 682.465 760.454 706.267C768.304 712.389 775.368 719.393 782.267 726.55C804.913 750.048 815.334 769.538 819.331 802.464C823.703 838.489 820.543 857.797 803.159 889.633C797.615 899.785 791.752 909.746 784.565 918.84Q782.405 921.585 780.067 924.179Q777.728 926.773 775.221 929.205Q772.714 931.637 770.05 933.895Q767.385 936.154 764.576 938.229C744.886 952.635 713.696 965.547 689.63 968.33C651.287 972.765 605.435 959.658 575.203 935.539C556.265 920.431 538.373 895.872 530.355 872.911C527.082 863.536 525.436 853.845 524.368 844.001C513.868 842.739 502.957 842.748 492.377 842.162C491.217 850.774 487.855 859.658 484.521 867.669C474.138 892.62 460.646 919.513 438.263 935.701C425.582 944.873 408.833 952.146 394.369 958.099C384.648 962.101 374.491 965.632 364.104 967.366C338.841 971.583 311.02 965.957 287.578 956.095C250.584 940.532 219.14 908.682 203.996 871.571C189.874 836.962 191.17 798.071 205.724 763.811C209.993 753.761 215.265 743.918 222.023 735.311C231.737 722.939 257.335 701.158 270.921 692.458Q275.527 689.569 280.386 687.128Q285.244 684.688 290.311 682.716C316.734 672.166 345.989 667.75 373.861 674.857C384.224 677.499 394.044 681.542 403.851 685.741C413.859 665.315 426.377 647.007 439.827 628.718C434.565 624.756 428.971 621.441 423.917 617.148C402.412 598.881 385.234 573.517 378.399 546.049C375.973 536.303 374.959 526.458 374.166 516.477Q366.954 516.304 359.746 516.018C359.637 522.933 359.518 529.813 357.992 536.59C353.341 557.249 334.053 595.994 320.712 612.085Q318.305 615.016 315.532 617.604Q312.759 620.191 309.668 622.389C301.594 628.189 292.384 632.55 283.716 637.397C272.906 643.443 262.427 650.436 250.818 654.893C243.442 657.725 235.914 659.305 228.055 659.996C199.712 662.49 165.895 656.952 140.264 644.494C129.634 639.328 119.829 632.501 110.817 624.881C81.928 600.455 59.7951 565.404 56.6204 527.23C53.5975 490.882 63.9355 449.566 87.7754 421.576C114.449 390.26 157.809 365.638 198.955 362.466C240.714 359.246 281.393 381.825 312.17 408.375C346.837 438.282 356.476 464.557 359.71 509.199Q366.728 509.436 373.748 509.589Q374.312 504.195 374.97 498.811C378.948 466.653 392.336 437.892 417.309 416.776C423.779 411.305 431.18 407.075 437.85 401.87C426.434 387.936 417.528 371.633 409.41 355.609ZM809.24 381.698C768.27 385.744 725.994 410.461 700.048 442.095C678.609 468.234 669.772 502.146 673.205 535.502C676.565 568.138 696.863 601.95 722.287 622.309C749.024 643.719 790.579 655.695 824.561 656.756C856.585 656.155 894.55 641.075 916.834 617.833C943.006 590.534 961.723 550.559 960.669 512.486C959.648 475.58 936.29 441.821 910.142 417.354C902.533 410.235 893.989 403.449 884.818 398.474C865.012 387.731 833.814 380.865 811.254 381.592C810.584 381.614 809.907 381.62 809.24 381.698ZM205.205 374.21C166.861 376.413 132.646 391.749 106.887 420.617C78.8578 452.029 65.4961 481.522 67.9878 524.539C68.4104 531.836 68.8054 539.449 70.788 546.511C74.9539 561.349 89.5111 585.408 99.232 597.668Q106.323 606.561 114.858 614.078C135.994 632.82 164.085 641.624 191.495 646.121C198.261 647.231 205.519 648.471 212.375 648.508C217.674 648.592 222.78 648.567 228.044 647.802C252.087 644.305 284.114 631.244 301.561 614.443C318.949 597.699 338.231 566.27 345.224 543.208C348.624 531.998 350.072 520.182 350.198 508.492C350.629 468.624 333.188 444.079 306.537 417.007C300.978 411.36 295.218 405.85 288.824 401.149C266.04 384.397 235.911 374.424 207.588 374.158C206.79 374.15 206.002 374.17 205.205 374.21ZM344.957 682.718C301.64 686.081 267.884 702.437 239.609 735.566C225.209 752.438 209.859 774.419 205.97 796.498C203.923 808.121 204.444 820.21 205.375 831.918Q205.506 833.538 205.677 835.153Q205.848 836.769 206.059 838.38Q206.27 839.991 206.521 841.597Q206.772 843.202 207.062 844.801Q207.353 846.399 207.683 847.99Q208.013 849.581 208.382 851.164Q208.751 852.746 209.16 854.319Q209.568 855.891 210.015 857.453Q210.462 859.016 210.948 860.566Q211.434 862.117 211.958 863.655Q212.482 865.193 213.043 866.717Q213.605 868.242 214.205 869.752Q214.804 871.263 215.441 872.757Q216.077 874.252 216.751 875.731Q217.424 877.21 218.134 878.672Q218.844 880.133 219.589 881.577Q220.335 883.02 221.117 884.445Q221.898 885.87 222.714 887.274Q223.53 888.679 224.381 890.064Q225.232 891.448 226.117 892.811Q227.002 894.173 227.92 895.514Q228.838 896.854 229.79 898.172Q230.741 899.489 231.724 900.782Q232.708 902.076 233.723 903.344Q234.738 904.613 235.785 905.856Q236.831 907.099 237.908 908.316Q238.985 909.533 240.091 910.722Q241.198 911.912 242.334 913.074Q243.469 914.236 244.634 915.37Q245.798 916.503 246.99 917.608Q248.181 918.712 249.4 919.786Q250.619 920.861 251.864 921.905Q253.09 922.933 254.339 923.934Q255.588 924.935 256.858 925.908Q258.129 926.881 259.42 927.826Q260.712 928.771 262.024 929.687Q263.337 930.603 264.669 931.49Q266.001 932.376 267.353 933.233Q268.704 934.09 270.074 934.917Q271.444 935.744 272.832 936.541Q274.22 937.337 275.626 938.103Q277.031 938.869 278.453 939.603Q279.875 940.338 281.312 941.04Q282.75 941.743 284.203 942.414Q285.656 943.085 287.124 943.723Q288.591 944.362 290.072 944.968Q291.553 945.573 293.048 946.147Q294.542 946.72 296.048 947.259Q297.555 947.799 299.073 948.306Q300.591 948.812 302.12 949.285Q303.649 949.758 305.188 950.197Q306.727 950.635 308.275 951.04Q309.824 951.445 311.381 951.815Q312.937 952.186 314.502 952.521Q316.067 952.857 317.639 953.158Q319.21 953.46 320.788 953.726Q322.366 953.992 323.95 954.224Q325.533 954.455 327.122 954.652Q328.71 954.848 330.302 955.009Q331.894 955.17 333.49 955.296Q335.085 955.422 336.683 955.513Q338.28 955.604 339.88 955.659Q341.479 955.714 343.079 955.734Q344.68 955.754 346.28 955.739C378.335 954.893 414.455 945.686 437.22 921.619C465.835 891.366 487.747 851.718 486.424 808.912C485.51 779.342 472.512 760.544 455.855 737.6C449.935 729.446 444.238 720.958 436.843 714.043C417.84 696.272 372.048 681.582 345.533 682.677C345.341 682.685 345.149 682.705 344.957 682.718ZM672.289 92.226C635.341 93.4797 601.371 108.287 575.984 135.39C549.471 163.693 533.98 193.838 535.4 233.506C536.674 269.101 553.53 301.142 579.474 325.071Q580.774 326.27 582.102 327.439Q583.431 328.607 584.786 329.743Q586.142 330.879 587.524 331.982Q588.907 333.086 590.315 334.156Q591.724 335.226 593.157 336.263Q594.59 337.299 596.048 338.301Q597.506 339.303 598.987 340.27Q600.468 341.237 601.972 342.168Q603.476 343.099 605.001 343.995Q606.527 344.89 608.073 345.748Q609.62 346.607 611.186 347.428Q612.753 348.25 614.338 349.034Q615.924 349.818 617.528 350.564Q619.132 351.31 620.753 352.017Q622.374 352.725 624.012 353.393Q625.649 354.062 627.302 354.691Q628.955 355.321 630.623 355.91Q632.291 356.5 633.972 357.05Q635.653 357.6 637.347 358.11Q639.041 358.619 640.746 359.089Q642.452 359.558 644.168 359.986Q645.884 360.415 647.61 360.802Q649.336 361.189 651.07 361.536Q652.805 361.882 654.547 362.186Q656.29 362.491 658.039 362.754Q659.788 363.017 661.543 363.239Q663.298 363.46 665.058 363.639Q666.817 363.819 668.581 363.956Q670.344 364.094 672.111 364.189Q673.877 364.284 675.645 364.338Q677.413 364.391 679.182 364.402Q680.95 364.413 682.719 364.382C718.562 361.431 755.623 349.936 779.569 321.532C802.871 293.893 820.67 258.081 817.445 221.158C814.373 185.988 791.475 148.322 764.452 125.852C739.045 104.725 705.491 91.6612 672.289 92.226ZM664.127 685.207C626.867 687.816 590.751 709.091 566.444 737.096C540.174 767.365 530.361 800.682 533.309 840.331C535.702 872.509 553.099 902.336 577.36 923.177C604.913 946.847 646.61 958.997 682.532 956.623C715.454 954.349 749.273 943.373 771.558 917.92C788.132 898.989 804.268 869.478 809.842 844.956C812.374 833.816 813.013 822.028 812.246 810.647C811.55 800.314 809.534 790.239 805.809 780.561C796.928 757.486 776.277 731.058 757.526 714.749C732.588 693.06 696.369 686.049 664.127 685.207ZM343.553 85.705C301.295 89.7602 266.568 112.085 240.031 144.28C232.986 152.827 226.782 162.042 222.329 172.214C213.827 191.632 210.517 220.049 212.595 241.288C215.589 271.898 236.331 307.519 260.042 326.96C286.072 348.303 327.01 361.366 360.619 357.91C400.282 352.921 434.904 336.416 459.838 304.403C482.258 275.617 496.055 241.463 491.437 204.419C487.952 176.456 472.583 154.884 454.924 134.021C448.31 126.207 441.606 118.359 433.472 112.063C413.153 96.3365 387.247 89.3543 362.078 86.5601C356.08 85.8942 349.556 85.0725 343.553 85.705ZM509.869 390.219C473.882 392.257 440.166 407.714 416.044 434.724C395.152 458.116 385.422 487.773 387.206 518.988C389.185 553.606 403.888 583.766 429.86 606.793C453.169 627.46 482.088 637.206 513.08 635.813C546.979 633.382 583.6 617.834 605.966 591.862C626.129 568.447 637.256 533.184 634.731 502.446C632.191 471.529 614.424 440.616 590.95 420.69C569.551 402.525 538.369 388.359 509.869 390.219ZM574.487 629.449C567.423 633.798 560.386 638.032 552.689 641.202C530.209 650.463 503.766 650.889 480.31 645.345C468.215 642.486 457.043 637.899 445.994 632.297C433.018 649.648 419.055 668.352 410.792 688.543C440.422 703.64 450.381 713.134 469.575 740.552C476.757 750.811 483.286 761.135 487.18 773.142Q488.722 777.874 489.932 782.701C493.739 798.739 498.099 818.93 494.082 835.116C503.87 835.862 513.678 836.559 523.497 836.593C521.837 794.045 529.107 757.641 558.924 725.238Q561.752 722.216 564.726 719.338Q567.701 716.46 570.814 713.734Q573.927 711.007 577.172 708.438Q580.417 705.869 583.786 703.464Q587.154 701.059 590.637 698.825Q594.121 696.59 597.711 694.531Q601.301 692.471 604.989 690.593Q608.677 688.714 612.453 687.021C608.117 678.861 578.955 631.308 574.487 629.449ZM965.712 489.14L965.038 489.679C965.158 489.96 965.311 490.228 965.398 490.52C965.461 490.733 965.565 491.601 965.611 491.905C966.179 495.721 966.607 498.961 966.339 502.868L966.752 503.277L967.304 502.694C968.567 513.719 966.728 525.363 967.289 536.489C967.301 536.741 967.287 536.995 967.288 537.248C967.295 538.124 967.256 537.711 967.528 538.702C970.481 528.147 969.322 499.736 965.712 489.14Z"/>
	<path fill="#090909" fill-opacity="0.96862745" d="M965.712 489.14C969.322 499.736 970.481 528.147 967.528 538.702C967.256 537.711 967.295 538.124 967.288 537.248C967.287 536.995 967.301 536.741 967.289 536.489C966.728 525.363 968.567 513.719 967.304 502.694L966.752 503.277L966.339 502.868C966.607 498.961 966.179 495.721 965.611 491.905C965.565 491.601 965.461 490.733 965.398 490.52C965.311 490.228 965.158 489.96 965.038 489.679L965.712 489.14Z"/>
	<path fill="#090909" d="M498.64 399.702C530.874 397.408 560.729 409.562 585.623 429.298C608.014 447.05 624.402 469.58 627.662 498.564C631.455 532.295 616.024 567.085 595.197 593.028C577.656 614.876 555.983 626.392 528.12 629.383L527.15 629.486C497.346 632.584 461.089 627.884 437.303 608.259C423.762 597.086 406.911 563.24 401.757 546.182C399.723 539.45 398.712 532.23 398.043 525.246C394.98 493.285 404.042 460.014 424.681 435.163C443.618 412.361 469.793 402.429 498.64 399.702ZM541.943 526.387C533.451 531.863 525.789 538.063 519.446 545.984C516.029 550.252 513.087 554.999 508.957 558.619C501.043 551.512 493.641 537.539 487.095 528.588C473.415 534.116 461.054 538.667 450.642 549.731C456.81 557.546 459.079 566.574 461.121 576.134C461.632 580.182 462.312 584.278 462.61 588.345C477.759 586.97 493.026 586.802 508.223 586.444C525.281 586.043 542.319 585.545 559.383 585.908L559.503 585.181C562.007 569.572 560.224 553.295 568.419 539.032C562.075 533.533 550.536 526.704 541.943 526.387ZM500.557 446.16C495.144 446.942 490.109 448.354 486.659 452.949C483.104 457.684 482.572 463.992 482.417 469.719C480.477 471.185 478.064 472.691 477.424 475.198C477.045 476.685 477.545 478.074 478.453 479.241C479.688 480.829 481.65 481.958 483.347 482.986C484.627 492.989 488.959 502.628 497.158 508.868C501.222 511.961 506.572 514.008 511.747 513.38C513.006 513.227 514.302 512.918 515.515 512.543C520.577 509.176 522.679 503.426 527.349 499.462C528.988 498.072 531.601 496.517 532.096 494.355C532.84 491.102 531.503 485.518 531.048 482.109L535.342 481.186L538.81 476.747C533.291 465.894 531.42 452.478 518.348 447.96C512.686 446.003 506.482 445.836 500.557 446.16ZM501.166 423.59C493.028 425.492 486.074 428.621 481.517 436.13C477.102 443.407 476.981 451.535 477.14 459.789C480.182 452.226 483.69 445.92 491.638 442.59C500.593 438.839 511.794 440.185 520.777 443.129C530.529 447.774 535.389 453.687 538.957 463.764Q539.537 465.408 540.096 467.059C539.879 454.397 537.555 442.408 528.037 433.323C521.317 426.908 512.395 423.198 503.068 423.505Q502.117 423.537 501.166 423.59ZM519.827 516.548C513.157 520.065 507.444 520.064 500.34 517.861Q499.017 517.448 497.708 516.994C496.634 520.47 495.139 523.459 492.985 526.403Q498.824 535.126 504.768 543.778L509.087 549.292C515.402 541.583 522.074 534.684 529.223 527.749C524.914 524.659 522.141 521.341 519.827 516.548ZM573.139 544.693C567.147 557.3 567.248 572.132 565.741 585.801Q570.487 586.568 575.217 587.432C577.246 587.934 579.276 588.491 581.326 588.899C582.222 575.566 583.696 556.752 574.406 545.854C574.009 545.387 573.643 545.038 573.139 544.693ZM445.899 554.636C442.619 561.877 435.7 579.521 438.734 587.234C439.209 588.441 440 589.123 441.212 589.533C443.868 590.43 447.65 590.043 450.451 590.006L456.808 589.42C456.228 580.883 454.195 561.749 447.514 555.65C446.696 554.902 446.934 555.11 445.899 554.636Z"/>
	<path fill="#090909" d="M316.662 271.645C330.62 271.823 380.058 270.849 389.58 275.301C393.253 277.018 394.796 281.863 395.977 285.468C396.543 287.193 396.75 288.371 395.882 290.072C393.342 292.276 389.574 291.532 386.439 291.401C370.541 289.912 353.918 289.968 337.949 290.03C327.543 290.071 316.453 290.796 306.198 289.018C305.853 288.475 305.792 288.453 305.598 287.736C304.879 285.07 306.811 279.04 308.289 276.821C310.334 273.751 313.158 272.393 316.662 271.645ZM316.28 276.566C313.487 278.922 312.222 281.021 310.833 284.374C313.48 284.859 315.92 285.165 318.623 285.193C320.16 284.479 320.771 283.59 321.388 282.012C322.092 280.213 322.671 278.341 323.279 276.507L316.28 276.566ZM378.713 277.945C379.748 280.855 380.7 283.854 381.943 286.681C384.785 286.753 387.475 286.741 390.307 286.407C389.718 283.774 389.133 281.121 386.722 279.552C384.473 278.088 381.311 278.108 378.713 277.945Z"/>
	<path fill="#090909" d="M274.014 134.628C283.485 134.011 293.077 134.577 302.557 134.856L346.54 136.297L393.621 137.766C402.92 138.041 412.344 138.044 421.612 138.843C424.727 139.111 428.989 139.496 431.682 141.147C436.046 143.823 437.769 147.274 438.72 152.126C440.663 162.045 439.537 173.714 439.517 183.839Q439.578 207.212 438.716 230.569C438.476 237.217 438.651 244.29 437.651 250.846C437.287 253.228 436.709 255.267 435.285 257.243C432.411 261.234 427.838 263.048 423.145 263.808C410.504 264.724 397.201 263.724 384.5 263.657Q344.411 263.77 304.341 262.548C294.026 262.242 280.555 263.145 270.785 260.147C266.292 258.769 262.885 256.592 260.708 252.335Q259.812 250.538 259.269 248.605Q258.726 246.672 258.556 244.671C257.349 231.486 258.617 217.634 258.867 204.389C259.166 188.613 258.762 172.708 259.897 156.965C260.159 153.328 260.395 149.166 261.676 145.724C263.819 139.965 268.638 136.913 274.014 134.628ZM274.103 147.389Q272.907 177.279 272.489 207.19C272.345 215.125 272.708 223.201 272.227 231.112L385.369 233.687C393.381 233.817 414.557 235.289 420.908 233.906C422.284 216.67 422.274 199.299 422.629 182.018C422.83 172.207 423.621 162.371 423.554 152.562C398.726 150.517 373.615 149.805 348.717 149.033Q311.422 147.688 274.103 147.389ZM362.249 248.134C361.556 249.582 361.021 250.511 361.301 252.172C362.477 253.899 363.852 254.186 365.769 254.594C366.391 253.032 366.958 251.92 366.576 250.201C365.378 248.686 364.082 248.443 362.249 248.134Z"/>
	<path fill="#090909" d="M343.151 159.234C346.899 159.205 353.54 158.348 356.495 160.98C359.686 163.821 358.553 172.575 358.505 176.525C364.461 176.429 370.323 176.148 376.157 177.572C376.798 181.203 377.095 185.103 377.084 188.789C377.077 191.414 376.865 194.448 374.783 196.332C371.238 199.538 362.049 198.08 357.565 197.917C357.469 202.131 358.694 210.561 355.574 213.67C353.679 215.558 350.493 215.078 348.028 215.074C344.464 215.043 337.449 215.728 334.943 212.73C332.558 209.877 335.228 205.321 335.237 202.062C335.241 200.504 334.565 199.049 333.476 197.948C329.399 193.825 325.261 198.721 320.956 197.902C320.178 197.754 319.481 197.368 318.996 196.75C315.498 192.29 317.18 181.978 317.711 176.625Q326.766 176.222 335.83 176.107Q335.597 172.125 335.427 168.14C335.319 165.287 335.495 162.363 337.7 160.269C338.944 159.086 341.49 159.293 343.151 159.234Z"/>
	<path fill="#090909" d="M599.689 770.232C600.742 770.361 602.307 770.52 603.04 771.311C605.749 774.233 608.956 804.312 608.806 809.377C607.752 809.189 606.714 808.964 605.669 808.733C605.059 808.299 604.686 807.92 604.402 807.213C602.127 801.554 598.905 780.164 598.87 773.743C598.863 772.443 599.222 771.43 599.689 770.232Z"/>
	<path fill="#090909" d="M735.756 729.222C737.658 729.109 739.486 728.962 741.01 730.325C742.525 731.679 742.663 734.316 742.807 736.245C743.033 739.264 743.472 745.589 740.926 747.722C739.55 748.874 736.836 749.075 735.103 749.272C728.131 750.066 720.899 750.039 713.882 750.385Q696.299 751.333 678.727 752.474C677.106 752.495 674.809 752.539 673.41 751.617C671.905 750.626 671.561 748.659 671.346 747.015C670.895 743.551 670.411 737.093 672.752 734.343C673.731 733.192 675.678 732.987 677.109 732.787C684.244 731.794 691.794 731.956 699.003 731.575Q717.387 730.518 735.756 729.222ZM726.073 738.214C715.426 738.771 686.244 738.983 678.266 742.491L677.907 742.927C679.126 744.176 681.859 744.505 683.553 744.549C685.454 744.598 687.391 744.466 689.291 744.38C697.75 743.797 730.05 743.129 735.711 739.86C735.35 738.967 735.35 739.13 734.492 738.782C731.644 737.627 729.054 737.975 726.073 738.214Z"/>
	<path fill="#090909" d="M747.151 778.207C749.132 778.067 751.23 777.733 753.168 778.246C753.936 778.883 754.459 779.414 754.824 780.345C756.417 784.42 756.411 791.904 754.749 795.977C753.282 797.39 751.704 797.679 749.741 797.966C743.843 798.827 737.496 798.637 731.522 798.899C714.278 799.655 696.79 799.586 679.623 801.333C677.448 801.547 674.754 801.624 672.898 800.266C671.397 799.168 671.158 797.359 670.847 795.653C670.231 792.27 669.605 786.332 672.125 783.626C673.662 781.975 677.298 781.725 679.441 781.47C687.033 780.567 694.844 780.734 702.489 780.414Q724.827 779.455 747.151 778.207ZM734.019 786.71C722.434 787.483 710.823 787.776 699.223 788.272C694.555 788.471 689.979 788.215 685.328 788.896C682.957 789.242 679.21 789.82 677.617 791.637C681 794.451 688.766 792.457 692.875 792.515C701.077 792.275 744.574 791.831 748.968 789.23L749.02 788.338C746.18 785.706 741.714 786.376 738.103 786.512Q736.06 786.592 734.019 786.71Z"/>
	<path fill="#090909" d="M737.564 753.293C741.945 752.986 749.213 751.581 752.929 754.245C754.6 755.443 755.224 757.224 755.448 759.192C755.916 763.311 756.26 769.26 753.596 772.636C746.263 776.189 696.936 777.083 685.445 777.532C685.179 777.58 684.913 777.632 684.646 777.676C681.24 778.224 674.566 779.698 671.67 777.157C670.109 775.789 669.908 774.456 669.639 772.476C668.997 767.736 668.65 761.763 671.649 757.793C677.23 754.583 728.419 753.692 737.564 753.293ZM736.11 761.285L701.061 763.036C695.089 763.326 688.771 763.211 682.866 764.051C681.028 764.312 678.632 764.764 677.235 766.071C676.613 766.653 676.831 766.965 676.846 767.738C677.943 769.157 678.945 769.722 680.745 769.914C683.613 770.22 686.737 769.528 689.623 769.373C701.838 768.314 714.242 768.027 726.502 767.634C732.944 767.428 739.785 767.727 746.154 766.683C747.192 766.512 747.711 766.193 748.42 765.437C748.639 764.174 748.765 763.588 747.887 762.475C746.642 760.896 744.747 760.795 742.939 760.874Q739.522 761.038 736.11 761.285Z"/>
	<path fill="#090909" d="M649.892 756.799C653.509 756.44 657.848 755.561 660.885 758.114C664.768 761.377 664.249 779.115 664.48 784.746C664.687 789.781 666.064 800.694 662.561 804.497C661.271 804.814 661.205 804.725 659.969 804.198C656.272 799.08 656.374 771.525 655.665 763.546C646.78 763.538 637.178 763.942 628.375 765.094C628.48 774.9 631.704 796.107 630.121 804.023C629.838 805.436 628.99 806.767 628.265 807.993C645.025 807.047 758.135 799.442 763.681 803.767C764.19 805.268 764.423 806.625 764.517 808.209C764.953 815.573 764.385 823.234 764.423 830.643C764.477 841.235 765.541 852.965 764.19 863.411C763.859 865.97 763.174 869.4 761.271 871.302C757.516 875.054 751.116 874.253 746.321 874.106C745.708 875.893 744.896 877.617 744.139 879.347C741.038 883.8 736.922 887.526 731.743 889.369C725.788 891.489 718.939 890.826 713.341 887.967C707.058 884.758 703.381 879.491 701.335 872.899C686.934 872.746 672.515 872.954 658.113 873.016C655.665 879.927 652.318 885.799 645.498 889.257C639.824 892.135 633.023 892.417 627.036 890.362C618.597 887.466 614.067 881.136 610.234 873.579C603.41 873.406 590.395 876.168 585.043 871.099C582.299 868.501 581.666 864.111 581.497 860.52C581.203 854.303 581.551 847.808 582.179 841.614C584.633 817.411 597.478 812.288 619.539 809.22C621.554 808.939 625.398 808.845 626.769 807.335C626.534 807.267 625.733 807.041 625.538 806.951C625.29 806.836 625.067 806.673 624.832 806.534L624.571 806.666C622.673 802.388 622.757 795.543 622.347 790.86C621.813 784.75 619.46 762.885 622.97 758.702C631.11 756.115 641.353 757.184 649.892 756.799ZM747.626 809.284Q709.59 810.639 671.57 812.392C653.26 813.213 634.504 813.289 616.48 816.9C609.174 818.364 599.681 820.588 594.41 826.247C589.742 831.259 589.557 839.293 589.956 845.76Q590.178 848.866 590.532 851.96C594.73 852.189 611.735 853.956 614.564 851.291C615.002 850.879 615.15 850.685 615.59 850.192C621.785 844.928 628.644 841.816 636.981 842.618C644.472 843.338 650.498 847.249 655.073 853.059C655.196 853.215 655.31 853.377 655.429 853.537Q679.174 853.397 702.897 852.366C708.273 846.348 713.899 841.413 722.382 840.784C730.234 840.201 736.205 843.598 741.921 848.541C746.491 848.513 751.116 848.636 755.677 848.383Q757.397 828.72 756.255 809.016C753.38 809.078 750.496 809.091 747.626 809.284ZM632.559 850.548C627.115 852.034 622.358 854.069 619.348 859.178Q619.134 859.549 618.939 859.932Q618.744 860.314 618.569 860.705Q618.394 861.097 618.239 861.497Q618.085 861.897 617.951 862.305Q617.818 862.713 617.706 863.126Q617.593 863.54 617.503 863.96Q617.412 864.379 617.343 864.802Q617.274 865.226 617.228 865.652Q617.181 866.078 617.156 866.507Q617.132 866.935 617.129 867.364Q617.127 867.793 617.146 868.221Q617.166 868.65 617.208 869.077Q617.25 869.504 617.314 869.928Q617.378 870.352 617.464 870.772Q617.549 871.192 617.657 871.608Q617.764 872.023 617.893 872.432Q618.021 872.854 618.17 873.268Q618.319 873.682 618.49 874.089Q618.66 874.495 618.851 874.892Q619.042 875.289 619.253 875.675Q619.465 876.062 619.695 876.437Q619.926 876.812 620.176 877.175Q620.426 877.538 620.694 877.887Q620.962 878.237 621.248 878.572Q621.534 878.907 621.836 879.227Q622.139 879.547 622.458 879.851Q622.777 880.155 623.111 880.443Q623.444 880.73 623.793 881Q624.141 881.269 624.503 881.521Q624.864 881.772 625.239 882.005Q625.613 882.237 625.998 882.45Q626.384 882.663 626.78 882.856C630.368 884.599 633.751 884.73 637.635 884.704C643.07 882.879 647.534 880.388 650.151 874.987Q650.529 874.193 650.825 873.366Q651.121 872.539 651.333 871.686Q651.545 870.833 651.67 869.963Q651.796 869.093 651.833 868.215Q651.87 867.337 651.82 866.46Q651.769 865.583 651.63 864.715Q651.492 863.847 651.267 862.997Q651.042 862.148 650.733 861.325Q650.449 860.554 650.089 859.816Q649.729 859.078 649.297 858.38Q648.865 857.682 648.364 857.031Q647.864 856.38 647.3 855.783Q646.737 855.186 646.116 854.648Q645.495 854.111 644.823 853.639Q644.151 853.166 643.436 852.764Q642.72 852.362 641.967 852.034C638.925 850.683 635.846 850.358 632.559 850.548ZM720.237 850.061C715.444 851.48 711.336 853.81 708.78 858.269Q708.377 858.973 708.043 859.712Q707.71 860.452 707.45 861.22Q707.191 861.988 707.007 862.778Q706.823 863.568 706.717 864.372Q706.611 865.177 706.583 865.987Q706.556 866.798 706.607 867.607Q706.659 868.417 706.789 869.217Q706.919 870.018 707.126 870.802C708.386 875.413 711.829 879.337 716.035 881.522C719.906 883.533 723.528 883.682 727.762 883.472C733.147 881.24 737.558 878.641 740.039 873.04Q740.373 872.28 740.63 871.491Q740.886 870.702 741.064 869.891Q741.241 869.08 741.337 868.256Q741.433 867.432 741.447 866.602Q741.461 865.772 741.392 864.945Q741.324 864.118 741.174 863.302Q741.024 862.486 740.793 861.689Q740.563 860.891 740.255 860.121Q739.965 859.38 739.602 858.671Q739.239 857.963 738.805 857.295Q738.372 856.628 737.873 856.007Q737.374 855.387 736.815 854.821Q736.256 854.254 735.642 853.747Q735.028 853.24 734.366 852.798Q733.704 852.356 733.001 851.984Q732.298 851.611 731.56 851.312C727.93 849.807 724.097 849.728 720.237 850.061Z"/>
	<path fill="#090909" d="M721.561 856.589C722.983 856.662 724.426 856.725 725.829 856.986C728.757 857.53 731.636 858.999 733.266 861.58Q733.489 861.937 733.675 862.314Q733.861 862.691 734.008 863.086Q734.154 863.48 734.26 863.887Q734.366 864.294 734.431 864.71Q734.495 865.125 734.517 865.545Q734.539 865.965 734.518 866.386Q734.497 866.806 734.434 867.222Q734.371 867.638 734.266 868.045C733.253 872.12 730.269 874.354 726.855 876.404C724.551 876.676 722.454 876.851 720.272 875.899Q719.764 875.676 719.282 875.403Q718.799 875.13 718.347 874.809Q717.894 874.489 717.477 874.125Q717.059 873.76 716.68 873.355Q716.301 872.951 715.965 872.51Q715.629 872.069 715.339 871.596Q715.049 871.123 714.809 870.624Q714.568 870.124 714.379 869.603C713.454 867.051 713.523 864.314 714.689 861.855C716.118 858.841 718.569 857.677 721.561 856.589Z"/>
	<path fill="#090909" d="M632.291 857.541C633.587 857.506 634.952 857.482 636.219 857.781C639.054 858.452 641.7 860.17 643.161 862.726Q643.412 863.169 643.615 863.635Q643.819 864.101 643.973 864.586Q644.127 865.071 644.23 865.569Q644.334 866.068 644.385 866.574Q644.436 867.08 644.435 867.589Q644.433 868.098 644.379 868.604Q644.325 869.11 644.219 869.607Q644.113 870.105 643.956 870.589C642.782 874.326 640.198 876.173 636.89 877.964C635.544 877.982 634.119 878.045 632.796 877.766C629.965 877.17 627.235 875.289 625.82 872.754Q625.574 872.309 625.375 871.842Q625.176 871.374 625.025 870.889Q624.874 870.404 624.774 869.906Q624.674 869.407 624.625 868.901Q624.576 868.396 624.579 867.887Q624.582 867.379 624.636 866.874Q624.691 866.369 624.797 865.872Q624.903 865.375 625.059 864.891C626.291 860.957 628.822 859.313 632.291 857.541Z"/>
	<path fill="#090909" d="M677.592 133.176C681.816 133.416 685.744 133.982 688.945 137.057C695.928 143.763 692.962 160.692 693.182 169.93C698.757 171.53 703.832 173.321 708.918 176.128L709.679 175.25C715.512 168.575 724.907 156.957 734.274 156.571Q734.983 156.543 735.692 156.586Q736.401 156.629 737.101 156.742Q737.802 156.856 738.488 157.04Q739.174 157.223 739.838 157.474Q740.501 157.726 741.137 158.042Q741.772 158.359 742.373 158.737Q742.973 159.116 743.533 159.553Q744.092 159.99 744.605 160.481Q745.07 160.924 745.488 161.412Q745.907 161.899 746.275 162.426Q746.642 162.952 746.956 163.513Q747.269 164.074 747.526 164.663Q747.782 165.252 747.978 165.864Q748.174 166.475 748.308 167.104Q748.442 167.732 748.513 168.37Q748.584 169.009 748.591 169.651C748.727 180.048 735.489 187.224 728.984 194.184C731.82 199.766 733.972 205.651 736.015 211.558C742.789 210.113 750.906 208.719 757.786 209C762.259 209.183 766.283 210.882 769.231 214.314Q769.766 214.936 770.235 215.608Q770.705 216.28 771.104 216.996Q771.504 217.712 771.829 218.465Q772.155 219.217 772.403 219.999Q772.651 220.78 772.819 221.583Q772.987 222.385 773.074 223.201Q773.161 224.016 773.165 224.836Q773.169 225.656 773.091 226.472C772.731 230.233 770.916 233.881 767.918 236.229C760.03 242.406 745.818 238.107 736.525 237.154C734.33 243.225 731.507 249.001 728.514 254.709C732.219 257.846 736.075 260.908 739.6 264.243C743.681 268.104 747.555 272.81 747.564 278.723C747.571 282.645 745.867 286.368 743.116 289.127Q742.566 289.689 741.961 290.19Q741.356 290.691 740.702 291.127Q740.048 291.563 739.352 291.928Q738.656 292.293 737.926 292.584Q737.196 292.875 736.44 293.088Q735.684 293.302 734.909 293.435Q734.135 293.569 733.35 293.621Q732.566 293.673 731.781 293.643C722.246 293.224 713.779 281.45 707.795 275.037C703.117 277.077 698.298 278.746 693.496 280.467C693.637 288.989 695.37 302.283 690.322 309.644C687.742 313.406 684.171 314.828 679.861 315.739L679.073 315.71C674.55 315.529 670.271 314.708 667.155 311.105C660.926 303.899 663.615 288.659 664.256 279.871C658.943 278.89 654.169 277.033 649.226 274.888C645.724 278.593 642.147 282.289 638.41 285.759C633.9 289.947 628.18 294.868 621.614 294.403C618.089 294.154 615.138 292.426 612.857 289.782C610.148 286.642 608.393 282.956 608.809 278.752C609.771 269.035 622.565 260.624 629.494 255.019C626.462 250.221 624.303 244.687 622.067 239.479C618.84 239.366 615.535 239.304 612.318 239.594C605.401 240.216 597.102 242.54 591.101 237.792Q590.447 237.277 589.85 236.697Q589.252 236.118 588.717 235.48Q588.181 234.843 587.713 234.155Q587.246 233.466 586.851 232.734Q586.455 232.001 586.137 231.232Q585.819 230.463 585.58 229.665Q585.342 228.868 585.186 228.05Q585.031 227.232 584.959 226.403C584.558 222.114 585.868 217.739 588.797 214.544C595.558 207.169 605.666 210.511 614.262 211.385C616.996 211.662 619.768 211.512 622.509 211.391C624.42 206.071 626.558 200.96 629.216 195.966C625.81 191.331 620.815 187.949 616.482 184.225C612.577 180.869 609.204 177.147 608.96 171.717C608.784 167.792 610.391 163.93 613.137 161.147Q613.643 160.631 614.197 160.167Q614.752 159.704 615.35 159.297Q615.947 158.891 616.582 158.546Q617.217 158.201 617.883 157.92Q618.549 157.639 619.24 157.426Q619.931 157.213 620.639 157.069Q621.347 156.925 622.066 156.852Q622.785 156.779 623.508 156.778C633.561 156.798 643.026 169.305 649.379 175.896C654.586 173.797 659.843 171.953 665.159 170.154C665.891 161.052 662.997 146.492 668.163 138.729C670.444 135.3 673.69 133.959 677.592 133.176ZM673.581 190.581C662.783 193.196 653.724 198.321 647.873 208.05C643.301 215.651 641.665 224.552 643.885 233.19C646.252 242.394 652.154 250.826 660.45 255.583C667.581 259.671 675.611 260.966 683.711 259.79C694.226 257.729 703.336 252.999 709.386 243.873Q709.857 243.161 710.293 242.427Q710.729 241.692 711.128 240.937Q711.527 240.182 711.889 239.409Q712.25 238.635 712.574 237.845Q712.897 237.055 713.181 236.249Q713.465 235.444 713.71 234.626Q713.954 233.808 714.158 232.979Q714.362 232.149 714.525 231.311Q714.688 230.473 714.81 229.628Q714.931 228.783 715.011 227.932Q715.091 227.082 715.13 226.229Q715.168 225.376 715.164 224.522Q715.161 223.668 715.115 222.816Q715.07 221.963 714.983 221.114Q714.896 220.264 714.767 219.42Q714.638 218.576 714.468 217.739C712.558 208.771 706.791 200.852 699.084 195.945C691.207 190.93 682.709 190.031 673.581 190.581Z"/>
	<path fill="#090909" d="M346.405 720.674C355.166 719.865 362.673 723.414 369.626 728.358C377.562 734.002 384.744 740.628 392.446 746.571C402.869 754.613 415.731 761.839 424.356 771.829C427.617 775.605 429.877 779.931 430.683 784.893C431.953 792.708 429.708 799.484 425.201 805.779C420.942 811.727 416.107 817.34 411.561 823.074Q398.851 839.042 386.369 855.188L367.28 880.154C362.827 886.006 358.229 892.912 352.717 897.783C347.833 902.1 341.905 904.368 335.551 905.424C328.743 905.241 322.891 903.49 317.107 899.888C309.175 894.947 302.364 888.202 295 882.462C282.71 872.881 268.414 864.387 257.891 852.827C254.749 849.375 252.117 845.383 251.142 840.752C249.493 832.923 251.291 825.842 255.755 819.349C260.052 813.097 265.097 807.28 269.789 801.317L298.503 765.041C306.482 754.979 319.311 736.286 328.247 728.587C333.559 724.011 339.631 721.96 346.405 720.674ZM344.892 727.533C340.365 729.082 336.433 730.803 332.91 734.178C326.208 740.6 320.617 748.543 314.886 755.821L288.397 789.382L271.281 810.808C267.258 815.807 262.068 821.156 259.237 826.934C257.115 831.267 256.337 835.83 258.048 840.447C259.372 844.021 261.843 847.129 264.537 849.783C275.173 860.262 288.483 868.785 300.3 877.871C308.298 884.021 315.602 892.527 324.948 896.568C329.048 898.34 332.774 898.703 337.185 898.515C341.866 897.15 345.617 895.606 349.16 892.098C354.61 886.701 358.927 880.349 363.478 874.211Q372.857 861.469 382.453 848.89L408.756 815.462C413.255 809.798 418.741 804.186 422.289 797.876C424.491 793.962 425.122 788.749 423.8 784.457C422.667 780.777 420.373 777.568 417.678 774.862C409.439 766.59 396.087 758.127 386.509 750.862C377.663 744.152 368.611 735.181 358.693 730.287C354.154 728.047 349.947 727.204 344.892 727.533Z"/>
	<path fill="#090909" d="M376.701 762.289C378.466 762.665 379.3 763.028 380.339 764.54C380.438 766.165 380.175 767.143 379.32 768.542C369.844 784.047 354.786 801.015 343.225 815.573C329.665 832.648 316.756 850.292 302.74 866.994C302.279 866.843 301.814 866.705 301.365 866.523C299.95 865.952 299.253 865.278 298.685 863.885C299.742 859.508 304.034 854.386 306.668 850.801C313.385 841.66 320.971 833.156 327.939 824.203L356.542 787.272C361.949 780.216 369.925 767.332 376.701 762.289Z"/>
	<path fill="#090909" d="M344.598 733.599C348.281 733.659 352.155 734.49 355.445 736.138C360.61 738.727 364.703 743.287 366.309 748.88Q366.443 749.356 366.553 749.839Q366.664 750.321 366.75 750.808Q366.836 751.296 366.897 751.787Q366.959 752.278 366.996 752.771Q367.033 753.265 367.045 753.759Q367.058 754.254 367.045 754.749Q367.033 755.243 366.996 755.737Q366.959 756.23 366.897 756.721Q366.836 757.212 366.75 757.699Q366.664 758.187 366.554 758.669Q366.443 759.151 366.309 759.628Q366.175 760.104 366.017 760.573Q365.86 761.042 365.679 761.503Q365.498 761.963 365.294 762.414Q365.09 762.865 364.865 763.305Q364.639 763.746 364.391 764.174C361.009 770.041 355.84 772.857 349.511 774.529C344.599 774.489 339.811 773.768 335.552 771.139Q335.132 770.88 334.725 770.601Q334.319 770.321 333.927 770.022Q333.535 769.722 333.159 769.402Q332.783 769.083 332.424 768.745Q332.065 768.407 331.723 768.052Q331.381 767.696 331.058 767.323Q330.735 766.95 330.431 766.562Q330.127 766.173 329.843 765.77Q329.559 765.366 329.296 764.949Q329.033 764.532 328.792 764.101Q328.551 763.671 328.331 763.229Q328.112 762.787 327.915 762.335Q327.719 761.883 327.545 761.421Q327.372 760.959 327.222 760.489Q327.073 760.019 326.947 759.542Q326.821 759.065 326.72 758.582C325.531 752.963 326.556 746.702 329.876 741.968C333.49 736.816 338.67 734.769 344.598 733.599ZM344.164 741.111C339.933 742.462 336.601 744.401 334.601 748.544C332.957 751.948 332.955 755.973 334.328 759.464Q334.564 760.076 334.859 760.662Q335.154 761.248 335.505 761.801Q335.857 762.355 336.261 762.872Q336.666 763.388 337.119 763.862Q337.573 764.336 338.071 764.763Q338.568 765.19 339.106 765.565Q339.644 765.941 340.216 766.262Q340.788 766.582 341.389 766.845C344.071 768.006 346.684 768.027 349.542 767.765C353.984 765.875 357.569 763.597 359.359 758.832Q359.584 758.218 359.746 757.584Q359.907 756.95 360.004 756.303Q360.101 755.656 360.132 755.002Q360.163 754.349 360.128 753.695Q360.093 753.042 359.992 752.396Q359.891 751.749 359.725 751.116Q359.559 750.484 359.33 749.871Q359.102 749.258 358.812 748.671C357.235 745.429 354.386 743.039 350.985 741.882C348.845 741.154 346.413 740.952 344.164 741.111Z"/>
	<path fill="#090909" d="M332.848 853.665C336.812 853.677 340.875 854.56 344.301 856.605C349.25 859.557 352.758 864.655 353.989 870.264C355.225 875.899 353.811 881.832 350.56 886.552C347.086 891.597 342.353 894.085 336.486 895.284C331.83 895.224 327.631 894.674 323.551 892.25Q323.119 891.996 322.701 891.72Q322.283 891.444 321.88 891.148Q321.477 890.851 321.089 890.534Q320.701 890.217 320.33 889.88Q319.959 889.544 319.606 889.189Q319.252 888.834 318.918 888.462Q318.583 888.089 318.268 887.7Q317.952 887.311 317.657 886.906Q317.362 886.502 317.088 886.083Q316.814 885.664 316.562 885.231Q316.31 884.798 316.08 884.353Q315.85 883.908 315.643 883.452Q315.436 882.996 315.253 882.53Q315.07 882.064 314.911 881.589Q314.752 881.114 314.617 880.632Q314.482 880.15 314.372 879.661C313.104 874.053 314.168 867.684 317.337 862.873C321.054 857.231 326.464 854.881 332.848 853.665ZM331.29 860.559C326.917 862.311 323.693 864.286 321.723 868.832Q321.425 869.502 321.198 870.2Q320.971 870.897 320.816 871.615Q320.661 872.332 320.58 873.061Q320.5 873.79 320.494 874.524Q320.489 875.257 320.559 875.987Q320.628 876.718 320.772 877.437Q320.916 878.156 321.133 878.857Q321.35 879.558 321.638 880.233C323.226 883.903 326.282 886.548 330.04 887.832C332.244 888.585 334.314 888.583 336.604 888.406C341.152 886.259 344.788 883.709 346.519 878.713Q346.751 878.045 346.914 877.356Q347.076 876.667 347.168 875.966Q347.259 875.264 347.278 874.557Q347.297 873.85 347.243 873.144Q347.189 872.439 347.064 871.743Q346.938 871.046 346.742 870.366Q346.546 869.687 346.281 869.031Q346.017 868.375 345.686 867.749C343.824 864.219 340.673 862.065 336.88 861.021C335.025 860.51 333.196 860.43 331.29 860.559Z"/>
	<path fill="#090909" d="M309.896 774.614C313.954 774.272 318.106 774.773 321.85 776.425Q322.302 776.622 322.744 776.842Q323.186 777.061 323.616 777.302Q324.047 777.542 324.465 777.804Q324.883 778.066 325.288 778.348Q325.693 778.63 326.083 778.932Q326.473 779.233 326.848 779.554Q327.223 779.874 327.582 780.213Q327.941 780.551 328.283 780.907Q328.624 781.263 328.948 781.635Q329.272 782.007 329.577 782.395Q329.882 782.783 330.167 783.185Q330.453 783.587 330.718 784.003Q330.983 784.419 331.228 784.847Q331.472 785.276 331.696 785.716Q331.919 786.156 332.12 786.606Q332.321 787.056 332.5 787.516Q332.686 788.001 332.847 788.495Q333.008 788.988 333.143 789.49Q333.278 789.991 333.388 790.499Q333.498 791.006 333.581 791.519Q333.665 792.031 333.722 792.548Q333.779 793.064 333.81 793.582Q333.841 794.101 333.845 794.62Q333.85 795.139 333.828 795.658Q333.805 796.177 333.757 796.694Q333.708 797.211 333.633 797.725Q333.558 798.239 333.457 798.748Q333.355 799.257 333.228 799.761Q333.101 800.265 332.949 800.761Q332.796 801.257 332.618 801.745Q332.441 802.233 332.238 802.711Q332.036 803.19 331.809 803.657C328.727 809.896 323.458 813.062 317.131 815.223C312.349 815.634 307.941 815.349 303.568 813.136Q303.116 812.905 302.676 812.651Q302.236 812.397 301.809 812.121Q301.382 811.845 300.97 811.548Q300.558 811.251 300.161 810.934Q299.764 810.617 299.384 810.28Q299.003 809.944 298.64 809.588Q298.277 809.233 297.933 808.859Q297.588 808.486 297.262 808.096Q296.937 807.706 296.632 807.3Q296.326 806.894 296.042 806.473Q295.757 806.052 295.494 805.618Q295.231 805.183 294.99 804.736Q294.749 804.288 294.531 803.83Q294.313 803.371 294.118 802.902Q293.923 802.432 293.753 801.954Q293.582 801.475 293.435 800.989Q293.28 800.484 293.151 799.972Q293.022 799.459 292.918 798.941Q292.815 798.423 292.738 797.901Q292.661 797.378 292.61 796.852Q292.559 796.326 292.535 795.799Q292.511 795.271 292.513 794.743Q292.515 794.214 292.544 793.687Q292.573 793.159 292.629 792.634Q292.684 792.109 292.766 791.587Q292.848 791.065 292.956 790.548Q293.064 790.03 293.197 789.519Q293.331 789.008 293.491 788.505Q293.65 788.001 293.835 787.506Q294.019 787.011 294.228 786.526Q294.437 786.041 294.671 785.567Q294.904 785.093 295.161 784.631C298.444 778.766 303.669 776.241 309.896 774.614ZM310.714 781.593C306.373 783.247 303.079 785.06 301.091 789.538C299.6 792.898 299.692 796.96 301.099 800.331Q301.364 800.975 301.694 801.589Q302.025 802.202 302.418 802.777Q302.811 803.353 303.262 803.884Q303.713 804.415 304.218 804.896Q304.722 805.377 305.274 805.802Q305.825 806.228 306.419 806.593Q307.012 806.958 307.64 807.26Q308.269 807.561 308.925 807.795C311.138 808.599 313.298 808.577 315.613 808.426C320.23 806.477 323.899 804.254 325.804 799.299Q326.034 798.687 326.203 798.056Q326.372 797.425 326.479 796.781Q326.586 796.136 326.63 795.485Q326.674 794.833 326.654 794.18Q326.634 793.527 326.55 792.879Q326.467 792.231 326.321 791.594Q326.175 790.957 325.967 790.338Q325.76 789.718 325.493 789.122C324.001 785.825 321.138 783.446 317.731 782.304C315.438 781.536 313.106 781.462 310.714 781.593Z"/>
	<path fill="#090909" d="M394.299 772.627C399.167 772.43 403.499 773.025 407.744 775.628Q408.193 775.909 408.628 776.213Q409.062 776.517 409.481 776.843Q409.899 777.169 410.3 777.515Q410.701 777.862 411.084 778.229Q411.467 778.596 411.83 778.982Q412.194 779.367 412.537 779.771Q412.88 780.176 413.203 780.597Q413.525 781.018 413.825 781.455Q414.125 781.892 414.403 782.343Q414.68 782.795 414.934 783.261Q415.188 783.726 415.418 784.204Q415.648 784.682 415.853 785.17Q416.058 785.659 416.238 786.158Q416.418 786.657 416.572 787.164Q416.726 787.672 416.854 788.186Q416.982 788.701 417.083 789.221Q417.186 789.753 417.262 790.29Q417.339 790.826 417.388 791.366Q417.438 791.905 417.46 792.447Q417.483 792.988 417.478 793.53Q417.474 794.072 417.442 794.613Q417.411 795.154 417.353 795.693Q417.294 796.232 417.209 796.767Q417.124 797.302 417.013 797.832Q416.901 798.363 416.763 798.887Q416.625 799.411 416.461 799.927Q416.297 800.444 416.108 800.952Q415.919 801.459 415.704 801.957Q415.49 802.455 415.251 802.941Q415.012 803.428 414.749 803.901Q414.486 804.375 414.2 804.835Q413.914 805.296 413.605 805.741C410.16 810.675 405.374 812.936 399.618 813.927C395.423 814.189 391.381 813.654 387.608 811.713Q387.161 811.477 386.725 811.22Q386.29 810.963 385.868 810.685Q385.445 810.407 385.037 810.108Q384.629 809.81 384.236 809.492Q383.842 809.174 383.465 808.837Q383.088 808.5 382.728 808.146Q382.367 807.791 382.025 807.419Q381.682 807.047 381.358 806.659Q381.034 806.27 380.73 805.867Q380.425 805.463 380.14 805.045Q379.856 804.627 379.592 804.196Q379.328 803.764 379.086 803.321Q378.843 802.877 378.623 802.422Q378.402 801.967 378.204 801.501Q378.006 801.036 377.831 800.562Q377.656 800.087 377.504 799.605Q377.345 799.092 377.213 798.571Q377.08 798.05 376.975 797.523Q376.87 796.996 376.791 796.465Q376.713 795.933 376.663 795.398Q376.612 794.863 376.589 794.327Q376.566 793.79 376.57 793.252Q376.575 792.715 376.607 792.179Q376.639 791.642 376.699 791.108Q376.759 790.574 376.846 790.044Q376.933 789.514 377.047 788.989Q377.162 788.464 377.303 787.946Q377.444 787.427 377.612 786.917Q377.779 786.406 377.973 785.905Q378.167 785.404 378.386 784.913Q378.605 784.423 378.849 783.944Q379.094 783.465 379.362 783C382.753 777.022 387.91 774.329 394.299 772.627ZM395.408 779.51C390.732 781.15 386.915 783.241 384.698 787.955Q384.421 788.542 384.203 789.154Q383.986 789.766 383.829 790.396Q383.672 791.026 383.578 791.668Q383.483 792.31 383.452 792.959Q383.421 793.607 383.454 794.255Q383.487 794.904 383.583 795.546Q383.679 796.188 383.838 796.817Q383.996 797.447 384.216 798.058C385.562 801.71 388.487 804.479 392.031 806.001C394.111 806.894 396.357 807.182 398.594 807.377C403.146 805.88 406.74 804.338 409.151 799.872C410.896 796.639 411.119 792.632 409.95 789.169C408.704 785.476 405.99 782.605 402.447 781.016C400.205 780.011 397.846 779.589 395.408 779.51Z"/>
	<path fill="#090909" d="M278.889 815.07C283.526 814.737 288.007 815.021 292.225 817.172C297.041 819.628 300.487 824.038 302.03 829.189C303.677 834.687 303.242 840.998 300.296 845.986C297.127 851.349 292.002 854.075 286.193 855.69C281.633 856.09 277.479 855.897 273.307 853.841C268.109 851.28 264.033 846.289 262.381 840.754Q262.238 840.276 262.12 839.791Q262.002 839.306 261.909 838.816Q261.816 838.326 261.749 837.831Q261.681 837.337 261.639 836.84Q261.597 836.342 261.581 835.844Q261.564 835.345 261.574 834.846Q261.583 834.347 261.618 833.849Q261.653 833.352 261.713 832.856Q261.774 832.361 261.859 831.869Q261.945 831.378 262.056 830.891Q262.167 830.405 262.303 829.925Q262.439 829.445 262.6 828.972Q262.76 828.5 262.944 828.036Q263.129 827.572 263.337 827.119Q263.545 826.665 263.776 826.223Q264.007 825.781 264.261 825.351C267.56 819.701 272.746 816.732 278.889 815.07ZM280.989 822.091C276.722 823.01 272.939 824.68 270.526 828.516Q270.179 829.067 269.891 829.651Q269.602 830.234 269.374 830.844Q269.146 831.454 268.981 832.083Q268.816 832.713 268.717 833.357Q268.617 834 268.583 834.65Q268.548 835.3 268.581 835.95Q268.613 836.601 268.711 837.244Q268.809 837.888 268.972 838.518Q269.154 839.237 269.409 839.934Q269.663 840.632 269.986 841.299Q270.309 841.967 270.698 842.599Q271.088 843.231 271.538 843.82Q271.989 844.41 272.497 844.95Q273.005 845.491 273.566 845.978Q274.126 846.465 274.732 846.892Q275.339 847.32 275.985 847.684C278.933 849.367 281.65 849.561 284.938 849.611C289.527 847.862 293.242 845.391 295.247 840.714Q295.526 840.066 295.736 839.392Q295.947 838.719 296.086 838.027Q296.226 837.336 296.293 836.633Q296.36 835.931 296.354 835.225Q296.348 834.52 296.27 833.819Q296.191 833.118 296.04 832.428Q295.889 831.739 295.667 831.069Q295.446 830.399 295.156 829.756C293.615 826.336 290.764 823.841 287.187 822.713C285.163 822.074 283.091 821.988 280.989 822.091Z"/>
	<path fill="#090909" d="M363.386 812.152C367.883 811.901 372.23 812.49 376.188 814.752C381.154 817.591 384.552 822.564 385.868 828.084C387.207 833.704 386.458 839.961 383.297 844.86C380.021 849.939 375.305 852.135 369.647 853.475C364.358 853.608 359.845 853.526 355.146 850.676C350.286 847.729 346.905 842.646 345.779 837.102C344.641 831.505 345.754 825.426 349.017 820.713C352.509 815.668 357.485 813.157 363.386 812.152ZM362.621 819.09C358.167 821.19 354.614 823.698 352.977 828.611Q352.757 829.279 352.605 829.967Q352.454 830.654 352.372 831.353Q352.291 832.052 352.28 832.756Q352.269 833.459 352.33 834.16Q352.39 834.862 352.521 835.553Q352.651 836.245 352.851 836.919Q353.051 837.594 353.317 838.246Q353.584 838.897 353.915 839.518Q354.255 840.132 354.656 840.709Q355.057 841.286 355.513 841.82Q355.97 842.354 356.478 842.838Q356.986 843.323 357.541 843.754Q358.096 844.185 358.691 844.558Q359.286 844.931 359.916 845.242Q360.546 845.553 361.204 845.799Q361.862 846.045 362.541 846.223C364.815 846.816 367.216 846.621 369.531 846.445C373.691 844.431 376.959 842.05 378.554 837.479Q378.789 836.8 378.951 836.1Q379.114 835.399 379.203 834.686Q379.292 833.973 379.306 833.255Q379.32 832.536 379.259 831.82Q379.199 831.104 379.064 830.398Q378.929 829.692 378.721 829.004Q378.513 828.315 378.235 827.653Q377.957 826.99 377.611 826.36Q377.268 825.726 376.862 825.13Q376.456 824.534 375.991 823.983Q375.526 823.432 375.006 822.932Q374.487 822.431 373.92 821.987Q373.352 821.542 372.742 821.158Q372.131 820.774 371.485 820.455Q370.839 820.136 370.163 819.884Q369.487 819.633 368.789 819.452C366.784 818.915 364.676 818.895 362.621 819.09Z"/>
	<path fill="#090909" d="M211.717 429.057C212.327 429.158 212.894 429.264 213.485 429.449C219.015 431.189 225.093 435.992 230.071 439.089C245.475 448.673 260.583 458.643 275.768 468.563C288.718 477.023 302.435 484.996 314.845 494.194C316.231 495.221 317.769 496.315 318.476 497.944C319.333 499.915 318.792 502.533 317.886 504.407C317.157 505.915 315.993 506.994 314.358 507.431C312.227 507.999 309.839 507.431 307.87 506.562C303.43 504.603 299.501 501.116 295.473 498.414C291.318 495.626 286.929 493.124 282.625 490.57C283.528 519.856 282.625 549.424 282.559 578.739C287.597 578.729 292.922 578.305 297.892 579.221C299.221 579.466 301.675 579.968 302.523 581.173C302.442 581.933 302.564 582.681 302.019 583.262C300.347 585.04 297.97 585.17 295.677 585.374C286.669 586.176 277.184 585.221 268.127 585.097L218.801 584.844Q196.691 584.864 174.583 585.193C164.604 585.381 137.427 587.188 129.802 585.049C128.211 584.602 127.589 583.599 126.854 582.261C126.86 581.477 126.661 581.06 127.256 580.454C130.152 577.504 138.507 578.428 142.477 578.518C143.24 564.138 142.613 549.628 142.683 535.231C142.755 520.235 143.464 505.248 143.427 490.251C134.018 495.471 125.361 501.871 115.681 506.634C112.881 505.355 109.832 503.921 107.735 501.596C106.601 500.339 106.288 499.26 106.427 497.558C109.896 490.683 198.328 435.368 211.717 429.057ZM212.436 445.931C190.935 459.114 170.273 473.373 149.212 487.227C148.945 517.71 148.542 548.282 148.8 578.758L213.75 578.97L257.62 578.734C263.813 578.74 270.204 578.394 276.372 578.814L276.493 487.171C267.942 481.484 218.034 446.588 212.436 445.931Z"/>
	<path fill="#090909" d="M167.79 541.234C175.424 541.007 198.073 539.424 203.632 543.552C205.119 546.417 205.585 549.353 205.761 552.534C206.051 557.779 206.475 564.858 202.571 568.931C200.267 571.334 197.484 571.086 194.424 571.054Q185.621 570.805 176.817 571.027C172.514 571.133 167.765 571.634 163.503 571.009C161.724 570.748 159.928 570.126 158.52 568.978C156.257 567.132 155.429 564.301 155.099 561.508C154.57 557.028 154.593 546.781 157.889 543.403C160.387 540.843 164.492 541.315 167.79 541.234Z"/>
	<path fill="#090909" d="M208.795 453.597C212.64 453.37 216.722 453.743 220.387 454.966C226.911 457.143 230.307 461.324 233.354 467.184C235.823 467.594 238.401 468.026 240.315 469.766C242.496 471.749 243.861 474.641 243.83 477.602C243.811 479.456 243.203 481.268 241.818 482.555C237.081 486.958 224.337 485.223 218.111 485.03C210.137 485.3 194.784 487.107 187.796 483.924C185.772 483.003 184.828 481.41 184.114 479.375C183.002 476.209 183.203 473.205 184.746 470.212C188.76 462.426 200.798 456.186 208.795 453.597Z"/>
	<path fill="#090909" d="M161.795 502.211C169.616 501.886 195.943 500.237 202.003 503.343C203.69 504.207 204.475 505.877 204.933 507.645C206.276 512.833 207.093 524.878 204.03 529.583C202.924 531.282 201.485 531.718 199.625 532.109C191.584 532.215 163.409 533.933 158.177 530.484C156.17 529.161 155.529 527.02 155.144 524.757C154.234 519.408 153.915 508.707 157.296 504.283C158.551 502.64 159.863 502.445 161.795 502.211Z"/>
	<path fill="#090909" d="M236.665 505.215C241.935 505.02 258.381 503.945 262.29 507.874C264.773 510.371 265.607 516.802 265.887 520.247C266.533 528.205 267.647 568.208 263.736 572.557C261.591 574.942 258.561 574.785 255.625 574.89C248.539 575.05 232.363 576.584 226.643 573.096C222.127 566.449 223.856 526.868 224.728 516.991C225.21 511.537 226.539 509.274 230.657 505.793C232.63 505.493 234.675 505.399 236.665 505.215Z"/>
	<path fill="#090909" d="M806.505 422.982C807.597 422.841 808.661 422.789 809.758 422.95C814.906 423.71 817.965 428.094 820.834 431.96C824.913 431.488 833.698 428.779 837.059 431.294C838.55 432.41 839.132 434.908 840.453 435.945C841.413 436.699 864.044 432.043 872.384 437.392C875.794 439.579 876.485 442.018 877.379 445.827C879.136 453.306 879.228 461.658 879.806 469.329Q881.09 486.573 882.56 503.803L886.912 556.755C887.672 565.674 889.114 574.871 889.203 583.805C889.228 586.307 889.053 590.264 887.37 592.324C885.667 594.41 882.23 595.089 879.687 595.629C872.706 597.112 865.3 597.445 858.193 598.138L822.881 601.554C813.113 602.83 763.423 609.332 758.496 605.955C755.863 604.151 754.691 598.5 754.193 595.533C752.99 588.363 752.749 580.854 752.188 573.606L749.166 533.792C747.203 508.946 743.99 484.128 742.374 459.268C742.15 455.816 741.71 450.067 744.218 447.407C751.385 439.808 768.809 441.028 778.462 440.755C780.093 438.712 781.746 436.724 783.805 435.087C787.279 432.324 802.03 424.572 806.505 422.982ZM853.175 452.207C849.127 452.481 845.067 452.693 841.051 453.289C839.903 455.344 838.903 457.844 836.458 458.565C831.446 460.042 825.144 459.602 819.914 459.985C807.891 460.867 795.687 461.723 783.722 463.146L779.367 457.635C772.743 458.257 766.015 458.504 759.45 459.594C761.229 488.493 764.711 517.219 766.905 546.079Q767.892 559.17 768.615 572.279C768.893 577.286 768.475 583.959 769.877 588.653C771.311 589.723 772.435 589.527 774.192 589.536Q808.714 585.493 843.286 581.908C852.934 580.881 862.857 580.384 872.434 578.951C871.309 557.062 868.549 535.242 866.926 513.375L863.84 472.861C863.324 465.915 863.258 458.962 862.248 452.062C859.258 452.066 856.149 451.924 853.175 452.207ZM860.342 440.712C854.691 441.153 846.126 439.782 841.064 442.143C840.046 443.475 840.243 444.012 840.207 445.651L840.798 446.772C847.707 448.907 862.583 440.597 866.88 448.466C868.072 450.648 868.603 453.121 868.93 455.565C871.365 473.807 871.91 492.573 873.45 510.935C875.192 531.707 877.937 552.815 878.588 573.647C878.681 576.608 878.65 580.068 877.705 582.888C877.396 583.81 877.274 584.088 876.419 584.581C874.094 585.921 869.93 586.403 867.29 586.806C854.785 588.712 841.901 589.422 829.306 590.816C811.09 592.832 792.749 595.433 774.48 596.727C772.262 596.885 768.317 597.512 766.254 596.577C765.469 596.221 765.042 595.817 764.488 595.182C760.656 578.012 760.061 555.619 758.573 537.745C756.227 509.569 753.423 481.759 749.918 453.703C756.555 451.431 762.959 451.431 769.907 451.134C772.388 451.083 775.068 451.294 777.39 450.341C778.31 449.279 778.236 449.305 778.209 447.889C777.243 446.742 776.114 446.83 774.64 446.734C766.605 446.211 756.138 448.309 748.394 450.337C748.262 460.852 749.495 471.446 750.517 481.899L754.471 522.551L758.385 567.795C759.236 577.262 759.491 591.13 762.742 599.761C769.937 599.916 777.112 598.749 784.236 597.859Q797.648 596.144 811.083 594.63L847.859 590.491C855.931 589.626 864.268 589.118 872.244 587.601C874.697 587.135 878.039 586.498 879.826 584.602C883.049 581.184 881.864 574.069 881.501 569.779L874.013 481.455Q873.077 471.501 872.433 461.524C872.142 457.046 872.178 452.2 871.33 447.798C870.922 445.684 870.053 443.257 868.305 441.867C866.016 440.048 863.055 440.529 860.342 440.712ZM801.121 433.255C800.15 437.012 799.531 442.18 796.446 444.739C794.177 445.525 792.429 444.893 790.35 443.882C788.571 443.018 786.83 442.062 785.09 441.123C784.895 446.312 784.892 451.523 785.43 456.695C797.363 455.149 809.59 453.742 821.624 453.453L833.86 452.407C833.954 447.404 834.027 442.423 833.413 437.444C829.065 439.772 824.663 442.718 820.064 444.461C816.573 441.469 814.537 438.296 812.367 434.298C810.931 435.484 809.562 436.597 807.951 437.536C805.357 436.373 803.355 434.981 801.121 433.255Z"/>
	<path fill="#090909" d="M845.05 472.704C847.533 472.473 849.526 472.388 851.573 473.966C852.147 475.192 852.167 475.124 851.762 476.411C850.061 478.084 848.242 478.823 845.911 479.304C839.23 480.684 832.153 480.116 825.372 480.563Q802.466 481.982 779.622 484.195C778.622 484.406 777.591 484.427 776.572 484.358C774.995 484.253 774.192 483.727 773.194 482.554C773.166 481.168 773.149 480.853 774.117 479.743C775.156 478.553 777.327 477.866 778.818 477.607C785.897 476.381 793.712 476.357 800.894 475.856L845.05 472.704Z"/>
	<path fill="#090909" d="M849.722 499.224C849.992 499.237 850.262 499.238 850.53 499.262C852.496 499.44 853.107 500.223 854.256 501.664C854.323 502.384 854.539 502.732 854.057 503.346C850.174 508.296 791.844 510.442 780.874 511.16C779.191 511.265 778.455 511.026 777.214 509.969C776.751 508.448 776.652 508.375 777.206 506.904C778.807 505.508 780.432 505.093 782.491 504.736C790.489 503.35 799.267 503.413 807.409 502.782C821.521 501.687 835.606 500.248 849.722 499.224Z"/>
	<path fill="#090909" d="M849.182 525.7C850.34 525.557 851.585 525.351 852.741 525.585C854.401 525.919 855.377 526.812 856.159 528.246C856.083 529.087 856.205 529.454 855.623 530.133C854.338 531.633 852.461 532.088 850.601 532.467C842.433 534.128 833.349 533.953 825.005 534.529Q805.684 535.996 786.382 537.689C785.1 537.852 783.445 538.215 782.168 537.993C780.39 537.683 779.002 536.764 777.916 535.345C777.921 534.608 777.755 534.315 778.287 533.727C779.504 532.383 781.517 531.724 783.243 531.346C790.724 529.71 798.992 529.474 806.639 528.899C820.816 527.833 835.028 527.038 849.182 525.7Z"/>
	<path fill="#090909" d="M848.792 552.705C851.568 552.452 855.029 551.772 857.527 553.321C858.718 554.059 859.056 554.52 859.35 555.86C859.088 556.397 859.083 556.492 858.619 556.987C857.323 558.368 854.299 558.918 852.541 559.205C845.924 560.287 838.951 560.32 832.251 560.866Q812.177 562.526 792.121 564.393C789.43 564.648 785.099 565.584 782.489 564.976C781.109 564.655 780.919 564.249 780.144 563.174C780.102 561.801 780.038 561.123 780.922 559.95C782.052 558.451 784.438 558.064 786.157 557.741C793.055 556.445 800.571 556.517 807.59 555.995Q828.201 554.471 848.792 552.705Z"/>
</svg>
