<svg xmlns="http://www.w3.org/2000/svg" width="27" height="22" viewBox="0 0 27 22" fill="none"><g clip-path="url(#clip0_3610_3361)"><path d="M7.78583 13.5217L5.34108 14.5715L7.60521 15.5394L10.2306 14.5715L7.78583 13.5217ZM4.11029 14.8339L4.02837 19.558L7.60519 21.1327V16.2281L4.11029 14.8339ZM11.4614 14.8339L8.22897 16.0643V20.6897L11.4614 19.3775V14.8339ZM15.3175 0.136841L12.8559 1.18666L15.1369 2.15456L17.7622 1.18666L15.3175 0.136841ZM11.9045 1.53151V6.25557L14.9563 7.14158L15.055 2.84372L11.9045 1.53151ZM18.7305 1.79393L15.8426 3.02431V7.6665L18.7305 6.35426L18.7305 1.79393ZM3.75744 6.78572L1.31269 7.83551L3.57682 8.80343L6.20219 7.83551L3.75744 6.78572ZM0.0819171 8.09796L0 12.822L3.57682 14.3967V9.49208L0.0819171 8.09796ZM7.43299 8.09796L4.20062 9.32831V13.9537L7.43299 12.6415V8.09796ZM11.6336 6.61144L9.18883 7.66123L11.453 8.62916L14.0783 7.66123L11.6336 6.61144ZM7.95804 7.9237L7.87612 12.6478L11.4529 14.2225V9.31835L7.95804 7.9237ZM15.3091 7.9237L12.0767 9.15405V13.7794L15.3091 12.4672V7.9237ZM23.0104 0.136841L20.5657 1.18663L22.8298 2.15453L25.4552 1.18663L23.0104 0.136841ZM19.3349 1.44908L19.253 6.17314L22.8298 7.74783V2.84372L19.3349 1.44908ZM26.6859 1.44908L23.4536 2.67943V7.30482L26.6859 5.99258V1.44908Z" fill="#F7A80D"></path></g><defs><clipPath id="clip0_3610_3361"><rect width="26.6859" height="21" fill="white" transform="translate(0 0.134766)"></rect></clipPath></defs></svg>