<svg xmlns="http://www.w3.org/2000/svg" width="64" height="22" viewBox="0 0 64 22" fill="none"><g clip-path="url(#clip0_3610_2399)"><path d="M62.8001 17.2161C62.5021 17.2161 62.2643 16.9783 62.2643 16.6802C62.2643 16.3888 62.5021 16.1443 62.8001 16.1443C63.0915 16.1443 63.336 16.3821 63.336 16.6802C63.336 16.9716 63.0915 17.2161 62.8001 17.2161ZM62.8001 16.2482C62.5623 16.2482 62.3681 16.4424 62.3681 16.6802C62.3681 16.918 62.5623 17.1123 62.8001 17.1123C63.0379 17.1123 63.2322 16.918 63.2322 16.6802C63.2322 16.4424 63.0379 16.2482 62.8001 16.2482ZM63.0714 16.9616H62.9475L62.8403 16.7606H62.6997V16.9616H62.5858V16.3721H62.8671C62.9911 16.3721 63.0681 16.4525 63.0681 16.5664C63.0681 16.6534 63.0145 16.7171 62.9442 16.7439L63.0714 16.9616ZM62.8604 16.6534C62.904 16.6534 62.9475 16.6266 62.9475 16.5664C62.9475 16.496 62.9107 16.4793 62.8604 16.4793H62.6829V16.6568H62.8604V16.6534ZM6.84368 16.0908H8.21689V19.8319H10.6016V21.031H6.84368V16.0908ZM12.0217 18.5726V18.5558C12.0217 17.1391 13.1671 15.9836 14.6911 15.9836C16.215 15.9836 17.3403 17.119 17.3403 18.5357V18.5525C17.3403 19.9692 16.1949 21.1247 14.671 21.1247C13.147 21.1247 12.0217 19.9893 12.0217 18.5726ZM15.947 18.5726V18.5558C15.947 17.8424 15.4379 17.2262 14.6777 17.2262C13.9308 17.2262 13.4284 17.8324 13.4284 18.5458V18.5625C13.4284 19.2759 13.9375 19.8922 14.6877 19.8922C15.4446 19.8922 15.947 19.286 15.947 18.5726ZM19.0217 18.864V16.0908H20.4116V18.8372C20.4116 19.5506 20.7733 19.8855 21.3193 19.8855C21.8652 19.8855 22.2269 19.5606 22.2269 18.874V16.0908H23.6169V18.8305C23.6169 20.4247 22.7092 21.1214 21.3025 21.1214C19.9025 21.118 19.0217 20.4113 19.0217 18.864ZM25.7135 16.0908H27.6159C29.3777 16.0908 30.4059 17.1022 30.4059 18.529V18.5458C30.4059 19.9726 29.3676 21.0276 27.5891 21.0276H25.7135V16.0908ZM27.6394 19.8152C28.4566 19.8152 29.0025 19.3664 29.0025 18.5659V18.5491C29.0025 17.7554 28.4566 17.2998 27.6394 17.2998H27.0834V19.8085H27.6394V19.8152ZM32.3954 16.0908H36.3475V17.2898H33.7585V18.1338H36.0997V19.2692H33.7585V21.031H32.3954V16.0908ZM38.2499 16.0908H39.6131V19.8319H42.0078V21.031H38.2466V16.0908H38.2499ZM45.5848 16.0539H46.9044L49.0078 21.0276H47.5375L47.1757 20.1467H45.2733L44.9217 21.0276H43.4848L45.5848 16.0539ZM46.7906 19.0817L46.2446 17.6817L45.6887 19.0817H46.7906ZM50.7729 16.0908H53.1073C53.8643 16.0908 54.3834 16.285 54.7183 16.6266C55.0097 16.908 55.1571 17.2865 55.1571 17.7788V17.7955C55.1571 18.5525 54.7518 19.0549 54.1456 19.3094L55.3245 21.0343H53.7403L52.7456 19.5372H52.1461V21.0343H50.7729V16.0908ZM53.0437 18.4587C53.5092 18.4587 53.7738 18.2309 53.7738 17.8759V17.8592C53.7738 17.4707 53.4925 17.2764 53.0336 17.2764H52.136V18.4554L53.0437 18.4587ZM57.1298 16.0908H61.1021V17.253H58.4863V17.9998H60.8542V19.0817H58.4863V19.8654H61.1355V21.0276H57.1298V16.0908ZM3.84942 19.152C3.65517 19.5841 3.2499 19.8922 2.72072 19.8922C1.97383 19.8922 1.46139 19.2659 1.46139 18.5625V18.5458C1.46139 17.8324 1.96378 17.2262 2.71067 17.2262C3.27335 17.2262 3.70541 17.5711 3.88292 18.0434H5.32646C5.09871 16.8644 4.05708 15.9903 2.72072 15.9903C1.20014 15.9936 0.0546875 17.1458 0.0546875 18.5625V18.5793C0.0546875 19.9994 1.1834 21.1348 2.70397 21.1348C4.00684 21.1348 5.02837 20.2908 5.29296 19.162L3.84942 19.152Z" fill="#404041"></path><path d="M59.4804 8.20989L55.7024 6.04291L55.0493 5.76157L39.5957 5.86874V13.7128H59.477L59.4804 8.20989Z" fill="white"></path><path d="M52.6012 12.9893C52.7854 12.3563 52.7151 11.7735 52.4069 11.3415C52.1256 10.9462 51.65 10.7151 51.0773 10.6884L40.239 10.5477C40.1686 10.5477 40.1084 10.5108 40.0715 10.4606C40.0347 10.407 40.028 10.3367 40.0447 10.2663C40.0816 10.1592 40.1854 10.0821 40.2993 10.0721L51.2347 9.93142C52.5275 9.87113 53.9375 8.8228 54.4299 7.53668L55.0562 5.90893C55.083 5.83859 55.093 5.76826 55.0729 5.69792C54.3729 2.51276 51.5294 0.134766 48.1299 0.134766C44.995 0.134766 42.3356 2.16108 41.3844 4.96778C40.7682 4.50893 39.9844 4.26443 39.1404 4.34146C37.6332 4.49218 36.4275 5.69792 36.2801 7.20175C36.2433 7.59027 36.2701 7.96874 36.3605 8.32041C33.9055 8.39075 31.9395 10.397 31.9395 12.8721C31.9395 13.0931 31.9562 13.3108 31.983 13.5319C31.9997 13.6391 32.0902 13.7161 32.194 13.7161H52.1993C52.3131 13.7161 52.4203 13.6357 52.4538 13.5218L52.6012 12.9893Z" fill="#F38020"></path><path d="M56.0545 6.02615C55.9573 6.02615 55.8535 6.02615 55.7564 6.0362C55.6861 6.0362 55.6258 6.08979 55.599 6.16012L55.177 7.63046C54.9928 8.26347 55.0631 8.84625 55.3712 9.27831C55.6526 9.67352 56.1282 9.90462 56.7009 9.93142L59.0085 10.0721C59.0789 10.0721 59.1392 10.1089 59.176 10.1592C59.2128 10.2128 59.2195 10.2898 59.2028 10.3534C59.166 10.4606 59.0621 10.5376 58.9483 10.5477L56.5435 10.6884C55.2406 10.7486 53.8406 11.797 53.3483 13.0831L53.1707 13.5319C53.1339 13.619 53.1975 13.7094 53.2947 13.7094H61.5473C61.6444 13.7094 61.7315 13.6491 61.7583 13.552C61.899 13.0429 61.9794 12.5037 61.9794 11.951C61.9794 8.68548 59.32 6.02615 56.0545 6.02615Z" fill="#FAAE40"></path></g><defs><clipPath id="clip0_3610_2399"><rect width="63.2813" height="21" fill="white" transform="translate(0.0546875 0.134766)"></rect></clipPath></defs></svg>