<svg xmlns="http://www.w3.org/2000/svg" width="22" height="22" viewBox="0 0 22 22" fill="none"><g clip-path="url(#clip0_3811_5625)"><path d="M11.292 0.812371C11.1042 0.823404 10.9205 0.872054 10.7519 0.955434L3.43797 4.44406C3.05603 4.62584 2.77843 4.97168 2.68328 5.38381L0.893029 13.2135C0.807716 13.581 0.876622 13.9662 1.0899 14.2812C1.11484 14.3193 1.14109 14.3561 1.16865 14.3915L6.22178 20.6744C6.48887 21.0026 6.88984 21.1909 7.31247 21.1889H15.4172C15.8411 21.1896 16.2427 20.9921 16.5092 20.6685L21.5597 14.3843C21.8248 14.0562 21.9239 13.623 21.8222 13.2122L20.0201 5.37593C19.9249 4.96381 19.646 4.61796 19.2654 4.43618L11.9633 0.95609C11.7529 0.852309 11.5198 0.802899 11.2854 0.812371H11.292Z" fill="#326CE5"></path><path d="M11.3589 3.48069C11.1069 3.49841 10.9159 3.71432 10.9291 3.96632V4.08969C10.9409 4.22947 10.9619 4.36794 10.9894 4.5051C11.0297 4.76774 11.0442 5.03369 11.0328 5.29916C11.0078 5.38644 10.9579 5.46519 10.8897 5.52557L10.8798 5.71063C10.6141 5.73294 10.3503 5.77363 10.0904 5.83269C8.99707 6.07944 8.00153 6.64644 7.23307 7.46347L7.07557 7.35191C6.98894 7.37816 6.89575 7.36832 6.81635 7.32566C6.60334 7.168 6.40619 6.98997 6.22769 6.7941C6.13803 6.68696 6.04228 6.58507 5.94091 6.48894L5.84378 6.4115C5.75716 6.34194 5.65085 6.30191 5.53994 6.29666C5.47376 6.29315 5.40768 6.30535 5.34712 6.33227C5.28655 6.35919 5.23322 6.40006 5.19147 6.45153C5.04316 6.65957 5.09172 6.94766 5.2991 7.09663L5.38966 7.16881C5.50623 7.24638 5.62719 7.31715 5.75191 7.38078C5.98422 7.51006 6.20341 7.66166 6.40685 7.84016C6.45889 7.91437 6.48912 8.00166 6.49413 8.09216L6.63719 8.22341C5.86478 9.38235 5.54782 10.7861 5.746 12.1648L5.56225 12.2173C5.51435 12.2935 5.45069 12.3584 5.37457 12.4063C5.1182 12.4748 4.85577 12.5181 4.591 12.5356C4.45049 12.5385 4.31026 12.5494 4.171 12.5684L4.05485 12.5947H4.04172C3.96111 12.6059 3.88519 12.6392 3.82241 12.691C3.75962 12.7428 3.71244 12.811 3.68612 12.888C3.65979 12.965 3.65535 13.0478 3.6733 13.1272C3.69124 13.2065 3.73086 13.2794 3.78775 13.3376C3.84517 13.3955 3.91756 13.4363 3.99683 13.4554C4.0761 13.4745 4.15913 13.4712 4.23663 13.4458H4.24516L4.36328 13.4327C4.4965 13.3933 4.62775 13.3448 4.75572 13.2897C5.00182 13.1912 5.2571 13.1158 5.51828 13.0665C5.60885 13.0718 5.69547 13.1026 5.76897 13.1551L5.96585 13.1223C6.39241 14.446 7.28885 15.5675 8.48585 16.2743L8.40578 16.4416C8.44253 16.5184 8.45632 16.6037 8.44516 16.6884C8.33688 16.9391 8.20431 17.1793 8.04944 17.405C7.96448 17.517 7.88604 17.6338 7.8145 17.7548L7.75872 17.8729C7.71825 17.9431 7.69797 18.0231 7.70011 18.1041C7.70226 18.1852 7.72675 18.264 7.77088 18.332C7.81502 18.3999 7.87707 18.4544 7.9502 18.4893C8.02333 18.5242 8.10469 18.5382 8.18528 18.5298C8.26607 18.5207 8.34276 18.4894 8.40682 18.4394C8.47089 18.3893 8.51982 18.3225 8.54819 18.2463L8.60266 18.1348C8.65253 18.0035 8.69453 17.8696 8.72866 17.7344C8.84482 17.4477 8.90782 17.1399 9.06663 16.9496C9.11853 16.9008 9.18394 16.8688 9.25432 16.8577L9.35275 16.6785C10.6503 17.1773 12.0861 17.1808 13.3861 16.6884L13.4733 16.8557C13.5626 16.8688 13.6427 16.9181 13.6965 16.9903C13.8198 17.2252 13.9196 17.4713 13.9957 17.7253C14.0304 17.8612 14.0729 17.9951 14.123 18.1262L14.1775 18.2378C14.2061 18.3137 14.2552 18.3802 14.3193 18.4299C14.3834 18.4796 14.46 18.5107 14.5406 18.5196C14.6213 18.5285 14.7028 18.5149 14.7762 18.4803C14.8496 18.4458 14.912 18.3916 14.9565 18.3238C15.0005 18.2555 15.0249 18.1764 15.0267 18.0952C15.0286 18.014 15.0079 17.9339 14.967 17.8637L14.9099 17.7456C14.8383 17.625 14.7599 17.5087 14.6749 17.3971C14.524 17.1793 14.3941 16.9469 14.2812 16.7035C14.2707 16.659 14.2692 16.6128 14.2768 16.5677C14.2845 16.5226 14.3012 16.4795 14.3258 16.441C14.2978 16.3837 14.2735 16.3248 14.253 16.2644C15.4473 15.5524 16.3398 14.4269 16.7618 13.1013L16.9482 13.1341C17.0151 13.0731 17.1031 13.0409 17.193 13.0436C17.4535 13.0934 17.7088 13.1748 17.9555 13.2667C18.0835 13.3258 18.2148 13.3756 18.348 13.4176C18.3795 13.4262 18.4254 13.4334 18.4608 13.4419H18.4694C18.5468 13.4669 18.6297 13.4699 18.7088 13.4506C18.7879 13.4313 18.86 13.3905 18.9172 13.3326C18.9745 13.2747 19.0145 13.202 19.0328 13.1227C19.0512 13.0434 19.0472 12.9606 19.0213 12.8834C18.9948 12.8064 18.9473 12.7382 18.8843 12.6865C18.8212 12.6348 18.7451 12.6016 18.6643 12.5908L18.537 12.5606C18.3977 12.5416 18.2575 12.5306 18.117 12.5278C17.8518 12.5107 17.5893 12.4674 17.3334 12.3985C17.2547 12.3545 17.189 12.2889 17.1444 12.2095L16.9672 12.157C17.1561 10.7788 16.8325 9.37931 16.0577 8.22407L16.2125 8.081C16.206 7.9911 16.2355 7.90185 16.2939 7.83294C16.4954 7.65969 16.7139 7.50678 16.9436 7.37619C17.0683 7.31253 17.1893 7.24176 17.3058 7.16422L17.4017 7.08678C17.4722 7.043 17.5289 6.98013 17.5652 6.90547C17.6015 6.8308 17.6159 6.74737 17.6068 6.66485C17.5977 6.58232 17.5654 6.50407 17.5136 6.43915C17.4619 6.37422 17.3928 6.32527 17.3144 6.29797C17.236 6.2707 17.1516 6.26615 17.0707 6.28485C16.9899 6.30354 16.916 6.34472 16.8576 6.40363L16.7605 6.48107C16.6592 6.57722 16.5634 6.67911 16.4737 6.78622C16.3005 6.98441 16.1088 7.16488 15.9008 7.32632C15.8169 7.36049 15.725 7.3705 15.6357 7.35519L15.4697 7.47332C14.5115 6.46925 13.2207 5.84582 11.8373 5.72113C11.8373 5.6555 11.8288 5.55707 11.8275 5.52622C11.7533 5.47503 11.7015 5.39694 11.6844 5.30835C11.6753 5.04332 11.692 4.77804 11.7343 4.51625C11.7625 4.37844 11.7822 4.24063 11.7947 4.10085V3.9696C11.8078 3.7176 11.6175 3.50169 11.3648 3.48397L11.3589 3.48069ZM10.8116 6.87088L10.6803 9.16316H10.6705C10.6639 9.30491 10.5806 9.42566 10.4526 9.49391C10.3247 9.56216 10.1731 9.54182 10.0589 9.45847L8.17872 8.12628C8.77715 7.5385 9.52791 7.1296 10.3463 6.94569C10.4999 6.91288 10.6548 6.88794 10.8103 6.87088H10.8116ZM11.9062 6.87088C12.8939 6.9936 13.8133 7.43722 14.5247 8.1335L12.6622 9.45716C12.5474 9.54903 12.3899 9.56741 12.2567 9.50441C12.1234 9.44141 12.0381 9.30753 12.0362 9.16053L11.9062 6.87088ZM7.49622 8.9886L9.2156 10.5229V10.5328C9.32257 10.6259 9.36916 10.771 9.33766 10.9094C9.30616 11.0479 9.19985 11.1575 9.064 11.1949V11.2015L6.85769 11.8361C6.74851 10.842 6.9734 9.83998 7.49688 8.98794L7.49622 8.9886ZM15.2091 8.9886C15.7315 9.83844 15.9625 10.8353 15.8667 11.8282L13.6571 11.1916V11.1831C13.5193 11.1457 13.4143 11.0361 13.3834 10.8976C13.3526 10.7592 13.3985 10.6154 13.5055 10.5209L15.2118 8.99385L15.2091 8.9886ZM11.0065 10.6423H11.71L12.1398 11.1883L11.9837 11.8708L11.3517 12.1747L10.7184 11.8708L10.5694 11.1883L11.0065 10.6423ZM13.2601 12.5048C13.2896 12.5015 13.3257 12.5015 13.3487 12.5048L15.6239 12.8887C15.2958 13.8337 14.648 14.6409 13.8028 15.181L12.9234 13.0521C12.8992 12.995 12.8891 12.9329 12.8939 12.8711C12.8988 12.8092 12.9184 12.7495 12.9511 12.6968C12.9839 12.6441 13.0288 12.6001 13.0821 12.5684C13.1354 12.5367 13.1955 12.5182 13.2574 12.5146L13.2601 12.5048ZM9.43872 12.5146C9.56735 12.5166 9.68613 12.5829 9.75635 12.6905C9.82657 12.7981 9.83772 12.9333 9.78719 13.0514V13.06L8.91307 15.1718C8.07635 14.6356 7.4411 13.8383 7.10313 12.9031L9.35866 12.5205C9.3836 12.5179 9.40919 12.5179 9.43478 12.5205L9.43872 12.5146ZM11.3445 13.4334C11.4162 13.4311 11.4871 13.4488 11.5493 13.4845C11.6115 13.5202 11.6626 13.5725 11.6969 13.6355H11.7054L12.8171 15.6417L12.3728 15.7729C11.5551 15.9599 10.7013 15.916 9.90663 15.6456L11.0223 13.6394C11.0898 13.5213 11.2145 13.4491 11.3504 13.4458L11.3445 13.4334Z" fill="white" stroke="white" stroke-width="0.0360937"></path></g><defs><clipPath id="clip0_3811_5625"><rect width="21" height="21" fill="white" transform="translate(0.857605 0.5)"></rect></clipPath></defs></svg>