<svg xmlns="http://www.w3.org/2000/svg" width="22" height="22" viewBox="0 0 22 22" fill="none"><g clip-path="url(#clip0_3610_4102)"><path d="M10.1826 0.151154C10.1375 0.155255 9.99398 0.169609 9.8648 0.179862C6.8853 0.448488 4.09446 2.05614 2.32686 4.52709C1.34258 5.90098 0.713053 7.45942 0.475186 9.11014C0.391112 9.68636 0.380859 9.85655 0.380859 10.6378C0.380859 11.4191 0.391112 11.5893 0.475186 12.1655C1.04525 16.1047 3.84839 19.4143 7.65017 20.6406C8.33096 20.86 9.04867 21.0097 9.8648 21.0999C10.1826 21.1348 11.5565 21.1348 11.8744 21.0999C13.2831 20.944 14.4766 20.5954 15.6536 19.9946C15.834 19.9023 15.8689 19.8777 15.8443 19.8572C15.8279 19.8449 15.0589 18.8135 14.1362 17.5667L12.4588 15.3008L10.3569 12.1901C9.20041 10.4799 8.24894 9.08143 8.24074 9.08143C8.23253 9.07938 8.22433 10.4615 8.22023 12.1491C8.21408 15.104 8.21203 15.2229 8.17512 15.2926C8.1218 15.3931 8.08079 15.4341 7.99467 15.4792C7.92905 15.5121 7.87163 15.5182 7.56199 15.5182H7.20724L7.11292 15.4587C7.0514 15.4198 7.00629 15.3685 6.97553 15.309L6.93247 15.2168L6.93657 11.1054L6.94272 6.99189L7.00629 6.91192C7.0391 6.86886 7.10882 6.81349 7.15803 6.78683C7.2421 6.74582 7.27491 6.74172 7.62966 6.74172C8.04798 6.74172 8.1177 6.75813 8.22638 6.87706C8.25714 6.90987 9.39521 8.62416 10.7568 10.6891C12.1184 12.754 13.9803 15.5736 14.8949 16.9577L16.5558 19.4738L16.6399 19.4184C17.3843 18.9345 18.1717 18.2455 18.7951 17.5278C20.1218 16.0042 20.9769 14.1464 21.264 12.1655C21.3481 11.5893 21.3583 11.4191 21.3583 10.6378C21.3583 9.85655 21.3481 9.68636 21.264 9.11014C20.6939 5.17098 17.8908 1.86134 14.089 0.635091C13.4185 0.417729 12.7049 0.268037 11.9051 0.177811C11.7083 0.157305 10.3528 0.134749 10.1826 0.151154ZM14.4766 6.49565C14.575 6.54487 14.655 6.63919 14.6837 6.73762C14.7001 6.79093 14.7042 7.93106 14.7001 10.5004L14.6939 14.1874L14.0439 13.1908L13.3918 12.1942V9.51411C13.3918 7.78137 13.4 6.80734 13.4123 6.76018C13.4451 6.64534 13.5169 6.55512 13.6153 6.5018C13.6994 6.45874 13.7301 6.45464 14.0521 6.45464C14.3556 6.45464 14.4089 6.45874 14.4766 6.49565Z" fill="white"></path><path d="M16.4534 19.5189C16.3816 19.564 16.359 19.5948 16.4226 19.5599C16.4677 19.5332 16.5415 19.4779 16.5292 19.4758C16.5231 19.4758 16.4882 19.4963 16.4534 19.5189ZM16.3119 19.6112C16.275 19.6399 16.275 19.6419 16.3201 19.6194C16.3447 19.6071 16.3652 19.5927 16.3652 19.5886C16.3652 19.5722 16.3549 19.5763 16.3119 19.6112ZM16.2093 19.6727C16.1724 19.7014 16.1724 19.7034 16.2175 19.6809C16.2421 19.6686 16.2627 19.6542 16.2627 19.6501C16.2627 19.6337 16.2524 19.6378 16.2093 19.6727ZM16.1068 19.7342C16.0699 19.7629 16.0699 19.765 16.115 19.7424C16.1396 19.7301 16.1601 19.7157 16.1601 19.7116C16.1601 19.6952 16.1499 19.6993 16.1068 19.7342ZM15.951 19.8162C15.873 19.8572 15.8771 19.8736 15.9551 19.8347C15.9899 19.8162 16.0166 19.7978 16.0166 19.7937C16.0166 19.7793 16.0145 19.7814 15.951 19.8162Z" fill="white"></path></g><defs><clipPath id="clip0_3610_4102"><rect width="21" height="21" fill="white" transform="translate(0.369141 0.134766)"></rect></clipPath></defs></svg>