<svg xmlns="http://www.w3.org/2000/svg" width="20" height="22" viewBox="0 0 20 22" fill="none"><path d="M9.6187 0.414982C10.1437 0.1177 10.8131 0.116388 11.3249 0.414982L19.1632 4.83351C19.6534 5.10914 19.9815 5.65579 19.9769 6.22083V15.0802C19.9802 15.6689 19.6199 16.2273 19.1028 16.4977L11.3066 20.8959C11.0399 21.0432 10.7387 21.1165 10.4341 21.1081C10.1296 21.0997 9.83283 21.0099 9.57473 20.848L7.2352 19.4961C7.07573 19.4009 6.89657 19.3255 6.7837 19.1713C6.88345 19.0374 7.06063 19.0203 7.20501 18.9613C7.53051 18.8576 7.82844 18.6988 8.12769 18.5308C8.20316 18.4783 8.29569 18.498 8.36788 18.5452L10.3629 19.6989C10.5053 19.7809 10.6497 19.6726 10.7717 19.6037L18.4269 15.2836C18.5214 15.2377 18.5739 15.1379 18.566 15.0343V6.2602C18.5765 6.14208 18.5089 6.03445 18.4019 5.98654L10.6254 1.60739C10.5806 1.57639 10.5274 1.55973 10.4729 1.55962C10.4184 1.5595 10.3652 1.57593 10.3202 1.60673L2.55482 5.99508C2.44982 6.04298 2.37763 6.14929 2.39076 6.26742V15.0415C2.38157 15.1452 2.43669 15.243 2.53185 15.2876L4.60691 16.459C4.99673 16.669 5.47513 16.7871 5.90432 16.6329C6.09213 16.5621 6.25382 16.4356 6.36771 16.2703C6.48161 16.1051 6.54226 15.9089 6.54154 15.7082L6.54351 6.98667C6.53432 6.85739 6.65638 6.75042 6.78173 6.76354H7.77923C7.91048 6.76026 8.01351 6.89939 7.99579 7.02933L7.99382 15.806C7.99448 16.5856 7.67423 17.4335 6.95301 17.8161C6.06444 18.2755 4.96588 18.179 4.08782 17.7374L1.85657 16.5036C1.33157 16.2411 0.979163 15.6741 0.982445 15.0861V6.22673C0.984627 5.93879 1.06379 5.65667 1.21172 5.40962C1.35965 5.16257 1.57096 4.95958 1.82376 4.8217L9.6187 0.414982ZM11.8788 6.55617C13.0122 6.49054 14.2256 6.51286 15.2454 7.07133C16.0349 7.4992 16.4726 8.39695 16.487 9.27501C16.4647 9.39314 16.3413 9.45876 16.2284 9.45023C15.9003 9.44958 15.5709 9.45483 15.2414 9.44826C15.1017 9.45351 15.0209 9.32489 15.0032 9.20151C14.9087 8.78151 14.6797 8.36611 14.2846 8.16333C13.6783 7.85948 12.9748 7.87458 12.3133 7.88114C11.8303 7.90739 11.3112 7.94873 10.9023 8.23223C10.5873 8.44748 10.4928 8.88848 10.605 9.23104C10.71 9.48239 11.0008 9.56311 11.2377 9.63792C12.604 9.99492 14.051 9.96604 15.3917 10.43C15.9463 10.6216 16.489 10.9944 16.6793 11.5752C16.9274 12.3535 16.8191 13.284 16.2659 13.9088C15.817 14.4233 15.1634 14.6963 14.5104 14.8551C13.6422 15.0487 12.7418 15.0533 11.8604 14.9667C11.0316 14.8722 10.1693 14.6543 9.52944 14.0899C8.98213 13.6148 8.71569 12.8745 8.74194 12.1605C8.74851 12.0398 8.8686 11.9558 8.98476 11.9656H9.96913C10.1017 11.9565 10.1988 12.0706 10.2054 12.1953C10.2664 12.5891 10.4167 13.0156 10.7658 13.2453C11.4391 13.6798 12.2837 13.6496 13.0542 13.662C13.6927 13.6338 14.4093 13.6253 14.931 13.2027C15.2067 12.9618 15.2874 12.5595 15.2132 12.213C15.1325 11.9204 14.8195 11.7845 14.557 11.688C13.2084 11.2615 11.7449 11.4164 10.4095 10.9334C9.86741 10.7417 9.34307 10.3795 9.13504 9.82233C8.84432 9.03483 8.97754 8.05898 9.58982 7.45523C10.1804 6.85476 11.0467 6.62311 11.867 6.54042L11.8788 6.55617Z" fill="#8CC84B"></path></svg>