<svg xmlns="http://www.w3.org/2000/svg" width="22" height="22" viewBox="0 0 22 22" fill="none"><g clip-path="url(#clip0_3811_5577)"><path d="M11.2677 0.547905C5.94995 0.547905 6.28198 2.854 6.28198 2.854L6.28788 5.24318H11.3625V5.96047H4.27232C4.27232 5.96047 0.869492 5.57455 0.869492 10.9401C0.869492 16.3059 3.83956 16.1156 3.83956 16.1156H5.61209V13.6257C5.61209 13.6257 5.51653 10.6556 8.53475 10.6556H13.5679C13.5679 10.6556 16.3956 10.7013 16.3956 7.92264V3.32834C16.3956 3.32834 16.8251 0.547905 11.2677 0.547905ZM8.46955 2.15458C8.58946 2.15447 8.70822 2.17801 8.81903 2.22385C8.92984 2.26969 9.03053 2.33694 9.11532 2.42173C9.20011 2.50652 9.26736 2.60721 9.3132 2.71802C9.35904 2.82883 9.38258 2.94759 9.38247 3.0675C9.38258 3.18742 9.35904 3.30618 9.3132 3.41699C9.26736 3.5278 9.20011 3.62848 9.11532 3.71328C9.03053 3.79807 8.92984 3.86531 8.81903 3.91115C8.70822 3.95699 8.58946 3.98053 8.46955 3.98043C8.34963 3.98053 8.23087 3.95699 8.12006 3.91115C8.00925 3.86531 7.90857 3.79807 7.82377 3.71328C7.73898 3.62848 7.67174 3.5278 7.6259 3.41699C7.58006 3.30618 7.55652 3.18742 7.55662 3.0675C7.55652 2.94759 7.58006 2.82883 7.6259 2.71802C7.67174 2.60721 7.73898 2.50652 7.82377 2.42173C7.90857 2.33694 8.00925 2.26969 8.12006 2.22385C8.23087 2.17801 8.34963 2.15447 8.46955 2.15458Z" fill="url(#paint0_linear_3811_5577)"></path><path d="M11.4187 21.3863C16.7364 21.3863 16.4044 19.0802 16.4044 19.0802L16.3985 16.6911H11.3238V15.9738H18.414C18.414 15.9738 21.8168 16.3597 21.8168 10.994C21.8168 5.62837 18.8467 5.81866 18.8467 5.81866H17.0742V8.30848C17.0742 8.30848 17.1698 11.2786 14.1516 11.2786H9.11843C9.11843 11.2786 6.29067 11.2329 6.29067 14.0116V18.606C6.29067 18.606 5.86127 21.3863 11.4186 21.3863H11.4187ZM14.2168 19.7798C14.0969 19.7799 13.9782 19.7564 13.8674 19.7105C13.7565 19.6647 13.6559 19.5974 13.5711 19.5127C13.4863 19.4279 13.419 19.3272 13.3732 19.2164C13.3274 19.1056 13.3038 18.9868 13.3039 18.8669C13.3038 18.747 13.3273 18.6282 13.3732 18.5174C13.419 18.4065 13.4862 18.3059 13.571 18.2211C13.6558 18.1362 13.7565 18.069 13.8673 18.0232C13.9782 17.9773 14.0969 17.9538 14.2168 17.9539C14.3368 17.9538 14.4555 17.9773 14.5663 18.0231C14.6771 18.069 14.7778 18.1362 14.8626 18.221C14.9474 18.3058 15.0147 18.4065 15.0605 18.5173C15.1063 18.6281 15.1299 18.7469 15.1298 18.8668C15.1299 18.9867 15.1063 19.1055 15.0605 19.2163C15.0147 19.3271 14.9474 19.4278 14.8626 19.5126C14.7778 19.5974 14.6771 19.6646 14.5663 19.7104C14.4555 19.7563 14.3368 19.7799 14.2168 19.7798Z" fill="url(#paint1_linear_3811_5577)"></path></g><defs><linearGradient id="paint0_linear_3811_5577" x1="202.173" y1="187.977" x2="1240.26" y2="1215.71" gradientUnits="userSpaceOnUse"><stop stop-color="#387EB8"></stop><stop offset="1" stop-color="#366994"></stop></linearGradient><linearGradient id="paint1_linear_3811_5577" x1="303.414" y1="326.202" x2="1418.2" y2="1380.04" gradientUnits="userSpaceOnUse"><stop stop-color="#FFE052"></stop><stop offset="1" stop-color="#FFC331"></stop></linearGradient><clipPath id="clip0_3811_5577"><rect width="21" height="20.916" fill="white" transform="translate(0.857605 0.542)"></rect></clipPath></defs></svg>