<svg xmlns="http://www.w3.org/2000/svg" width="20" height="22" viewBox="0 0 20 22" fill="none"><g clip-path="url(#clip0_3610_2989)"><path d="M19.0417 8.52764H12.4409C12.2818 8.52757 12.1292 8.46442 12.0167 8.35204C11.9042 8.23966 11.841 8.08726 11.8409 7.92832V1.05644C11.8409 0.547559 11.4278 0.134766 10.9186 0.134766H8.5623C8.0528 0.134766 7.63995 0.547559 7.63995 1.05644V7.88671C7.63995 8.24108 7.35316 8.52911 6.99841 8.53066L4.83527 8.54096C4.4775 8.5429 4.18683 8.25293 4.18753 7.89585L4.20095 1.05799C4.20211 0.548334 3.78888 0.134766 3.27867 0.134766H0.924306C0.414724 0.134766 0.00195312 0.547559 0.00195312 1.05644V20.2986C0.00195312 20.7507 0.368567 21.1169 0.820745 21.1169H19.0417C19.4942 21.1169 19.8609 20.7507 19.8609 20.2986V9.34594C19.8609 8.89386 19.4942 8.52764 19.0417 8.52764ZM15.9463 15.7523C15.9463 16.3447 15.4655 16.8251 14.8725 16.8251H13.0103C12.4172 16.8251 11.9364 16.3447 11.9364 15.7523V13.8922C11.9364 13.2997 12.4172 12.8194 13.0103 12.8194H14.8725C15.4655 12.8194 15.9463 13.2997 15.9463 13.8922V15.7523Z" fill="#FF6600"></path></g><defs><clipPath id="clip0_3610_2989"><rect width="19.8621" height="21" fill="white" transform="translate(0 0.134766)"></rect></clipPath></defs></svg>