<svg xmlns="http://www.w3.org/2000/svg" width="25" height="22" viewBox="0 0 25 22" fill="none"><g clip-path="url(#clip0_3610_2942)"><path d="M12.5666 12.7385C13.7285 12.7385 14.6704 11.7966 14.6704 10.6348C14.6704 9.47289 13.7285 8.53101 12.5666 8.53101C11.4048 8.53101 10.4629 9.47289 10.4629 10.6348C10.4629 11.7966 11.4048 12.7385 12.5666 12.7385Z" fill="#61DAFB"></path><path d="M12.5677 14.9449C18.8021 14.9449 23.8561 13.0152 23.8561 10.6348C23.8561 8.25435 18.8021 6.32465 12.5677 6.32465C6.33329 6.32465 1.2793 8.25435 1.2793 10.6348C1.2793 13.0152 6.33329 14.9449 12.5677 14.9449Z" stroke="#61DAFB"></path><path d="M8.83511 12.7898C11.9523 18.189 16.1505 21.601 18.212 20.4108C20.2735 19.2206 19.4177 13.8789 16.3005 8.47972C13.1832 3.08056 8.98508 -0.331473 6.92358 0.858733C4.86208 2.04894 5.7179 7.39067 8.83511 12.7898Z" stroke="#61DAFB"></path><path d="M8.83577 8.47972C5.71856 13.8789 4.86274 19.2206 6.92424 20.4108C8.98574 21.601 13.1839 18.189 16.3011 12.7898C19.4183 7.39068 20.2741 2.04894 18.2126 0.858736C16.1511 -0.33147 11.953 3.08056 8.83577 8.47972Z" stroke="#61DAFB"></path></g><defs><clipPath id="clip0_3610_2942"><rect width="23.603" height="21" fill="white" transform="translate(0.765625 0.134766)"></rect></clipPath></defs></svg>