<svg xmlns="http://www.w3.org/2000/svg" width="72" height="18" viewBox="0 0 72 18" fill="none"><g clip-path="url(#clip0_3811_5715)"><path d="M17.4588 9.60719C18.868 9.60719 20.8959 9.32077 20.8959 7.64805C20.8959 7.52203 20.8844 7.38454 20.8615 7.25851L20.0251 3.62665C19.8304 2.82466 19.6585 2.46949 18.2608 1.75916C17.1724 1.19777 14.8008 0.281212 14.0904 0.281212C13.4374 0.281212 13.2426 1.12903 12.4635 1.12903C11.7074 1.12903 11.1574 0.498896 10.4586 0.498896C9.78261 0.498896 9.34724 0.957175 9.00353 1.9081C9.00353 1.9081 8.06406 4.57758 7.93803 4.95566C7.91512 5.0244 7.91512 5.1046 7.91512 5.17334C7.91512 6.20447 11.9938 9.59574 17.4588 9.60719ZM21.1136 8.32401C21.3083 9.24057 21.3083 9.34368 21.3083 9.45825C21.3083 11.0279 19.544 11.8986 17.2182 11.8986C11.9594 11.8986 7.36518 8.82812 7.36518 6.78878C7.36518 6.50235 7.42247 6.22739 7.53704 5.96387C5.64664 6.05553 3.2063 6.39924 3.2063 8.55315C3.2063 12.0934 11.5814 16.447 18.2264 16.447C23.3133 16.447 24.5965 14.1442 24.5965 12.334C24.585 10.9133 23.3477 9.2864 21.1136 8.32401Z" fill="#EE0000"></path><path d="M21.1135 8.32405C21.3083 9.2406 21.3083 9.34372 21.3083 9.45829C21.3083 11.0279 19.5439 11.8986 17.2181 11.8986C11.9594 11.8986 7.36514 8.82815 7.36514 6.78881C7.36514 6.50239 7.42243 6.22742 7.537 5.96391L7.94945 4.94424C7.92654 5.01298 7.92654 5.08172 7.92654 5.16192C7.92654 6.19305 12.0052 9.59577 17.4702 9.59577C18.8794 9.59577 20.9073 9.30935 20.9073 7.63663C20.9073 7.5106 20.8958 7.37312 20.8729 7.24709L21.1135 8.32405Z" fill="black"></path><path d="M68.282 10.6498C68.282 11.9903 69.084 12.6319 70.5505 12.6319C70.9973 12.6204 71.4441 12.5517 71.8909 12.4485V10.9018C71.616 10.9935 71.3181 11.0393 71.0316 11.0279C70.4244 11.0279 70.2067 10.8446 70.2067 10.2717V7.90012H71.9597V6.3076H70.2067V4.27971L68.2934 4.69216V6.29614H67.0217V7.88866H68.282V10.6498ZM62.3243 10.6842C62.3243 10.2717 62.7368 10.0655 63.3669 10.0655C63.745 10.0655 64.1345 10.1113 64.5012 10.203V11.005C64.1345 11.1997 63.7221 11.3028 63.3096 11.3028C62.691 11.3143 62.3243 11.0737 62.3243 10.6842ZM62.9086 12.6548C63.5846 12.6548 64.1231 12.5173 64.6387 12.1736V12.5517H66.5291V8.54171C66.5291 7.01793 65.4979 6.18157 63.7908 6.18157C62.8284 6.18157 61.889 6.41071 60.8693 6.86899L61.5567 8.2782C62.29 7.96886 62.9086 7.78555 63.4471 7.78555C64.2377 7.78555 64.6387 8.09489 64.6387 8.71356V9.0229C64.1804 8.90833 63.6992 8.83959 63.218 8.85105C61.614 8.85105 60.6402 9.52701 60.6402 10.73C60.6402 11.8299 61.5109 12.6662 62.9086 12.6548ZM52.5172 12.5517H54.5451V9.30933H57.9478V12.5517H59.9871V4.27971H57.9592V7.4533H54.5565V4.27971H52.5286L52.5172 12.5517ZM44.7837 9.4239C44.7837 8.53025 45.494 7.84283 46.4221 7.84283C46.9032 7.83137 47.3844 8.00323 47.7396 8.32403V10.5123C47.3844 10.8446 46.9032 11.0279 46.4221 11.0164C45.5055 11.005 44.7837 10.329 44.7837 9.4239ZM47.774 12.5631H49.6644V3.87872L47.7511 4.29117V6.63985C47.2699 6.36488 46.7199 6.21594 46.1585 6.2274C44.3369 6.2274 42.9048 7.63661 42.9048 9.4239C42.8818 11.1768 44.2911 12.6204 46.044 12.6319C46.0669 12.6319 46.0783 12.6319 46.1013 12.6319C46.7085 12.6319 47.2928 12.4485 47.774 12.0934V12.5631ZM39.0896 7.75118C39.6968 7.75118 40.2009 8.14071 40.3957 8.74793H37.7835C37.9897 8.1178 38.4594 7.75118 39.0896 7.75118ZM35.8702 9.43535C35.8702 11.257 37.3596 12.6777 39.2729 12.6777C40.3269 12.6777 41.0946 12.3913 41.8851 11.7267L40.6248 10.604C40.3269 10.9133 39.8916 11.0737 39.376 11.0737C38.7115 11.0966 38.0928 10.6956 37.8408 10.0769H42.2975V9.60721C42.2975 7.62515 40.9571 6.19303 39.1469 6.19303C37.371 6.17011 35.916 7.57932 35.8931 9.35515C35.8702 9.37807 35.8702 9.41244 35.8702 9.43535ZM32.582 6.02117C33.258 6.02117 33.6361 6.44508 33.6361 6.94919C33.6361 7.4533 33.258 7.8772 32.582 7.8772H30.577V6.02117H32.582ZM28.5377 12.5517H30.5656V9.53847H32.1123L33.6704 12.5517H35.9504L34.1287 9.24058C35.0796 8.85105 35.6869 7.93449 35.6869 6.91482C35.6869 5.42541 34.5182 4.27971 32.7653 4.27971H28.5262V12.5517H28.5377Z" fill="black"></path></g><defs><clipPath id="clip0_3811_5715"><rect width="71.1424" height="17.7856" fill="white" transform="translate(0.857605 0.107201)"></rect></clipPath></defs></svg>